<?xml version="1.0" encoding="UTF-8" standalone="no"?>
<svg
   version="1.1"
   viewBox="0 0 1024 768"
   id="svg20"
   sodipodi:docname="Lotus_Blockchain.svg"
   inkscape:version="1.1.1 (3bf5ae0d25, 2021-09-20)"
   xmlns:inkscape="http://www.inkscape.org/namespaces/inkscape"
   xmlns:sodipodi="http://sodipodi.sourceforge.net/DTD/sodipodi-0.dtd"
   xmlns="http://www.w3.org/2000/svg"
   xmlns:svg="http://www.w3.org/2000/svg">
  <sodipodi:namedview
     id="namedview22"
     pagecolor="#ffffff"
     bordercolor="#666666"
     borderopacity="1.0"
     inkscape:pageshadow="2"
     inkscape:pageopacity="0.0"
     inkscape:pagecheckerboard="0"
     showgrid="false"
     inkscape:zoom="0.93619792"
     inkscape:cx="511.64395"
     inkscape:cy="383.46592"
     inkscape:window-width="2160"
     inkscape:window-height="1346"
     inkscape:window-x="-11"
     inkscape:window-y="-11"
     inkscape:window-maximized="1"
     inkscape:current-layer="svg20" />
  <defs
     id="defs8">
    <filter
       id="blur"
       x="-0.1171875"
       y="-0.15625"
       width="1.234375"
       height="1.3125">
      <feGaussianBlur
         in="SourceGraphic"
         stdDeviation="50"
         id="feGaussianBlur2" />
    </filter>
    <clipPath
       clipPathUnits="userSpaceOnUse"
       id="clipPath1304">
      <path
         id="path1306"
         d="m 174.29,322.26 c -0.01,0 -0.31,0.37 -0.65,0.82 -0.34,0.46 -0.92,1.29 -1.28,1.84 -0.37,0.56 -0.89,1.37 -1.15,1.79 -0.27,0.43 -0.7,1.13 -0.96,1.56 -0.25,0.43 -0.67,1.13 -0.91,1.56 -0.25,0.43 -0.68,1.19 -0.96,1.7 -0.28,0.5 -0.7,1.28 -0.94,1.73 -0.24,0.45 -0.78,1.51 -1.21,2.36 -0.42,0.84 -0.94,1.89 -1.15,2.33 -0.21,0.44 -0.6,1.28 -0.87,1.87 -0.26,0.59 -0.72,1.63 -1.01,2.3 -0.29,0.68 -0.73,1.75 -0.98,2.38 -0.26,0.63 -0.62,1.57 -0.81,2.08 -0.2,0.52 -0.51,1.38 -0.7,1.93 -0.2,0.55 -0.45,1.29 -0.57,1.66 -0.12,0.36 -0.31,0.96 -0.43,1.34 -0.12,0.37 -0.32,1.04 -0.45,1.48 -0.12,0.44 -0.29,1.04 -0.37,1.32 -0.08,0.29 -0.15,0.54 -0.16,0.54 -0.01,0.01 -0.14,-0.09 -0.3,-0.22 -0.16,-0.14 -0.59,-0.5 -0.97,-0.82 -0.37,-0.31 -0.94,-0.78 -1.27,-1.04 -0.32,-0.26 -0.8,-0.63 -1.05,-0.82 -0.25,-0.19 -0.68,-0.51 -0.95,-0.7 -0.27,-0.19 -0.72,-0.51 -1.01,-0.7 -0.29,-0.19 -1.02,-0.66 -1.62,-1.03 -0.6,-0.38 -1.3,-0.81 -1.55,-0.96 -0.26,-0.15 -0.79,-0.45 -1.18,-0.67 -0.38,-0.21 -1.11,-0.6 -1.61,-0.85 -0.51,-0.26 -1.13,-0.56 -1.39,-0.68 -0.26,-0.13 -0.73,-0.34 -1.05,-0.48 -0.32,-0.14 -0.94,-0.41 -1.38,-0.59 -0.44,-0.17 -1.01,-0.4 -1.28,-0.5 -0.26,-0.1 -0.73,-0.26 -1.03,-0.37 -0.3,-0.1 -0.88,-0.29 -1.29,-0.42 -0.41,-0.13 -0.92,-0.28 -1.15,-0.34 -0.22,-0.05 -0.44,-0.1 -0.47,-0.11 -0.05,-0.01 -0.16,0.13 -0.42,0.59 -0.19,0.34 -0.46,0.84 -0.6,1.12 -0.14,0.28 -0.37,0.77 -0.52,1.11 -0.14,0.33 -0.33,0.78 -0.41,0.99 -0.09,0.22 -0.29,0.73 -0.44,1.15 -0.16,0.42 -0.43,1.2 -0.6,1.73 -0.18,0.54 -0.44,1.36 -0.57,1.83 -0.14,0.48 -0.33,1.21 -0.44,1.64 -0.11,0.43 -0.28,1.14 -0.38,1.57 -0.09,0.44 -0.24,1.15 -0.33,1.6 -0.08,0.44 -0.24,1.43 -0.35,2.21 -0.11,0.77 -0.29,2.11 -0.41,2.99 -0.11,0.87 -0.21,1.59 -0.22,1.6 -0.01,0.01 -0.39,-0.1 -0.84,-0.25 -0.44,-0.15 -1.26,-0.39 -1.8,-0.54 -0.55,-0.15 -1.41,-0.39 -1.92,-0.53 -0.51,-0.14 -1.29,-0.34 -1.73,-0.45 -0.45,-0.11 -1.16,-0.28 -1.59,-0.37 -0.43,-0.09 -1.15,-0.24 -1.59,-0.33 -0.45,-0.09 -1.12,-0.21 -1.5,-0.27 -0.38,-0.07 -1.07,-0.17 -1.53,-0.23 -0.46,-0.07 -1.15,-0.16 -1.54,-0.2 -0.38,-0.04 -1.11,-0.12 -1.61,-0.16 -0.72,-0.07 -1.33,-0.09 -2.8,-0.1 l -1.88,-0.03 v 0.91 c 0,0.51 0.02,1.26 0.04,1.67 0.02,0.42 0.08,1.17 0.12,1.66 0.04,0.49 0.12,1.25 0.18,1.68 0.05,0.43 0.13,1.02 0.17,1.32 0.05,0.3 0.14,0.91 0.22,1.36 0.07,0.45 0.22,1.26 0.33,1.81 0.11,0.55 0.28,1.38 0.39,1.85 0.1,0.48 0.32,1.37 0.48,1.99 0.16,0.62 0.4,1.53 0.54,2.01 0.14,0.48 0.37,1.24 0.51,1.69 0.14,0.45 0.39,1.24 0.57,1.76 0.17,0.51 0.48,1.38 0.68,1.92 0.21,0.54 0.51,1.33 0.68,1.75 0.17,0.42 0.4,0.97 0.5,1.23 0.11,0.26 0.2,0.47 0.19,0.48 -0.01,0.01 -0.12,0.03 -0.25,0.05 -0.12,0.02 -0.55,0.09 -0.95,0.16 -0.39,0.06 -1.12,0.19 -1.61,0.29 -0.5,0.1 -1.21,0.25 -1.58,0.33 -0.38,0.09 -0.92,0.22 -1.21,0.3 -0.29,0.07 -0.85,0.22 -1.24,0.33 -0.4,0.11 -1.15,0.35 -1.66,0.52 -0.51,0.18 -1.23,0.43 -1.59,0.57 -0.35,0.14 -0.66,0.26 -0.67,0.27 -0.01,0.01 0.02,0.37 0.06,0.8 0.04,0.42 0.1,0.89 0.12,1.03 0.02,0.13 0.08,0.48 0.14,0.75 0.05,0.28 0.17,0.84 0.27,1.23 0.09,0.4 0.26,1.04 0.37,1.44 0.1,0.39 0.32,1.11 0.47,1.59 0.15,0.49 0.41,1.28 0.58,1.76 0.17,0.49 0.5,1.34 0.72,1.89 0.22,0.56 0.57,1.4 0.77,1.86 0.21,0.47 0.57,1.26 0.81,1.75 0.24,0.5 0.62,1.26 0.85,1.69 0.22,0.43 0.6,1.14 0.85,1.58 0.25,0.44 0.65,1.13 0.9,1.54 0.24,0.4 0.67,1.08 0.95,1.51 0.27,0.43 0.74,1.12 1.03,1.54 0.3,0.42 0.81,1.12 1.14,1.56 0.33,0.44 0.82,1.07 1.09,1.4 0.26,0.34 0.69,0.85 0.93,1.14 0.25,0.28 0.6,0.69 0.78,0.89 0.18,0.2 0.7,0.76 1.15,1.24 0.45,0.48 1.22,1.25 1.72,1.72 0.49,0.47 1.13,1.06 1.42,1.31 0.29,0.26 0.78,0.67 1.09,0.93 0.31,0.26 0.78,0.64 1.03,0.84 0.26,0.21 0.68,0.53 0.94,0.73 0.26,0.19 0.69,0.51 0.97,0.71 0.28,0.2 0.9,0.62 1.37,0.94 0.47,0.31 0.89,0.59 0.93,0.61 0.06,0.03 0.07,0.06 0.04,0.1 -0.02,0.03 -0.24,0.27 -0.49,0.54 -0.24,0.26 -0.69,0.76 -0.99,1.1 -0.3,0.35 -0.78,0.9 -1.06,1.23 -0.28,0.33 -0.79,0.96 -1.14,1.4 -0.35,0.44 -0.94,1.2 -1.31,1.7 -0.36,0.49 -0.92,1.25 -1.23,1.69 -0.31,0.44 -0.85,1.22 -1.19,1.73 -0.34,0.52 -0.91,1.4 -1.27,1.97 -0.35,0.57 -0.86,1.4 -1.12,1.85 -0.26,0.45 -0.66,1.15 -0.88,1.56 -0.22,0.41 -0.74,1.4 -1.15,2.21 -0.4,0.81 -0.73,1.48 -0.73,1.49 0.01,0 0.6,0.17 1.3,0.38 0.71,0.21 1.53,0.44 1.83,0.51 0.3,0.07 0.94,0.22 1.42,0.33 0.49,0.11 1.29,0.27 1.78,0.37 0.49,0.1 1.14,0.22 1.44,0.27 0.3,0.06 0.93,0.16 1.4,0.24 0.47,0.07 1.31,0.2 1.85,0.27 0.55,0.08 1.49,0.19 2.09,0.26 0.6,0.06 1.39,0.14 1.77,0.17 0.37,0.04 1.07,0.09 1.56,0.12 0.48,0.03 1.31,0.08 1.85,0.1 0.53,0.03 1.84,0.04 2.9,0.04 1.06,0 2.36,-0.02 2.9,-0.04 0.54,-0.02 1.43,-0.08 1.99,-0.12 0.55,-0.04 1.27,-0.1 1.59,-0.14 0.32,-0.03 0.93,-0.1 1.35,-0.15 0.41,-0.06 1.04,-0.14 1.38,-0.2 0.34,-0.05 0.91,-0.15 1.27,-0.21 0.35,-0.07 0.95,-0.19 1.34,-0.27 0.39,-0.09 1.03,-0.23 1.42,-0.33 0.4,-0.1 1.03,-0.27 1.4,-0.38 0.38,-0.11 1.05,-0.32 1.5,-0.47 0.45,-0.15 1.08,-0.38 1.41,-0.5 0.32,-0.12 1.18,-0.48 1.9,-0.81 0.73,-0.32 1.72,-0.76 2.21,-0.98 0.48,-0.23 1.38,-0.66 2.01,-0.97 l 1.13,-0.57 0.45,0.48 c 0.24,0.27 0.69,0.72 1.01,1.01 0.31,0.28 0.77,0.68 1.02,0.89 0.25,0.2 0.65,0.5 0.89,0.67 0.24,0.16 0.63,0.42 0.87,0.56 0.24,0.15 0.69,0.39 0.98,0.54 0.3,0.14 0.69,0.33 0.87,0.4 0.18,0.08 0.51,0.2 0.74,0.28 0.22,0.08 0.61,0.19 0.85,0.26 0.25,0.06 0.7,0.16 1.01,0.21 0.3,0.05 0.85,0.11 1.22,0.14 0.46,0.02 0.88,0.02 1.32,0 0.35,-0.02 0.81,-0.07 1.02,-0.1 0.21,-0.03 0.59,-0.1 0.84,-0.16 0.25,-0.05 0.74,-0.19 1.08,-0.31 0.34,-0.11 0.81,-0.29 1.03,-0.39 0.23,-0.1 0.59,-0.27 0.81,-0.38 0.22,-0.12 0.62,-0.36 0.9,-0.53 0.27,-0.17 0.69,-0.46 0.93,-0.63 0.24,-0.18 0.64,-0.51 0.89,-0.72 0.26,-0.22 0.76,-0.69 1.11,-1.05 0.35,-0.37 0.83,-0.88 1.05,-1.15 0.23,-0.27 0.47,-0.57 0.55,-0.67 0.07,-0.1 0.14,-0.18 0.15,-0.18 0.01,-0.01 0.27,0.13 0.57,0.29 0.3,0.16 1.09,0.56 1.75,0.89 0.66,0.33 1.6,0.78 2.08,1 0.49,0.21 1.33,0.58 1.87,0.81 0.55,0.24 1.27,0.53 1.6,0.67 0.33,0.13 0.95,0.37 1.38,0.52 0.43,0.16 1.1,0.38 1.48,0.5 0.39,0.12 0.92,0.28 1.19,0.35 0.27,0.08 0.66,0.18 0.86,0.24 0.2,0.05 0.71,0.17 1.13,0.27 0.42,0.1 1.08,0.24 1.47,0.31 0.39,0.08 1.09,0.21 1.54,0.28 0.45,0.07 1.17,0.18 1.58,0.23 0.42,0.06 1.11,0.14 1.52,0.18 0.42,0.04 1.12,0.1 1.56,0.13 0.44,0.04 1.14,0.08 1.56,0.1 0.42,0.03 1.49,0.05 2.38,0.07 0.96,0.01 2.16,0 2.96,-0.02 0.74,-0.03 1.76,-0.08 2.28,-0.11 0.51,-0.03 1.24,-0.08 1.61,-0.11 0.38,-0.03 1.04,-0.1 1.48,-0.14 0.44,-0.05 1.22,-0.13 1.73,-0.2 0.51,-0.06 1.29,-0.16 1.73,-0.23 0.45,-0.06 1.17,-0.18 1.62,-0.25 0.45,-0.08 1.18,-0.21 1.64,-0.29 0.45,-0.09 1.16,-0.23 1.58,-0.32 0.42,-0.08 1.19,-0.26 1.72,-0.38 0.52,-0.13 1.32,-0.34 1.77,-0.47 0.45,-0.13 1.05,-0.3 1.33,-0.38 0.29,-0.09 0.53,-0.17 0.54,-0.18 0.01,-0.01 -0.34,-0.74 -0.78,-1.61 -0.44,-0.87 -1.02,-1.99 -1.29,-2.47 -0.28,-0.48 -0.76,-1.31 -1.08,-1.85 -0.32,-0.53 -0.8,-1.3 -1.06,-1.71 -0.26,-0.41 -0.7,-1.09 -0.98,-1.51 -0.29,-0.42 -0.77,-1.13 -1.08,-1.56 -0.3,-0.43 -0.89,-1.24 -1.31,-1.8 -0.42,-0.56 -1.01,-1.33 -1.32,-1.71 -0.31,-0.39 -0.79,-0.98 -1.07,-1.31 -0.28,-0.33 -0.74,-0.87 -1.02,-1.19 -0.28,-0.32 -0.75,-0.84 -1.04,-1.15 -0.28,-0.31 -0.78,-0.83 -1.1,-1.15 -0.32,-0.33 -0.57,-0.61 -0.56,-0.61 0,-0.01 0.3,-0.22 0.65,-0.46 0.36,-0.24 0.88,-0.6 1.15,-0.81 0.28,-0.2 0.82,-0.61 1.19,-0.9 0.38,-0.29 0.94,-0.73 1.25,-0.99 0.31,-0.26 0.81,-0.69 1.11,-0.95 0.3,-0.27 0.92,-0.84 1.38,-1.27 0.45,-0.43 1.16,-1.13 1.57,-1.56 0.41,-0.43 0.96,-1.02 1.22,-1.31 0.26,-0.29 0.66,-0.74 0.89,-1.01 0.23,-0.27 0.7,-0.83 1.03,-1.25 0.34,-0.41 0.82,-1.04 1.08,-1.38 0.26,-0.34 0.68,-0.92 0.94,-1.29 0.26,-0.36 0.72,-1.04 1.03,-1.51 0.31,-0.47 0.74,-1.14 0.95,-1.48 0.21,-0.35 0.58,-0.97 0.82,-1.39 0.24,-0.41 0.56,-1 0.72,-1.3 0.17,-0.3 0.52,-0.99 0.79,-1.52 0.26,-0.54 0.62,-1.28 0.79,-1.66 0.18,-0.37 0.45,-0.99 0.62,-1.38 0.16,-0.38 0.38,-0.91 0.49,-1.18 0.11,-0.27 0.3,-0.78 0.43,-1.12 0.13,-0.34 0.36,-1.01 0.53,-1.48 0.16,-0.47 0.39,-1.2 0.51,-1.61 0.13,-0.42 0.31,-1.08 0.41,-1.47 0.09,-0.38 0.26,-1.17 0.38,-1.74 0.11,-0.59 0.18,-1.06 0.16,-1.08 -0.02,-0.01 -0.38,-0.2 -0.81,-0.42 -0.43,-0.21 -1,-0.48 -1.26,-0.58 -0.27,-0.11 -0.79,-0.31 -1.17,-0.44 -0.37,-0.13 -1.04,-0.35 -1.5,-0.48 -0.45,-0.14 -1.19,-0.35 -1.64,-0.47 -0.45,-0.12 -1.13,-0.29 -1.52,-0.37 -0.38,-0.09 -1.09,-0.24 -1.56,-0.34 -0.47,-0.09 -1.13,-0.21 -1.48,-0.27 -0.34,-0.05 -0.66,-0.11 -0.7,-0.12 l -0.08,-0.01 0.51,-1.12 c 0.29,-0.62 0.68,-1.49 0.87,-1.94 0.19,-0.45 0.48,-1.15 0.65,-1.56 0.16,-0.41 0.44,-1.11 0.6,-1.56 0.17,-0.45 0.42,-1.13 0.55,-1.52 0.13,-0.38 0.4,-1.22 0.6,-1.87 0.2,-0.64 0.44,-1.4 0.52,-1.69 0.09,-0.29 0.27,-0.92 0.4,-1.41 0.13,-0.48 0.32,-1.22 0.43,-1.65 0.1,-0.43 0.26,-1.09 0.34,-1.48 0.09,-0.39 0.23,-1.06 0.31,-1.5 0.09,-0.44 0.22,-1.16 0.3,-1.6 0.07,-0.44 0.18,-1.11 0.24,-1.5 0.05,-0.38 0.13,-1 0.17,-1.36 0.04,-0.37 0.11,-0.96 0.14,-1.31 0.03,-0.35 0.07,-1.14 0.08,-1.76 l 0.03,-1.13 -2.01,0.02 c -1.26,0.02 -2.31,0.05 -2.84,0.09 -0.46,0.03 -1.19,0.09 -1.63,0.14 -0.44,0.04 -1.08,0.11 -1.42,0.15 -0.35,0.05 -0.93,0.13 -1.29,0.18 -0.36,0.05 -1.07,0.17 -1.57,0.25 -0.51,0.09 -1.35,0.25 -1.88,0.36 -0.52,0.1 -1.25,0.26 -1.61,0.35 -0.36,0.08 -1.07,0.25 -1.57,0.38 -0.5,0.13 -1.66,0.45 -2.57,0.7 -0.91,0.26 -1.66,0.47 -1.67,0.46 -0.01,-0.01 -0.05,-0.47 -0.1,-1.03 -0.04,-0.55 -0.1,-1.29 -0.13,-1.63 -0.04,-0.34 -0.1,-0.9 -0.14,-1.24 -0.04,-0.35 -0.17,-1.15 -0.28,-1.8 -0.1,-0.64 -0.28,-1.6 -0.38,-2.14 -0.11,-0.54 -0.29,-1.35 -0.39,-1.81 -0.11,-0.46 -0.28,-1.15 -0.37,-1.52 -0.1,-0.38 -0.31,-1.13 -0.47,-1.68 -0.16,-0.56 -0.43,-1.45 -0.61,-1.99 -0.18,-0.54 -0.44,-1.27 -0.57,-1.63 -0.13,-0.35 -0.36,-0.9 -0.49,-1.23 -0.14,-0.32 -0.43,-0.92 -0.63,-1.32 -0.2,-0.39 -0.38,-0.72 -0.39,-0.72 -0.01,0 -0.22,0.05 -0.47,0.11 -0.26,0.07 -0.63,0.16 -0.85,0.2 -0.21,0.05 -0.67,0.16 -1.01,0.26 -0.35,0.1 -0.95,0.28 -1.35,0.41 -0.39,0.13 -1.02,0.35 -1.38,0.48 -0.37,0.14 -1.04,0.4 -1.48,0.58 -0.45,0.18 -1.17,0.48 -1.6,0.67 -0.43,0.19 -1.36,0.64 -2.08,1 -0.72,0.36 -1.66,0.84 -2.09,1.08 -0.42,0.24 -1.11,0.64 -1.53,0.89 -0.42,0.24 -1.07,0.65 -1.46,0.89 -0.39,0.25 -1.03,0.67 -1.42,0.94 -0.4,0.27 -1.01,0.7 -1.37,0.95 -0.35,0.26 -0.96,0.71 -1.34,1.01 -0.39,0.29 -0.99,0.77 -1.35,1.06 -0.35,0.29 -0.64,0.52 -0.65,0.52 -0.01,-0.01 -0.12,-0.41 -0.26,-0.89 -0.14,-0.48 -0.37,-1.25 -0.51,-1.71 -0.14,-0.46 -0.41,-1.3 -0.6,-1.87 -0.19,-0.56 -0.49,-1.43 -0.66,-1.92 -0.18,-0.5 -0.52,-1.42 -0.77,-2.05 -0.24,-0.64 -0.64,-1.63 -0.88,-2.22 -0.25,-0.59 -0.6,-1.42 -0.79,-1.85 -0.19,-0.43 -0.59,-1.32 -0.9,-1.99 -0.3,-0.66 -0.82,-1.76 -1.14,-2.43 -0.33,-0.68 -0.83,-1.69 -1.12,-2.26 -0.29,-0.57 -0.69,-1.33 -0.88,-1.7 -0.19,-0.36 -0.57,-1.06 -0.84,-1.55 -0.27,-0.5 -0.77,-1.39 -1.11,-1.99 -0.34,-0.6 -0.88,-1.52 -1.19,-2.05 -0.32,-0.52 -0.8,-1.31 -1.07,-1.75 -0.28,-0.44 -0.75,-1.17 -1.05,-1.63 -0.3,-0.47 -0.85,-1.24 -1.23,-1.73 -0.37,-0.48 -0.69,-0.88 -0.71,-0.88 z m -0.09,5.36 c 0.03,0.04 0.25,0.4 0.49,0.79 0.25,0.4 0.68,1.1 0.95,1.58 0.28,0.47 0.76,1.28 1.06,1.81 0.29,0.52 0.78,1.39 1.07,1.93 0.29,0.53 0.79,1.49 1.12,2.12 0.33,0.63 0.78,1.53 1,1.99 0.23,0.46 0.58,1.18 0.78,1.61 0.2,0.43 0.58,1.24 0.83,1.8 0.25,0.56 0.65,1.45 0.87,1.98 0.23,0.53 0.56,1.31 0.73,1.73 0.17,0.42 0.47,1.17 0.67,1.66 0.19,0.49 0.49,1.27 0.66,1.73 0.17,0.46 0.45,1.23 0.61,1.7 0.17,0.47 0.49,1.42 0.72,2.1 0.22,0.69 0.52,1.62 0.66,2.07 0.14,0.45 0.38,1.24 0.53,1.77 0.15,0.52 0.45,1.66 0.67,2.53 0.21,0.87 0.5,2.09 0.64,2.71 0.13,0.62 0.34,1.63 0.46,2.24 0.12,0.61 0.28,1.53 0.37,2.04 0.09,0.52 0.2,1.23 0.25,1.58 0.06,0.35 0.16,1.05 0.22,1.54 0.07,0.49 0.15,1.2 0.2,1.58 0.04,0.37 0.11,1.05 0.15,1.5 0.04,0.45 0.1,1.16 0.14,1.57 0.03,0.42 0.08,1.23 0.12,1.8 0.03,0.56 0.06,1.43 0.08,1.92 l 0.02,0.9 -0.44,0.39 c -0.24,0.21 -1.71,1.66 -3.27,3.21 -1.55,1.56 -3.1,3.12 -3.43,3.47 -0.33,0.35 -0.83,0.91 -1.12,1.23 -0.29,0.32 -0.6,0.66 -0.69,0.76 l -0.16,0.19 -0.14,-0.12 c -0.08,-0.07 -0.14,-0.13 -0.14,-0.15 0,-0.01 0.73,-0.73 1.62,-1.59 0.9,-0.86 1.86,-1.79 2.13,-2.08 0.28,-0.29 0.71,-0.74 0.95,-1 0.25,-0.27 0.62,-0.71 0.83,-0.98 0.22,-0.26 0.52,-0.67 0.68,-0.91 0.16,-0.24 0.37,-0.61 0.48,-0.83 0.11,-0.22 0.26,-0.56 0.32,-0.76 0.11,-0.3 0.13,-0.42 0.13,-0.71 v -0.35 l -0.14,-0.29 c -0.08,-0.17 -0.22,-0.39 -0.32,-0.49 -0.09,-0.11 -0.26,-0.25 -0.37,-0.31 -0.17,-0.09 -0.24,-0.11 -0.37,-0.09 -0.09,0.01 -0.34,0.11 -0.55,0.22 -0.21,0.11 -0.58,0.34 -0.82,0.51 -0.26,0.2 -0.7,0.6 -1.13,1.03 -0.38,0.38 -0.91,0.95 -1.17,1.27 -0.26,0.31 -0.67,0.82 -0.91,1.13 -0.24,0.31 -0.69,0.9 -0.99,1.32 -0.3,0.42 -0.9,1.29 -1.34,1.95 -0.44,0.65 -0.81,1.2 -0.83,1.22 -0.02,0.02 -0.1,-0.02 -0.18,-0.1 -0.09,-0.07 -0.21,-0.17 -0.28,-0.21 -0.08,-0.05 -0.11,-0.09 -0.1,-0.13 0.01,-0.04 0.31,-0.84 0.66,-1.79 0.35,-0.96 0.76,-2.1 0.91,-2.54 0.16,-0.45 0.38,-1.1 0.49,-1.47 0.12,-0.36 0.28,-0.9 0.37,-1.2 0.09,-0.3 0.23,-0.83 0.31,-1.18 0.09,-0.36 0.21,-0.88 0.26,-1.17 0.05,-0.29 0.12,-0.74 0.15,-0.99 0.04,-0.26 0.07,-0.7 0.09,-0.99 0.01,-0.3 0,-0.73 -0.02,-0.97 -0.02,-0.23 -0.07,-0.57 -0.11,-0.74 -0.03,-0.17 -0.11,-0.41 -0.17,-0.54 -0.06,-0.13 -0.2,-0.33 -0.31,-0.45 -0.11,-0.13 -0.32,-0.31 -0.47,-0.4 -0.15,-0.1 -0.37,-0.22 -0.49,-0.26 -0.12,-0.04 -0.29,-0.08 -0.36,-0.07 -0.08,0 -0.19,0.02 -0.25,0.04 -0.06,0.03 -0.19,0.15 -0.29,0.26 -0.09,0.12 -0.24,0.32 -0.33,0.44 -0.08,0.12 -0.24,0.4 -0.36,0.62 -0.12,0.23 -0.28,0.55 -0.36,0.74 -0.07,0.18 -0.22,0.56 -0.33,0.84 -0.1,0.29 -0.29,0.84 -0.4,1.22 -0.12,0.39 -0.31,1.08 -0.43,1.55 -0.12,0.47 -0.3,1.26 -0.41,1.77 -0.11,0.5 -0.28,1.37 -0.39,1.94 -0.1,0.57 -0.27,1.52 -0.37,2.12 l -0.2,1.2 -0.02,0.11 -0.12,-0.06 c -0.06,-0.04 -0.19,-0.13 -0.27,-0.21 -0.09,-0.08 -0.35,-0.26 -0.58,-0.41 l -0.41,-0.28 0.01,-0.27 c 0.01,-0.15 0.08,-0.92 0.15,-1.71 0.08,-0.8 0.2,-2.09 0.27,-2.89 0.07,-0.79 0.16,-1.82 0.19,-2.29 0.04,-0.48 0.08,-1.19 0.1,-1.6 0.02,-0.41 0.04,-1.23 0.04,-1.83 0,-0.6 -0.02,-1.35 -0.04,-1.66 -0.02,-0.31 -0.07,-0.77 -0.1,-1.03 -0.03,-0.26 -0.1,-0.67 -0.15,-0.93 -0.06,-0.25 -0.16,-0.62 -0.22,-0.82 -0.06,-0.19 -0.18,-0.48 -0.25,-0.63 -0.09,-0.19 -0.2,-0.34 -0.33,-0.46 -0.11,-0.1 -0.31,-0.23 -0.44,-0.3 -0.14,-0.06 -0.39,-0.14 -0.56,-0.18 -0.25,-0.05 -0.35,-0.05 -0.53,-0.01 -0.12,0.02 -0.28,0.08 -0.35,0.13 -0.07,0.05 -0.16,0.16 -0.21,0.24 -0.05,0.09 -0.14,0.3 -0.21,0.47 -0.07,0.17 -0.17,0.5 -0.23,0.74 -0.06,0.23 -0.15,0.64 -0.19,0.89 -0.05,0.26 -0.11,0.73 -0.14,1.04 -0.03,0.31 -0.08,0.89 -0.1,1.28 -0.02,0.4 -0.04,1.3 -0.04,2.01 0,0.71 0.02,1.74 0.04,2.3 0.02,0.55 0.08,1.57 0.12,2.26 0.04,0.68 0.11,1.7 0.15,2.25 0.05,0.56 0.14,1.64 0.21,2.41 l 0.13,1.4 -0.32,0.21 c -0.18,0.11 -0.39,0.27 -0.48,0.35 -0.09,0.08 -0.17,0.14 -0.18,0.13 0,-0.01 -0.05,-0.25 -0.1,-0.54 -0.04,-0.29 -0.18,-1.05 -0.29,-1.7 -0.12,-0.64 -0.29,-1.55 -0.38,-2.02 -0.1,-0.47 -0.23,-1.1 -0.3,-1.4 -0.07,-0.3 -0.2,-0.86 -0.29,-1.24 -0.1,-0.37 -0.25,-0.95 -0.35,-1.28 -0.09,-0.33 -0.26,-0.86 -0.37,-1.18 -0.11,-0.32 -0.31,-0.83 -0.43,-1.13 -0.13,-0.3 -0.33,-0.72 -0.44,-0.92 -0.12,-0.21 -0.31,-0.52 -0.44,-0.7 -0.12,-0.17 -0.29,-0.38 -0.37,-0.45 -0.08,-0.07 -0.22,-0.15 -0.3,-0.17 -0.11,-0.03 -0.21,-0.03 -0.34,0 -0.11,0.02 -0.3,0.1 -0.43,0.16 -0.13,0.07 -0.35,0.24 -0.5,0.4 -0.15,0.15 -0.33,0.37 -0.39,0.48 -0.06,0.12 -0.14,0.37 -0.18,0.57 -0.05,0.22 -0.09,0.59 -0.1,1 -0.02,0.39 -0.01,0.85 0.02,1.15 0.03,0.28 0.08,0.72 0.12,0.99 0.04,0.26 0.12,0.68 0.18,0.93 0.05,0.25 0.17,0.75 0.27,1.11 0.09,0.37 0.28,1.04 0.42,1.5 0.14,0.46 0.4,1.28 0.59,1.82 0.18,0.53 0.68,1.95 1.11,3.15 0.43,1.19 0.78,2.18 0.78,2.2 0,0.01 -0.04,-0.04 -0.09,-0.11 -0.05,-0.08 -0.33,-0.57 -0.61,-1.09 -0.28,-0.53 -0.68,-1.24 -0.87,-1.58 -0.19,-0.34 -0.47,-0.84 -0.62,-1.09 -0.15,-0.26 -0.45,-0.76 -0.66,-1.11 -0.22,-0.36 -0.66,-1.05 -0.99,-1.54 -0.32,-0.49 -0.77,-1.14 -1,-1.44 -0.23,-0.3 -0.53,-0.69 -0.67,-0.86 -0.14,-0.17 -0.45,-0.51 -0.69,-0.75 -0.24,-0.25 -0.58,-0.55 -0.74,-0.69 -0.17,-0.13 -0.44,-0.31 -0.6,-0.41 -0.17,-0.1 -0.36,-0.17 -0.46,-0.18 -0.13,-0.02 -0.22,0 -0.35,0.06 -0.1,0.05 -0.27,0.19 -0.38,0.31 -0.11,0.12 -0.27,0.37 -0.36,0.55 l -0.16,0.32 v 0.3 c 0,0.17 0.04,0.43 0.09,0.61 0.04,0.17 0.15,0.49 0.24,0.7 0.08,0.21 0.26,0.58 0.39,0.81 0.13,0.24 0.38,0.64 0.55,0.9 0.17,0.26 0.49,0.7 0.7,0.98 0.21,0.27 0.61,0.78 0.89,1.13 0.29,0.34 0.63,0.74 0.76,0.89 0.13,0.15 0.7,0.79 1.25,1.42 0.56,0.64 1.21,1.39 1.46,1.68 0.25,0.29 0.56,0.66 0.7,0.83 l 0.24,0.31 -0.14,0.14 -0.56,-0.63 c -0.3,-0.35 -0.83,-0.94 -1.18,-1.31 -0.35,-0.38 -1.7,-1.75 -2.99,-3.05 -1.3,-1.31 -2.63,-2.61 -2.96,-2.9 l -0.59,-0.54 0.02,-0.19 c 0.01,-0.11 0.04,-0.45 0.06,-0.76 0.02,-0.32 0.07,-0.89 0.1,-1.29 0.03,-0.4 0.1,-1.17 0.15,-1.73 0.06,-0.56 0.14,-1.41 0.2,-1.89 0.05,-0.48 0.15,-1.3 0.21,-1.81 0.07,-0.52 0.17,-1.31 0.24,-1.77 0.06,-0.47 0.18,-1.3 0.27,-1.86 0.09,-0.55 0.25,-1.54 0.37,-2.2 0.11,-0.65 0.31,-1.68 0.43,-2.28 0.11,-0.6 0.28,-1.39 0.37,-1.77 0.08,-0.37 0.33,-1.44 0.55,-2.37 0.23,-0.94 0.54,-2.16 0.7,-2.73 0.17,-0.57 0.44,-1.5 0.61,-2.06 0.18,-0.57 0.5,-1.58 0.72,-2.24 0.22,-0.67 0.56,-1.64 0.74,-2.16 0.19,-0.53 0.52,-1.42 0.73,-1.99 0.21,-0.57 0.62,-1.62 0.91,-2.34 0.29,-0.72 0.78,-1.9 1.09,-2.63 0.3,-0.73 0.7,-1.63 0.87,-2.01 0.17,-0.37 0.44,-0.96 0.6,-1.3 0.16,-0.34 0.52,-1.09 0.8,-1.66 0.28,-0.56 0.75,-1.51 1.06,-2.1 0.31,-0.59 0.74,-1.41 0.97,-1.83 0.22,-0.42 0.64,-1.18 0.93,-1.7 0.29,-0.51 0.84,-1.45 1.22,-2.08 0.38,-0.63 0.87,-1.43 1.09,-1.78 0.35,-0.56 0.41,-0.63 0.45,-0.57 z m 35.38,19.3 c 0.04,-0.01 0.14,0.19 0.31,0.66 0.14,0.37 0.39,1.1 0.56,1.61 0.17,0.51 0.44,1.38 0.59,1.93 0.16,0.55 0.38,1.34 0.49,1.77 0.1,0.43 0.26,1.1 0.35,1.48 0.08,0.39 0.22,1.06 0.31,1.5 0.09,0.44 0.21,1.12 0.27,1.52 0.07,0.4 0.17,1.11 0.24,1.58 0.06,0.47 0.15,1.21 0.19,1.63 0.05,0.43 0.11,1.14 0.14,1.58 0.03,0.44 0.07,1.06 0.08,1.38 l 0.03,0.59 -0.58,0.21 c -0.32,0.11 -1.05,0.4 -1.63,0.63 -0.58,0.23 -1.4,0.57 -1.83,0.76 -0.43,0.18 -1.14,0.5 -1.58,0.71 -0.44,0.2 -1.22,0.58 -1.73,0.83 -0.52,0.26 -1.31,0.67 -1.77,0.92 -0.46,0.24 -1.24,0.68 -1.74,0.96 -0.49,0.29 -1.26,0.74 -1.71,1.02 -0.45,0.27 -1.17,0.72 -1.6,1 -0.43,0.28 -1,0.66 -1.27,0.84 -0.26,0.18 -0.78,0.54 -1.15,0.8 -0.36,0.26 -0.99,0.72 -1.4,1.02 -0.4,0.3 -0.96,0.73 -1.24,0.95 -0.28,0.21 -0.52,0.38 -0.53,0.36 -0.02,-0.01 -0.05,-0.43 -0.07,-0.92 -0.03,-0.49 -0.09,-1.33 -0.13,-1.85 -0.04,-0.53 -0.12,-1.39 -0.17,-1.91 -0.06,-0.53 -0.16,-1.44 -0.24,-2.03 -0.07,-0.59 -0.19,-1.42 -0.25,-1.85 -0.06,-0.42 -0.2,-1.24 -0.29,-1.8 -0.1,-0.56 -0.26,-1.48 -0.37,-2.03 -0.11,-0.55 -0.31,-1.51 -0.45,-2.13 -0.14,-0.62 -0.35,-1.53 -0.48,-2.03 l -0.23,-0.91 0.32,-0.28 c 0.17,-0.16 0.53,-0.47 0.8,-0.7 0.27,-0.22 0.74,-0.61 1.06,-0.86 0.31,-0.24 0.84,-0.65 1.16,-0.89 0.34,-0.25 0.84,-0.62 1.13,-0.82 0.29,-0.2 0.9,-0.62 1.35,-0.92 0.45,-0.29 1.16,-0.76 1.59,-1.03 0.43,-0.27 1.02,-0.62 1.31,-0.8 0.29,-0.17 0.66,-0.39 0.83,-0.48 0.18,-0.1 0.53,-0.3 0.8,-0.44 0.27,-0.15 0.86,-0.46 1.33,-0.69 0.46,-0.23 1.08,-0.53 1.38,-0.67 0.3,-0.14 0.76,-0.34 1.01,-0.45 0.26,-0.12 0.78,-0.33 1.15,-0.48 0.38,-0.15 0.96,-0.38 1.31,-0.5 0.34,-0.13 0.95,-0.34 1.36,-0.47 0.41,-0.13 0.78,-0.25 0.84,-0.27 0.05,-0.02 0.12,-0.03 0.15,-0.03 z m -70.06,0.11 0.29,0.11 c 0.17,0.07 0.52,0.19 0.78,0.29 0.26,0.1 0.8,0.31 1.19,0.47 0.39,0.16 1,0.42 1.37,0.58 0.36,0.16 1,0.45 1.42,0.65 0.42,0.2 1.08,0.53 1.48,0.73 0.4,0.21 1.04,0.55 1.42,0.76 0.39,0.22 1.11,0.63 1.6,0.93 0.49,0.3 1.19,0.73 1.55,0.96 0.36,0.23 0.92,0.6 1.24,0.83 0.33,0.22 0.95,0.67 1.37,0.99 0.43,0.32 1.08,0.82 1.45,1.12 0.37,0.29 0.95,0.77 1.27,1.05 0.33,0.28 0.87,0.76 1.19,1.06 0.33,0.3 0.6,0.55 0.6,0.57 0,0.01 -0.07,0.3 -0.16,0.65 -0.08,0.34 -0.25,1.09 -0.38,1.67 -0.13,0.58 -0.33,1.49 -0.43,2.03 -0.11,0.55 -0.27,1.38 -0.35,1.86 -0.09,0.47 -0.23,1.31 -0.32,1.86 -0.08,0.55 -0.22,1.46 -0.29,2.02 -0.08,0.56 -0.2,1.57 -0.27,2.24 -0.08,0.66 -0.17,1.64 -0.22,2.16 -0.04,0.53 -0.1,1.34 -0.13,1.81 -0.03,0.47 -0.07,1.09 -0.08,1.38 -0.02,0.28 -0.04,0.51 -0.05,0.51 0,0 -0.27,-0.21 -0.59,-0.46 -0.31,-0.25 -0.83,-0.66 -1.15,-0.9 -0.32,-0.25 -0.94,-0.71 -1.36,-1.02 -0.43,-0.31 -1.12,-0.79 -1.52,-1.07 -0.41,-0.28 -1.1,-0.74 -1.52,-1.01 -0.43,-0.28 -1.1,-0.7 -1.48,-0.94 -0.39,-0.24 -1,-0.61 -1.37,-0.82 -0.36,-0.21 -0.96,-0.55 -1.32,-0.76 -0.37,-0.2 -0.96,-0.53 -1.33,-0.72 -0.36,-0.19 -1.04,-0.54 -1.5,-0.78 -0.46,-0.23 -1.26,-0.62 -1.79,-0.87 -0.52,-0.25 -1.3,-0.61 -1.73,-0.81 -0.43,-0.19 -1.02,-0.45 -1.31,-0.57 -0.29,-0.12 -0.79,-0.34 -1.13,-0.47 -0.33,-0.14 -0.61,-0.26 -0.62,-0.28 -0.02,-0.02 0.01,-0.39 0.06,-0.83 0.05,-0.44 0.17,-1.37 0.25,-2.08 0.09,-0.71 0.23,-1.79 0.32,-2.4 0.08,-0.61 0.21,-1.39 0.27,-1.73 0.07,-0.34 0.2,-0.98 0.29,-1.42 0.1,-0.44 0.29,-1.22 0.42,-1.74 0.12,-0.51 0.34,-1.32 0.48,-1.79 0.13,-0.47 0.38,-1.27 0.54,-1.77 0.17,-0.5 0.41,-1.21 0.55,-1.58 0.13,-0.36 0.33,-0.88 0.44,-1.15 0.1,-0.26 0.27,-0.67 0.37,-0.9 z m 93.58,16.13 c 0.05,0 0.09,0.01 0.09,0.04 0,0.02 -0.02,0.3 -0.06,0.61 -0.03,0.32 -0.09,0.85 -0.14,1.2 -0.04,0.34 -0.14,1.01 -0.21,1.5 -0.08,0.48 -0.2,1.2 -0.28,1.59 -0.07,0.4 -0.23,1.16 -0.35,1.7 -0.11,0.53 -0.3,1.32 -0.41,1.75 -0.1,0.43 -0.29,1.13 -0.4,1.56 -0.12,0.42 -0.31,1.09 -0.43,1.48 -0.12,0.38 -0.36,1.13 -0.53,1.65 -0.17,0.53 -0.46,1.37 -0.65,1.87 -0.18,0.51 -0.5,1.38 -0.73,1.93 -0.22,0.56 -0.56,1.4 -0.77,1.87 -0.2,0.47 -0.5,1.16 -0.67,1.52 -0.16,0.37 -0.48,1.04 -0.7,1.49 l -0.4,0.83 -0.17,-0.02 c -0.09,-0.01 -0.65,-0.06 -1.24,-0.1 -0.59,-0.04 -1.52,-0.09 -2.06,-0.11 -0.55,-0.03 -1.25,-0.05 -1.56,-0.06 h -0.57 l -0.02,-0.55 c -0.02,-0.3 -0.05,-0.87 -0.07,-1.27 -0.03,-0.39 -0.08,-1.08 -0.12,-1.53 -0.05,-0.45 -0.12,-1.1 -0.16,-1.44 -0.04,-0.35 -0.12,-0.92 -0.18,-1.27 -0.05,-0.36 -0.16,-0.97 -0.23,-1.36 -0.08,-0.4 -0.19,-0.95 -0.25,-1.23 -0.06,-0.28 -0.17,-0.68 -0.25,-0.9 l -0.13,-0.39 -0.95,0.01 c -0.52,0 -1.18,0.02 -1.46,0.05 -0.27,0.02 -0.79,0.08 -1.14,0.12 -0.36,0.04 -1.05,0.14 -1.54,0.22 -0.5,0.07 -1.5,0.26 -2.24,0.4 -0.74,0.15 -1.65,0.35 -2.03,0.45 -0.37,0.09 -0.92,0.25 -1.22,0.35 -0.3,0.09 -0.72,0.23 -0.92,0.3 -0.2,0.08 -0.85,0.32 -1.44,0.55 -0.59,0.22 -1.39,0.54 -1.77,0.7 -0.39,0.16 -1.04,0.45 -1.45,0.63 -0.4,0.19 -1.13,0.54 -1.61,0.78 -0.48,0.25 -1.23,0.64 -1.65,0.88 -0.43,0.23 -1.04,0.59 -1.36,0.78 -0.33,0.2 -1.02,0.64 -1.55,0.99 -0.53,0.35 -1.25,0.84 -1.61,1.11 -0.37,0.26 -0.89,0.65 -1.17,0.87 -0.28,0.22 -0.71,0.56 -0.96,0.77 -0.25,0.2 -0.7,0.61 -1,0.89 -0.31,0.29 -0.99,0.93 -1.5,1.44 -0.52,0.5 -1.18,1.17 -1.46,1.48 -0.29,0.31 -0.78,0.87 -1.08,1.23 -0.31,0.37 -0.76,0.94 -1.02,1.27 -0.26,0.34 -0.54,0.72 -0.64,0.85 -0.09,0.13 -0.18,0.23 -0.2,0.22 -0.02,-0.02 -0.17,-0.2 -0.33,-0.42 -0.17,-0.22 -0.48,-0.62 -0.69,-0.89 -0.22,-0.27 -0.56,-0.68 -0.76,-0.91 -0.2,-0.24 -0.61,-0.68 -0.9,-0.99 l -0.52,-0.55 0.19,-0.22 c 0.11,-0.12 0.37,-0.43 0.6,-0.67 0.22,-0.25 0.77,-0.85 1.22,-1.33 0.46,-0.48 1.62,-1.68 2.59,-2.66 0.98,-0.98 1.91,-1.89 2.09,-2.02 0.17,-0.14 0.56,-0.49 0.86,-0.77 0.3,-0.29 0.97,-0.9 1.48,-1.35 0.51,-0.46 1.1,-0.96 1.31,-1.13 0.2,-0.18 0.72,-0.6 1.16,-0.95 0.44,-0.35 1.23,-0.96 1.77,-1.36 0.54,-0.41 1.31,-0.97 1.72,-1.25 0.41,-0.29 1.13,-0.79 1.62,-1.1 0.48,-0.32 1.23,-0.81 1.67,-1.08 0.44,-0.28 1.14,-0.7 1.56,-0.95 0.42,-0.24 1.07,-0.62 1.46,-0.83 0.39,-0.22 1.02,-0.57 1.42,-0.78 0.39,-0.21 1.26,-0.64 1.93,-0.97 0.66,-0.33 1.49,-0.72 1.83,-0.88 0.34,-0.15 0.99,-0.43 1.44,-0.63 0.45,-0.19 1.08,-0.45 1.39,-0.57 0.31,-0.13 0.7,-0.27 0.87,-0.32 0.17,-0.04 0.86,-0.26 1.52,-0.48 0.66,-0.22 1.81,-0.59 2.55,-0.82 0.73,-0.23 1.54,-0.48 1.79,-0.57 0.25,-0.08 0.86,-0.26 1.35,-0.38 0.49,-0.13 1.17,-0.3 1.52,-0.38 0.34,-0.07 1.01,-0.21 1.48,-0.31 0.47,-0.1 1.2,-0.24 1.63,-0.31 0.43,-0.07 1.07,-0.18 1.42,-0.23 0.36,-0.05 1.07,-0.15 1.58,-0.21 0.52,-0.07 1.33,-0.15 1.81,-0.2 0.49,-0.04 1.34,-0.11 1.89,-0.15 0.56,-0.04 1.06,-0.08 1.1,-0.08 z m -117.59,0.15 h 0.01 c 0.06,0 0.42,0.03 0.8,0.06 0.39,0.03 1.07,0.11 1.53,0.16 0.46,0.05 1.2,0.15 1.64,0.21 0.44,0.07 1.16,0.18 1.6,0.26 0.44,0.07 1.15,0.2 1.59,0.29 0.44,0.09 1.24,0.25 1.78,0.37 0.53,0.12 1.39,0.32 1.91,0.45 0.51,0.13 1.42,0.36 2.02,0.52 0.6,0.17 1.42,0.41 1.81,0.53 0.4,0.13 1.02,0.35 1.39,0.49 0.36,0.14 0.94,0.34 1.28,0.46 0.34,0.11 1.12,0.4 1.73,0.63 0.61,0.24 1.37,0.54 1.68,0.67 0.31,0.13 0.77,0.32 1.03,0.43 0.26,0.12 0.83,0.37 1.26,0.58 0.44,0.2 1.26,0.6 1.83,0.88 0.57,0.29 1.34,0.69 1.7,0.88 0.37,0.2 1.08,0.6 1.58,0.89 0.5,0.29 1.3,0.76 1.77,1.05 0.47,0.29 1.42,0.9 2.11,1.35 0.68,0.46 1.59,1.08 2.02,1.39 0.43,0.3 1.17,0.84 1.64,1.19 0.47,0.36 1.24,0.95 1.7,1.32 0.47,0.37 1.18,0.95 1.58,1.29 0.4,0.34 1.07,0.91 1.49,1.28 0.42,0.36 0.98,0.86 1.24,1.11 0.27,0.25 0.84,0.79 1.27,1.21 0.42,0.41 1.44,1.44 2.26,2.28 0.81,0.83 1.78,1.84 2.15,2.24 0.36,0.39 0.87,0.94 1.11,1.22 l 0.45,0.51 -0.5,0.54 c -0.28,0.3 -0.71,0.79 -0.95,1.09 -0.24,0.3 -0.73,0.94 -1.09,1.42 -0.35,0.47 -0.66,0.86 -0.67,0.86 -0.02,0 -0.09,-0.09 -0.17,-0.2 -0.07,-0.11 -0.34,-0.49 -0.6,-0.83 -0.26,-0.34 -0.77,-1 -1.13,-1.46 -0.36,-0.46 -0.77,-0.98 -0.91,-1.15 -0.13,-0.17 -0.46,-0.54 -0.72,-0.82 -0.25,-0.29 -0.73,-0.77 -1.07,-1.07 -0.33,-0.31 -0.8,-0.74 -1.04,-0.95 -0.24,-0.22 -0.72,-0.64 -1.06,-0.95 -0.34,-0.3 -0.84,-0.73 -1.12,-0.96 -0.28,-0.23 -0.81,-0.64 -1.17,-0.91 -0.36,-0.28 -0.89,-0.66 -1.17,-0.85 -0.28,-0.2 -0.78,-0.53 -1.11,-0.74 -0.33,-0.22 -0.84,-0.53 -1.13,-0.71 -0.29,-0.17 -0.85,-0.49 -1.25,-0.71 -0.39,-0.21 -1.1,-0.58 -1.57,-0.81 -0.47,-0.24 -1.17,-0.56 -1.54,-0.73 -0.38,-0.16 -1.03,-0.44 -1.46,-0.61 -0.43,-0.17 -0.97,-0.38 -1.21,-0.46 -0.23,-0.09 -0.87,-0.31 -1.4,-0.5 -0.54,-0.19 -1.2,-0.41 -1.48,-0.5 -0.28,-0.09 -0.76,-0.23 -1.06,-0.32 -0.31,-0.08 -1.03,-0.26 -1.6,-0.38 -0.57,-0.13 -1.25,-0.27 -1.51,-0.32 -0.26,-0.04 -0.78,-0.12 -1.17,-0.18 -0.38,-0.06 -0.92,-0.16 -1.19,-0.24 -0.27,-0.07 -0.78,-0.19 -1.15,-0.26 -0.36,-0.07 -0.89,-0.16 -1.18,-0.2 -0.34,-0.05 -0.8,-0.07 -1.3,-0.07 h -0.77 l -0.14,0.4 c -0.07,0.23 -0.21,0.79 -0.31,1.25 -0.09,0.46 -0.23,1.21 -0.3,1.66 -0.08,0.45 -0.19,1.14 -0.24,1.54 -0.05,0.39 -0.13,0.94 -0.16,1.22 -0.03,0.28 -0.09,0.92 -0.13,1.42 -0.04,0.51 -0.09,1.07 -0.1,1.26 l -0.03,0.34 h -1.14 c -0.62,0 -1.52,0.02 -1.99,0.04 -0.47,0.02 -1.13,0.05 -1.46,0.08 -0.33,0.02 -0.67,0.06 -0.76,0.08 -0.08,0.02 -0.18,0.04 -0.21,0.05 -0.03,0 -0.13,-0.18 -0.26,-0.48 -0.12,-0.27 -0.43,-1.03 -0.7,-1.7 -0.26,-0.66 -0.63,-1.62 -0.81,-2.12 -0.18,-0.51 -0.46,-1.32 -0.62,-1.81 -0.16,-0.49 -0.46,-1.47 -0.66,-2.16 -0.21,-0.7 -0.47,-1.63 -0.6,-2.07 -0.12,-0.44 -0.33,-1.25 -0.46,-1.81 -0.14,-0.56 -0.34,-1.43 -0.45,-1.93 -0.1,-0.5 -0.27,-1.35 -0.37,-1.89 -0.09,-0.53 -0.23,-1.32 -0.29,-1.75 -0.06,-0.43 -0.16,-1.14 -0.21,-1.58 -0.06,-0.44 -0.13,-1.1 -0.16,-1.48 -0.03,-0.37 -0.06,-0.7 -0.06,-0.73 0,-0.03 0.05,-0.05 0.11,-0.05 z m 14.05,14.44 0.54,0.03 c 0.3,0.01 0.83,0.05 1.17,0.1 0.35,0.04 1.07,0.15 1.62,0.24 0.55,0.08 1.27,0.21 1.62,0.29 0.34,0.08 1.07,0.25 1.61,0.39 0.55,0.13 1.4,0.37 1.89,0.52 0.49,0.15 1.22,0.38 1.62,0.52 0.4,0.14 0.96,0.34 1.26,0.45 0.3,0.12 0.81,0.32 1.14,0.45 0.32,0.14 0.81,0.35 1.09,0.47 0.27,0.12 0.94,0.44 1.48,0.7 0.53,0.27 1.24,0.64 1.57,0.82 0.34,0.19 0.89,0.5 1.23,0.71 0.34,0.2 1.03,0.64 1.52,0.97 0.5,0.32 1.25,0.85 1.68,1.18 0.43,0.32 0.99,0.75 1.25,0.96 0.25,0.21 0.7,0.59 1,0.86 0.3,0.26 0.84,0.75 1.2,1.09 0.35,0.34 0.82,0.8 1.03,1.03 0.22,0.22 0.78,0.85 1.25,1.39 0.47,0.54 1.14,1.32 1.49,1.73 0.34,0.42 0.76,0.94 0.92,1.16 0.15,0.23 0.36,0.55 0.46,0.73 0.1,0.17 0.25,0.38 0.34,0.46 l 0.16,0.15 -0.06,0.1 c -0.04,0.05 -0.15,0.25 -0.24,0.43 -0.09,0.18 -0.2,0.42 -0.23,0.53 -0.03,0.11 -0.09,0.26 -0.12,0.35 -0.03,0.08 -0.14,0.3 -0.24,0.48 -0.1,0.19 -0.46,0.9 -0.79,1.58 -0.33,0.69 -0.68,1.44 -0.77,1.67 -0.1,0.24 -0.26,0.68 -0.37,0.98 -0.11,0.3 -0.28,0.84 -0.39,1.19 -0.11,0.35 -0.29,1.01 -0.4,1.46 -0.12,0.45 -0.28,1.17 -0.37,1.6 -0.08,0.43 -0.2,1.08 -0.25,1.46 -0.06,0.37 -0.13,1 -0.17,1.4 -0.05,0.58 -0.07,1.13 -0.07,2.83 0,1.71 0.02,2.22 0.07,2.76 0.04,0.36 0.09,0.94 0.12,1.29 0.04,0.34 0.07,0.76 0.08,0.93 0.02,0.17 0.08,0.74 0.14,1.26 0.07,0.52 0.16,1.25 0.22,1.61 0.05,0.37 0.15,1.03 0.23,1.45 0.07,0.43 0.22,1.22 0.33,1.76 0.11,0.53 0.39,1.74 0.62,2.69 0.24,0.94 0.49,1.88 0.55,2.1 0.06,0.21 0.31,0.97 0.55,1.67 0.25,0.71 0.54,1.52 0.65,1.8 0.12,0.27 0.4,0.87 0.63,1.32 0.23,0.45 0.46,0.91 0.52,1.01 0.05,0.11 0.27,0.56 0.49,1 l 0.38,0.81 -0.26,-0.1 c -0.14,-0.05 -0.51,-0.2 -0.82,-0.33 -0.31,-0.13 -1.01,-0.47 -1.56,-0.74 -0.55,-0.27 -1.34,-0.7 -1.77,-0.95 -0.43,-0.25 -1.11,-0.67 -1.52,-0.94 -0.4,-0.26 -1.1,-0.74 -1.55,-1.07 -0.46,-0.32 -1.09,-0.78 -1.42,-1.04 -0.32,-0.25 -0.85,-0.67 -1.18,-0.94 -0.32,-0.26 -0.87,-0.72 -1.22,-1.03 -0.34,-0.3 -0.99,-0.89 -1.43,-1.29 -0.44,-0.41 -1.28,-1.22 -1.87,-1.81 -0.59,-0.59 -1.43,-1.46 -1.87,-1.93 -0.44,-0.47 -1.08,-1.16 -1.42,-1.54 -0.34,-0.37 -1.02,-1.15 -1.52,-1.73 -0.49,-0.58 -1.12,-1.32 -1.39,-1.66 -0.27,-0.33 -0.86,-1.1 -1.32,-1.71 -0.46,-0.61 -0.98,-1.3 -1.15,-1.54 -0.17,-0.24 -0.55,-0.77 -0.84,-1.19 -0.29,-0.41 -0.74,-1.07 -0.99,-1.46 -0.26,-0.39 -0.63,-0.97 -0.83,-1.29 -0.19,-0.32 -0.55,-0.98 -0.81,-1.46 -0.25,-0.48 -0.63,-1.23 -0.84,-1.68 -0.21,-0.44 -0.54,-1.19 -0.74,-1.65 -0.2,-0.47 -0.5,-1.2 -0.67,-1.63 -0.17,-0.43 -0.43,-1.14 -0.59,-1.58 -0.15,-0.44 -0.35,-1.03 -0.44,-1.3 -0.08,-0.28 -0.24,-0.84 -0.35,-1.25 -0.11,-0.41 -0.27,-1.05 -0.35,-1.43 -0.09,-0.38 -0.23,-1.04 -0.32,-1.46 -0.08,-0.42 -0.22,-1.17 -0.31,-1.67 -0.08,-0.49 -0.2,-1.27 -0.27,-1.73 -0.06,-0.46 -0.15,-1.16 -0.19,-1.56 -0.04,-0.4 -0.11,-1.06 -0.14,-1.48 -0.03,-0.42 -0.08,-1.05 -0.1,-1.4 -0.02,-0.35 -0.04,-1.51 -0.04,-2.57 0,-1.06 0.02,-2.22 0.04,-2.57 0.02,-0.36 0.08,-1.03 0.12,-1.5 0.04,-0.47 0.11,-1.15 0.16,-1.5 0.04,-0.36 0.12,-0.93 0.17,-1.27 0.05,-0.34 0.15,-0.92 0.22,-1.28 z m 88.2,0.13 0.06,0.28 c 0.04,0.16 0.09,0.43 0.13,0.62 0.03,0.18 0.11,0.7 0.17,1.15 0.06,0.45 0.16,1.24 0.21,1.77 0.06,0.52 0.13,1.32 0.16,1.77 0.03,0.45 0.08,1.16 0.1,1.58 0.02,0.41 0.04,1.45 0.04,2.3 0,0.84 -0.02,1.86 -0.04,2.26 -0.02,0.39 -0.07,1.05 -0.1,1.46 -0.03,0.4 -0.09,1.04 -0.14,1.42 -0.04,0.37 -0.13,1.06 -0.19,1.52 -0.07,0.46 -0.19,1.22 -0.28,1.69 -0.08,0.47 -0.22,1.18 -0.3,1.58 -0.09,0.39 -0.26,1.1 -0.37,1.57 -0.12,0.46 -0.35,1.3 -0.51,1.87 -0.16,0.56 -0.4,1.33 -0.53,1.71 -0.13,0.38 -0.35,1 -0.49,1.36 -0.14,0.37 -0.38,0.97 -0.54,1.34 -0.15,0.36 -0.41,0.94 -0.57,1.28 -0.15,0.35 -0.5,1.06 -0.77,1.6 -0.27,0.54 -0.62,1.2 -0.78,1.48 -0.15,0.28 -0.47,0.81 -0.7,1.17 -0.23,0.36 -0.68,1.07 -1,1.56 -0.33,0.5 -0.67,1.01 -0.76,1.14 -0.1,0.12 -0.33,0.44 -0.52,0.71 -0.19,0.27 -1.03,1.4 -1.86,2.51 -0.84,1.11 -1.78,2.33 -2.1,2.71 -0.31,0.37 -0.82,0.97 -1.13,1.32 -0.31,0.35 -0.77,0.87 -1.02,1.15 -0.26,0.28 -0.9,0.97 -1.44,1.53 -0.54,0.57 -1.39,1.43 -1.9,1.91 -0.5,0.49 -1.13,1.09 -1.4,1.34 -0.27,0.24 -0.71,0.65 -0.99,0.89 -0.28,0.25 -0.75,0.66 -1.05,0.92 -0.3,0.25 -0.82,0.68 -1.15,0.95 -0.33,0.27 -0.85,0.68 -1.15,0.9 -0.3,0.23 -0.78,0.57 -1.07,0.78 -0.29,0.2 -0.74,0.51 -1,0.69 -0.27,0.17 -0.78,0.5 -1.15,0.74 -0.37,0.23 -0.92,0.56 -1.22,0.73 -0.3,0.18 -0.82,0.46 -1.14,0.64 -0.33,0.17 -0.61,0.31 -0.62,0.3 -0.01,-0.01 0.11,-0.32 0.26,-0.68 0.15,-0.36 0.32,-0.77 0.38,-0.91 0.05,-0.14 0.23,-0.61 0.4,-1.05 0.16,-0.44 0.43,-1.12 0.58,-1.52 0.16,-0.39 0.39,-1.03 0.51,-1.4 0.13,-0.38 0.33,-1.01 0.44,-1.4 0.12,-0.4 0.28,-0.97 0.35,-1.27 0.08,-0.3 0.19,-0.78 0.25,-1.07 0.07,-0.29 0.22,-1.04 0.34,-1.67 0.12,-0.63 0.28,-1.51 0.35,-1.95 0.08,-0.44 0.2,-1.29 0.27,-1.89 0.08,-0.6 0.17,-1.48 0.22,-1.95 0.04,-0.47 0.1,-1.23 0.14,-1.7 0.05,-0.63 0.07,-1.51 0.08,-3.6 0.01,-2.35 0.01,-2.87 -0.04,-3.41 -0.04,-0.35 -0.1,-0.88 -0.14,-1.18 -0.05,-0.3 -0.15,-0.9 -0.24,-1.33 -0.09,-0.43 -0.26,-1.18 -0.38,-1.67 -0.13,-0.5 -0.31,-1.18 -0.41,-1.53 -0.1,-0.35 -0.38,-1.13 -0.61,-1.75 -0.23,-0.61 -0.56,-1.43 -0.72,-1.82 -0.17,-0.39 -0.47,-1.04 -0.68,-1.45 -0.22,-0.41 -0.58,-1.04 -0.8,-1.4 -0.23,-0.37 -0.5,-0.81 -0.59,-0.99 -0.1,-0.18 -0.24,-0.4 -0.31,-0.49 l -0.13,-0.17 0.07,-0.09 c 0.04,-0.05 0.08,-0.12 0.1,-0.16 0.01,-0.04 0.16,-0.27 0.33,-0.51 0.17,-0.24 0.52,-0.7 0.77,-1.02 0.26,-0.33 0.89,-1.09 1.42,-1.7 0.52,-0.6 1.14,-1.3 1.38,-1.55 0.23,-0.24 0.69,-0.69 1.01,-0.99 0.32,-0.3 0.84,-0.77 1.15,-1.05 0.32,-0.27 0.8,-0.68 1.08,-0.9 0.27,-0.23 0.87,-0.69 1.32,-1.03 0.45,-0.34 1.22,-0.89 1.71,-1.22 0.49,-0.33 1.19,-0.78 1.54,-0.99 0.36,-0.22 0.96,-0.57 1.35,-0.78 0.38,-0.22 1.05,-0.57 1.48,-0.79 0.44,-0.21 1.08,-0.52 1.43,-0.68 0.36,-0.16 1.04,-0.45 1.53,-0.65 0.49,-0.19 1.38,-0.52 1.98,-0.72 0.6,-0.2 1.43,-0.48 1.84,-0.6 0.42,-0.13 1,-0.3 1.29,-0.37 0.29,-0.07 0.73,-0.18 0.98,-0.23 0.25,-0.06 0.87,-0.2 1.38,-0.32 0.52,-0.11 1.09,-0.23 1.27,-0.26 0.18,-0.04 0.74,-0.11 1.24,-0.16 0.51,-0.06 1.09,-0.12 1.29,-0.14 0.2,-0.01 0.43,-0.03 0.51,-0.04 v 0.01 z m -43.89,7.05 c 0.02,0 0.13,0.07 0.24,0.15 0.12,0.07 0.26,0.19 0.32,0.24 0.07,0.06 0.28,0.22 0.49,0.35 0.2,0.14 0.46,0.34 0.58,0.45 0.12,0.11 0.32,0.28 0.45,0.38 0.13,0.09 0.35,0.25 0.49,0.34 0.14,0.1 0.53,0.39 0.88,0.66 0.34,0.27 0.78,0.62 0.97,0.78 0.19,0.16 0.52,0.46 0.73,0.66 0.21,0.2 0.44,0.38 0.51,0.41 0.07,0.03 0.6,0.54 1.24,1.18 0.61,0.62 1.44,1.49 1.85,1.95 0.41,0.45 0.92,1.03 1.13,1.28 0.21,0.26 0.51,0.62 0.66,0.81 0.14,0.2 0.41,0.58 0.59,0.86 0.18,0.28 0.56,0.85 0.83,1.28 0.39,0.59 0.5,0.79 0.5,0.87 -0.01,0.1 0,0.11 0.08,0.11 0.09,-0.01 0.13,0.04 0.37,0.48 0.15,0.27 0.58,1.1 0.97,1.86 0.6,1.18 0.73,1.46 0.95,2.1 0.14,0.41 0.33,0.98 0.42,1.27 0.1,0.29 0.27,0.86 0.39,1.27 0.11,0.4 0.28,1.06 0.36,1.46 0.09,0.39 0.21,1.02 0.28,1.4 0.06,0.37 0.15,0.96 0.2,1.3 l 0.08,0.63 -0.02,2.94 c -0.01,1.76 -0.03,3.04 -0.06,3.19 -0.02,0.14 -0.08,0.67 -0.14,1.19 -0.05,0.51 -0.15,1.35 -0.22,1.87 -0.06,0.51 -0.16,1.24 -0.21,1.61 -0.06,0.38 -0.18,1.16 -0.28,1.74 -0.09,0.58 -0.24,1.4 -0.32,1.82 -0.09,0.43 -0.16,0.8 -0.16,0.84 0,0.03 -0.03,0.1 -0.07,0.14 -0.04,0.05 -0.17,0.42 -0.3,0.88 -0.12,0.44 -0.34,1.17 -0.49,1.63 -0.15,0.46 -0.36,1.07 -0.47,1.35 -0.1,0.28 -0.23,0.69 -0.29,0.91 -0.05,0.23 -0.18,0.62 -0.28,0.88 -0.09,0.26 -0.34,0.84 -0.55,1.29 -0.21,0.45 -0.44,0.94 -0.51,1.11 -0.07,0.16 -0.19,0.43 -0.28,0.6 -0.08,0.17 -0.18,0.37 -0.22,0.45 -0.04,0.07 -0.19,0.33 -0.33,0.56 -0.14,0.24 -0.43,0.71 -0.65,1.06 -0.21,0.34 -0.47,0.7 -0.57,0.8 -0.1,0.09 -0.3,0.33 -0.45,0.52 -0.16,0.19 -0.36,0.44 -0.46,0.55 -0.11,0.11 -0.21,0.26 -0.24,0.33 -0.04,0.07 -0.26,0.34 -0.51,0.6 -0.24,0.26 -0.63,0.64 -0.86,0.86 -0.22,0.22 -0.6,0.55 -0.83,0.74 -0.23,0.18 -0.65,0.49 -0.94,0.68 -0.28,0.19 -0.76,0.47 -1.06,0.62 -0.3,0.15 -0.72,0.34 -0.94,0.43 -0.22,0.09 -0.59,0.21 -0.81,0.27 -0.23,0.07 -0.6,0.16 -0.84,0.2 -0.24,0.04 -0.68,0.09 -0.99,0.12 -0.31,0.02 -0.74,0.03 -0.94,0.01 -0.2,-0.01 -0.53,-0.04 -0.72,-0.06 -0.19,-0.02 -0.55,-0.08 -0.8,-0.14 -0.25,-0.05 -0.67,-0.16 -0.93,-0.25 -0.25,-0.08 -0.61,-0.21 -0.79,-0.29 -0.18,-0.07 -0.52,-0.24 -0.77,-0.37 -0.25,-0.13 -0.69,-0.4 -0.99,-0.6 -0.3,-0.2 -0.74,-0.52 -0.98,-0.7 -0.23,-0.19 -0.75,-0.67 -1.15,-1.07 -0.4,-0.41 -0.78,-0.81 -0.84,-0.9 -0.06,-0.1 -0.24,-0.34 -0.4,-0.54 -0.16,-0.21 -0.37,-0.46 -0.47,-0.57 -0.1,-0.11 -0.34,-0.44 -0.54,-0.74 -0.19,-0.3 -0.41,-0.61 -0.47,-0.7 -0.07,-0.09 -0.21,-0.27 -0.31,-0.42 -0.11,-0.14 -0.29,-0.42 -0.41,-0.62 -0.12,-0.2 -0.24,-0.44 -0.28,-0.54 -0.04,-0.09 -0.09,-0.21 -0.12,-0.25 -0.03,-0.05 -0.08,-0.16 -0.11,-0.25 -0.03,-0.09 -0.09,-0.21 -0.13,-0.27 -0.04,-0.06 -0.17,-0.27 -0.27,-0.47 -0.11,-0.19 -0.29,-0.55 -0.4,-0.78 -0.1,-0.23 -0.3,-0.72 -0.44,-1.08 -0.14,-0.36 -0.42,-1.1 -0.62,-1.63 -0.2,-0.54 -0.52,-1.39 -0.71,-1.9 -0.23,-0.63 -0.43,-1.29 -0.64,-2.08 -0.17,-0.64 -0.37,-1.41 -0.45,-1.71 -0.07,-0.3 -0.2,-0.85 -0.27,-1.22 -0.08,-0.38 -0.18,-0.92 -0.24,-1.21 -0.05,-0.29 -0.13,-0.77 -0.17,-1.06 -0.05,-0.3 -0.19,-1.59 -0.32,-2.87 -0.16,-1.63 -0.23,-2.51 -0.23,-2.9 0,-0.3 -0.03,-0.83 -0.06,-1.18 -0.03,-0.34 -0.07,-1.15 -0.08,-1.79 -0.02,-0.76 -0.01,-1.39 0.02,-1.81 0.03,-0.36 0.09,-0.97 0.14,-1.36 0.06,-0.4 0.18,-1.11 0.27,-1.58 0.1,-0.47 0.27,-1.22 0.39,-1.66 0.12,-0.44 0.35,-1.19 0.52,-1.67 0.16,-0.48 0.32,-0.94 0.36,-1.01 0.04,-0.08 0.15,-0.32 0.24,-0.53 0.1,-0.22 0.23,-0.53 0.3,-0.71 0.07,-0.17 0.3,-0.66 0.51,-1.09 0.2,-0.42 0.46,-0.92 0.56,-1.1 0.11,-0.18 0.2,-0.34 0.2,-0.35 0.01,0 0.07,0.03 0.13,0.07 0.09,0.07 0.12,0.08 0.12,0.03 0,-0.03 -0.02,-0.08 -0.06,-0.11 -0.03,-0.02 -0.05,-0.08 -0.04,-0.11 0.01,-0.04 0.29,-0.53 0.63,-1.1 0.34,-0.56 0.78,-1.27 0.99,-1.57 0.2,-0.3 0.51,-0.74 0.68,-0.97 0.18,-0.24 0.57,-0.74 0.87,-1.11 0.3,-0.38 0.9,-1.1 1.34,-1.6 0.44,-0.5 1.08,-1.21 1.43,-1.57 0.36,-0.36 1.1,-1.07 1.66,-1.56 0.56,-0.5 1.13,-1 1.27,-1.12 0.14,-0.12 0.38,-0.32 0.54,-0.45 0.16,-0.13 0.42,-0.34 0.56,-0.47 0.15,-0.13 0.45,-0.34 0.68,-0.48 0.22,-0.13 0.52,-0.35 0.67,-0.48 0.14,-0.14 0.38,-0.34 0.54,-0.47 0.16,-0.12 0.3,-0.22 0.32,-0.22 z m -46.98,3.35 v 0.44 c 0,0.24 0.02,0.82 0.04,1.28 0.02,0.46 0.08,1.22 0.12,1.69 0.04,0.47 0.12,1.18 0.17,1.58 0.06,0.4 0.15,1.04 0.22,1.44 0.06,0.4 0.2,1.14 0.29,1.66 0.1,0.51 0.24,1.2 0.31,1.54 0.08,0.33 0.22,0.92 0.31,1.3 0.1,0.39 0.25,0.95 0.34,1.25 0.08,0.3 0.27,0.9 0.41,1.34 0.14,0.44 0.38,1.16 0.54,1.6 0.16,0.44 0.42,1.15 0.59,1.57 0.17,0.43 0.46,1.12 0.63,1.52 0.18,0.41 0.58,1.27 0.9,1.91 0.31,0.65 0.73,1.47 0.93,1.83 0.2,0.37 0.53,0.95 0.74,1.29 0.2,0.34 0.51,0.84 0.68,1.11 0.17,0.27 0.57,0.87 0.9,1.34 0.32,0.47 0.73,1.07 0.91,1.33 0.19,0.25 0.59,0.81 0.9,1.23 0.32,0.41 0.67,0.88 0.79,1.04 l 0.22,0.28 -0.65,0.49 c -0.35,0.27 -0.91,0.71 -1.23,0.97 -0.32,0.26 -0.81,0.67 -1.09,0.91 -0.27,0.25 -0.69,0.63 -0.93,0.86 l -0.44,0.42 -0.64,-0.38 c -0.35,-0.22 -1.02,-0.65 -1.48,-0.95 -0.46,-0.3 -1.13,-0.76 -1.48,-1.02 -0.35,-0.25 -0.83,-0.6 -1.05,-0.77 -0.23,-0.17 -0.67,-0.52 -0.99,-0.78 -0.32,-0.25 -0.83,-0.68 -1.15,-0.95 -0.31,-0.27 -0.85,-0.74 -1.19,-1.05 -0.34,-0.31 -0.95,-0.9 -1.36,-1.31 -0.41,-0.41 -1.01,-1.04 -1.34,-1.39 -0.32,-0.35 -0.83,-0.92 -1.12,-1.26 -0.29,-0.35 -0.73,-0.87 -0.97,-1.17 -0.24,-0.3 -0.6,-0.77 -0.81,-1.03 -0.2,-0.27 -0.58,-0.78 -0.83,-1.14 -0.25,-0.35 -0.71,-1.01 -1.01,-1.47 -0.31,-0.46 -0.79,-1.24 -1.08,-1.72 -0.29,-0.48 -0.71,-1.2 -0.93,-1.6 -0.22,-0.39 -0.61,-1.14 -0.87,-1.65 -0.26,-0.51 -0.6,-1.22 -0.76,-1.56 -0.16,-0.34 -0.42,-0.94 -0.59,-1.33 -0.17,-0.39 -0.44,-1.04 -0.6,-1.44 -0.16,-0.4 -0.4,-1.05 -0.54,-1.44 -0.14,-0.38 -0.37,-1.05 -0.51,-1.48 -0.14,-0.43 -0.35,-1.1 -0.47,-1.5 -0.12,-0.41 -0.31,-1.12 -0.43,-1.59 -0.12,-0.48 -0.21,-0.9 -0.21,-0.94 0,-0.05 0.07,-0.09 0.3,-0.17 0.16,-0.05 0.49,-0.15 0.72,-0.22 0.23,-0.06 0.81,-0.21 1.28,-0.33 0.48,-0.11 1.25,-0.29 1.71,-0.39 0.46,-0.09 1.22,-0.24 1.7,-0.33 0.47,-0.08 1.38,-0.23 2,-0.33 0.63,-0.09 1.57,-0.21 2.08,-0.25 0.52,-0.05 1.11,-0.1 1.33,-0.12 0.21,-0.02 0.73,-0.06 1.15,-0.08 0.41,-0.02 0.79,-0.05 0.83,-0.06 0.05,0 0.67,-0.01 1.4,-0.01 z m 93.95,0.82 h 0.23 c 0.12,0 0.55,0.02 0.96,0.04 0.41,0.02 1.22,0.05 1.81,0.08 0.59,0.02 1.35,0.06 1.68,0.1 0.33,0.03 0.81,0.07 1.07,0.09 0.26,0.03 0.66,0.09 0.9,0.14 0.23,0.06 0.86,0.18 1.4,0.27 0.53,0.1 1.32,0.25 1.75,0.33 0.43,0.09 1.05,0.22 1.38,0.3 0.34,0.07 0.85,0.2 1.15,0.27 0.3,0.08 0.84,0.22 1.19,0.32 0.36,0.09 0.9,0.25 1.21,0.34 0.31,0.1 0.87,0.28 1.25,0.42 0.51,0.17 0.7,0.25 0.7,0.3 0,0.03 -0.12,0.44 -0.26,0.9 -0.14,0.46 -0.39,1.2 -0.55,1.65 -0.16,0.45 -0.45,1.23 -0.65,1.74 -0.2,0.5 -0.51,1.24 -0.69,1.65 -0.17,0.41 -0.53,1.2 -0.8,1.75 -0.26,0.55 -0.68,1.39 -0.93,1.87 -0.25,0.47 -0.63,1.16 -0.84,1.52 -0.21,0.37 -0.56,0.96 -0.78,1.33 -0.22,0.36 -0.59,0.96 -0.83,1.32 -0.23,0.36 -0.6,0.91 -0.81,1.22 -0.22,0.32 -0.61,0.87 -0.88,1.24 -0.27,0.36 -0.69,0.92 -0.94,1.24 -0.25,0.32 -0.71,0.9 -1.04,1.28 -0.32,0.39 -0.76,0.9 -0.97,1.14 -0.21,0.23 -0.72,0.79 -1.14,1.24 -0.42,0.45 -1.12,1.15 -1.55,1.56 -0.43,0.41 -1.03,0.97 -1.34,1.25 -0.31,0.27 -0.87,0.75 -1.25,1.07 -0.37,0.31 -0.98,0.79 -1.34,1.07 -0.37,0.28 -0.92,0.7 -1.23,0.92 -0.31,0.23 -0.87,0.62 -1.24,0.87 l -0.67,0.46 -0.46,-0.41 c -0.25,-0.23 -0.7,-0.62 -1,-0.86 -0.3,-0.25 -0.8,-0.65 -1.11,-0.89 -0.31,-0.24 -0.87,-0.66 -1.25,-0.93 -0.37,-0.26 -0.89,-0.62 -1.16,-0.79 -0.26,-0.18 -0.47,-0.33 -0.47,-0.35 0,-0.02 0.07,-0.14 0.16,-0.27 0.09,-0.13 0.31,-0.43 0.5,-0.67 0.18,-0.23 0.5,-0.68 0.71,-0.99 0.22,-0.31 0.58,-0.85 0.8,-1.19 0.23,-0.34 0.62,-0.97 0.87,-1.38 0.25,-0.42 0.61,-1.04 0.8,-1.39 0.18,-0.34 0.57,-1.09 0.85,-1.65 0.28,-0.57 0.68,-1.4 0.87,-1.85 0.2,-0.45 0.55,-1.28 0.77,-1.83 0.22,-0.56 0.52,-1.33 0.65,-1.72 0.14,-0.38 0.36,-1.06 0.5,-1.5 0.13,-0.44 0.31,-1.1 0.41,-1.48 0.1,-0.37 0.26,-1.07 0.37,-1.54 0.1,-0.47 0.28,-1.36 0.4,-1.98 0.12,-0.62 0.26,-1.39 0.31,-1.72 0.06,-0.32 0.15,-0.9 0.2,-1.28 0.05,-0.39 0.13,-1.06 0.18,-1.5 0.04,-0.44 0.09,-1.1 0.11,-1.47 0.03,-0.37 0.04,-0.89 0.04,-1.16 z m -11.86,30.61 c 0.02,0.01 0.39,0.26 0.82,0.54 0.43,0.28 1.03,0.7 1.33,0.92 0.3,0.22 0.75,0.55 0.99,0.74 0.24,0.19 0.77,0.64 1.18,0.99 0.41,0.36 1.04,0.9 1.39,1.21 0.35,0.32 1.13,1.06 1.71,1.65 0.59,0.59 1.38,1.41 1.76,1.83 0.38,0.42 0.92,1.02 1.2,1.35 0.27,0.32 0.73,0.87 1.01,1.21 0.27,0.34 0.75,0.94 1.06,1.33 0.31,0.4 0.83,1.08 1.15,1.52 0.32,0.44 0.82,1.13 1.1,1.53 0.28,0.39 0.8,1.16 1.17,1.71 0.36,0.54 0.84,1.28 1.07,1.64 0.22,0.35 0.6,0.95 0.83,1.32 0.22,0.36 0.4,0.67 0.4,0.68 -0.01,0 -0.51,0.11 -1.11,0.23 -0.59,0.12 -1.55,0.29 -2.12,0.39 -0.57,0.09 -1.47,0.23 -2,0.31 -0.54,0.07 -1.36,0.18 -1.83,0.23 -0.46,0.06 -1.3,0.15 -1.87,0.2 -0.56,0.05 -1.45,0.12 -1.97,0.15 -0.53,0.04 -1.39,0.08 -1.91,0.1 -0.53,0.03 -1.61,0.04 -2.42,0.04 -0.8,0 -1.85,-0.02 -2.33,-0.04 -0.49,-0.02 -1.17,-0.05 -1.52,-0.07 -0.36,-0.03 -1.01,-0.08 -1.46,-0.12 -0.45,-0.05 -1.11,-0.11 -1.46,-0.16 -0.36,-0.04 -1.05,-0.14 -1.54,-0.21 -0.5,-0.08 -1.37,-0.24 -1.95,-0.35 -0.58,-0.12 -1.44,-0.31 -1.92,-0.43 -0.47,-0.12 -1.24,-0.33 -1.7,-0.47 -0.46,-0.13 -1.16,-0.36 -1.55,-0.5 -0.4,-0.14 -1.09,-0.4 -1.53,-0.58 -0.45,-0.18 -1.09,-0.44 -1.43,-0.59 -0.33,-0.14 -0.99,-0.43 -1.46,-0.64 -0.47,-0.21 -1.25,-0.59 -1.74,-0.83 l -0.89,-0.45 0.3,-0.13 c 0.17,-0.07 0.56,-0.25 0.86,-0.4 0.3,-0.15 0.74,-0.38 0.99,-0.51 0.25,-0.13 0.64,-0.35 0.88,-0.47 0.23,-0.12 0.65,-0.36 0.91,-0.52 0.27,-0.16 0.8,-0.49 1.17,-0.74 0.38,-0.24 0.92,-0.61 1.21,-0.82 0.29,-0.2 0.78,-0.56 1.09,-0.8 0.31,-0.23 0.82,-0.63 1.14,-0.89 0.31,-0.25 0.77,-0.62 1.01,-0.83 0.24,-0.21 0.67,-0.58 0.95,-0.83 0.27,-0.25 0.88,-0.81 1.34,-1.26 0.46,-0.44 1.37,-1.34 2.02,-2 0.66,-0.66 1.53,-1.57 1.95,-2.02 0.42,-0.45 1.03,-1.13 1.36,-1.5 0.34,-0.38 0.82,-0.93 1.08,-1.23 0.26,-0.3 0.64,-0.75 0.85,-1 0.23,-0.28 0.4,-0.45 0.43,-0.43 z m -68.76,1.54 c 0.01,0 0.31,0.33 0.66,0.73 0.34,0.39 0.99,1.12 1.45,1.61 0.45,0.5 1.41,1.5 2.14,2.23 0.72,0.73 1.73,1.73 2.24,2.21 0.5,0.48 1.19,1.11 1.52,1.39 0.34,0.28 0.99,0.82 1.45,1.19 0.46,0.36 1.1,0.86 1.42,1.11 0.32,0.24 0.87,0.64 1.22,0.89 0.36,0.25 0.98,0.68 1.39,0.95 0.4,0.26 1.04,0.67 1.42,0.89 0.37,0.23 0.93,0.54 1.23,0.7 0.3,0.16 0.82,0.44 1.17,0.63 0.34,0.18 0.79,0.41 1.01,0.51 0.21,0.09 0.62,0.26 0.91,0.37 0.29,0.1 0.59,0.2 0.66,0.22 0.07,0.01 0.12,0.04 0.1,0.06 -0.02,0.01 -0.46,0.2 -0.97,0.41 -0.52,0.2 -1.26,0.51 -1.66,0.68 -0.39,0.16 -0.92,0.39 -1.16,0.5 -0.25,0.11 -0.7,0.3 -1,0.41 -0.3,0.11 -0.89,0.32 -1.32,0.46 -0.43,0.14 -1.06,0.34 -1.4,0.43 -0.35,0.1 -0.98,0.27 -1.41,0.37 -0.43,0.11 -1.18,0.28 -1.67,0.37 -0.5,0.1 -1.11,0.22 -1.37,0.26 -0.25,0.04 -0.76,0.12 -1.13,0.17 -0.36,0.06 -0.96,0.13 -1.34,0.18 -0.37,0.04 -0.99,0.1 -1.36,0.14 -0.38,0.03 -1.1,0.08 -1.6,0.12 -0.5,0.03 -1.76,0.07 -2.78,0.08 -1.17,0.02 -2.32,0.01 -3.04,-0.02 -0.65,-0.03 -1.58,-0.07 -2.07,-0.11 -0.49,-0.03 -1.38,-0.1 -1.97,-0.15 -0.58,-0.06 -1.43,-0.14 -1.88,-0.2 -0.45,-0.05 -1.31,-0.16 -1.91,-0.25 -0.6,-0.08 -1.55,-0.23 -2.1,-0.33 -0.55,-0.1 -1.43,-0.26 -1.95,-0.37 -0.52,-0.1 -0.96,-0.19 -0.97,-0.19 -0.02,0 -0.03,-0.02 -0.03,-0.04 0,-0.02 0.18,-0.32 0.39,-0.67 0.21,-0.35 0.58,-0.95 0.82,-1.34 0.24,-0.38 0.69,-1.08 1,-1.55 0.31,-0.46 0.81,-1.2 1.12,-1.63 0.3,-0.44 0.79,-1.11 1.08,-1.51 0.28,-0.39 0.78,-1.05 1.1,-1.46 0.32,-0.41 0.84,-1.06 1.16,-1.45 0.32,-0.39 0.77,-0.92 0.99,-1.19 0.23,-0.26 0.71,-0.8 1.06,-1.2 0.36,-0.4 1.02,-1.09 1.47,-1.54 0.45,-0.45 1.19,-1.17 1.65,-1.6 0.45,-0.43 0.96,-0.89 1.13,-1.04 0.16,-0.15 0.55,-0.49 0.86,-0.75 0.31,-0.26 0.76,-0.62 1,-0.8 0.23,-0.19 0.61,-0.46 0.83,-0.61 0.22,-0.16 0.42,-0.28 0.44,-0.27 z" />
    </clipPath>
    <clipPath
       clipPathUnits="userSpaceOnUse"
       id="clipPath1308">
      <path
         id="path1310"
         d="m 343.73,363.97 c -11.94,0 -20.65,9.38 -20.65,20.94 0,11.55 8.71,20.93 20.65,20.93 11.95,0 20.66,-9.38 20.66,-20.93 0,-11.56 -8.71,-20.94 -20.66,-20.94 z m 123.14,0 c -9.05,0 -12.28,6.93 -12.28,10.61 0,4.13 1.5,7.37 8.87,12.12 4.97,3.12 8.04,5.74 8.04,10.66 0,3.85 -2.34,6.7 -6.59,6.7 -4.91,0 -8.98,-3.47 -11.33,-11.39 l -1.06,0.28 1.4,10.05 c 0,0 4.63,2.84 11.16,2.84 8.38,0 13.57,-6.08 13.57,-12.11 0,-5.42 -3.69,-8.88 -9.88,-12.56 -5.98,-3.57 -7.93,-6.03 -7.93,-9.6 0,-2.85 2.07,-5.81 5.86,-5.81 4.08,0 7.48,3.29 9.21,9.04 l 1.06,-0.22 -1.17,-8.6 c -1.62,-0.83 -4.52,-2.01 -8.93,-2.01 z m -178.67,1.12 v 1.06 c 3.02,0 4.75,1.06 4.75,4.24 v 29.03 c 0,3.18 -1.73,4.25 -4.75,4.25 v 1.06 h 28.64 l 1.56,-9.55 -1.06,-0.22 c -1.56,4.85 -4.41,8.09 -9.49,8.09 h -3.63 c -1.9,0 -3.51,-0.67 -3.51,-3.63 v -29.03 c 0,-3.18 1.78,-4.24 4.74,-4.24 v -1.06 z m 81.7,0 -0.67,9.21 1.06,0.17 c 1.23,-4.75 3.58,-7.7 8.66,-7.7 h 3.46 v 32.65 c 0,3.24 -1.79,4.25 -4.75,4.25 v 1.06 h 17.25 v -1.06 c -3.01,0 -4.74,-1.01 -4.74,-4.25 v -32.65 h 3.46 c 5.08,0 7.42,2.95 8.59,7.7 l 1.12,-0.17 -0.67,-9.21 z m 38.72,0 v 1.06 c 3.01,0 4.74,1.01 4.74,4.19 v 18.09 c 0,9.65 4.19,17.41 15.13,17.41 10.94,0 14.74,-6.08 14.74,-17.25 v -18.25 c 0,-3.18 2.17,-4.19 5.13,-4.19 v -1.06 h -11.94 v 1.06 c 2.96,0 5.13,1.01 5.13,4.19 v 18.25 c 0,10.89 -4.02,15.3 -11.16,15.3 -5.53,0 -9.27,-3.52 -9.27,-15.46 v -18.09 c 0,-3.18 1.79,-4.19 4.75,-4.19 v -1.06 z m -64.89,0.67 c 7.54,0 11.89,8.6 11.89,19.15 0,10.55 -4.3,19.15 -11.89,19.15 -7.53,0 -11.94,-8.6 -11.94,-19.15 0,-10.55 4.35,-19.15 11.94,-19.15 z" />
    </clipPath>
    <clipPath
       clipPathUnits="userSpaceOnUse"
       id="clipPath1312">
      <path
         id="path1314"
         d="m 601.41,363.97 c -11.95,0 -20.66,9.38 -20.66,20.94 0,11.55 8.71,20.93 20.66,20.93 11.94,0 20.65,-9.38 20.65,-20.93 0,-11.56 -8.71,-20.94 -20.65,-20.94 z m 50.07,0 c -12.68,0 -21.38,8.82 -21.38,20.94 0,11.55 8.2,20.93 21.38,20.93 5.08,0 10.55,-1.89 12.05,-2.84 l 1.29,-9.33 -1.06,-0.28 c -2.35,7.93 -7.48,10.67 -12.45,10.67 -7.04,0 -12.51,-8.55 -12.51,-19.15 0,-10.55 5.64,-19.15 13.29,-19.15 5.58,0 9.55,3.74 11.89,11.67 l 1.06,-0.22 -0.84,-10.17 c -2.9,-1.22 -6.75,-3.07 -12.72,-3.07 z m 83.85,0 c -12.67,0 -21.38,8.82 -21.38,20.94 0,11.55 8.21,20.93 21.38,20.93 5.08,0 10.55,-1.89 12.06,-2.84 l 1.28,-9.33 -1.06,-0.28 c -2.34,7.93 -7.48,10.67 -12.45,10.67 -7.03,0 -12.5,-8.55 -12.5,-19.15 0,-10.55 5.64,-19.15 13.29,-19.15 5.58,0 9.54,3.74 11.89,11.67 l 1.06,-0.22 -0.84,-10.17 c -2.9,-1.22 -6.75,-3.07 -12.73,-3.07 z m 89.91,0 -14.79,35.23 c -1.45,3.29 -2.4,4.47 -6.31,4.47 v 1.06 h 11.95 v -1.06 c -2.18,0 -3.3,-0.28 -3.85,-0.95 -0.51,-0.56 -0.28,-1.73 0.5,-3.69 l 3.12,-7.87 h 13.01 l 3.24,8.26 c 0.84,2.07 0.89,2.9 0.56,3.46 -0.5,0.73 -1.51,0.79 -3.19,0.79 v 1.06 h 17.31 v -1.06 c -3.35,0 -4.69,-1.79 -6.31,-5.42 l -13.95,-34.28 z m -319.87,1.12 v 1.06 c 3.01,0 4.74,1.06 4.74,4.24 v 29.03 c 0,3.18 -1.73,4.25 -4.74,4.25 v 1.06 h 20.71 c 8.26,0 12.61,-4.97 12.61,-11 0,-6.25 -4.63,-9.77 -10.99,-11.05 4.52,-1.51 8.26,-4.69 8.26,-8.88 0,-5.14 -3.86,-8.71 -12.17,-8.71 z m 40.51,0 v 1.06 c 3.01,0 4.74,1.06 4.74,4.24 v 29.03 c 0,3.18 -1.73,4.25 -4.74,4.25 v 1.06 h 28.63 l 1.57,-9.55 -1.06,-0.22 c -1.57,4.85 -4.41,8.09 -9.49,8.09 h -3.63 c -1.9,0 -3.52,-0.67 -3.52,-3.63 v -29.03 c 0,-3.18 1.79,-4.24 4.75,-4.24 v -1.06 z m 126.44,0 v 1.01 c 3.01,0 4.74,1.06 4.74,4.24 v 29.08 c 0,3.18 -1.73,4.25 -4.74,4.25 v 1.06 h 17.24 v -1.06 c -2.95,0 -4.74,-1.07 -4.74,-4.25 v -29.08 c 0,-3.18 1.79,-4.24 4.74,-4.24 v -1.01 z m 23.72,0 v 1.06 c 2.01,0 3.46,0.39 3.8,1.29 0.22,0.44 0.16,1.06 -0.9,2.17 l -13.28,14.8 13.95,20.32 h 12.45 v -1.06 c -3.12,0 -5.19,-2.13 -7.2,-4.58 l -13.4,-18.59 10.22,-11.33 c 1.95,-1.96 3.85,-3.02 6.59,-3.02 v -1.06 z m 60.13,0 v 1.06 c 3.02,0 4.75,1.01 4.75,4.19 v 29.08 c 0,3.24 -1.73,4.25 -4.75,4.25 v 1.06 h 17.25 v -1.06 c -2.96,0 -4.74,-1.01 -4.74,-4.25 v -13.95 h 17.36 v 13.95 c 0,3.24 -1.73,4.25 -4.75,4.25 v 1.06 h 17.31 v -1.06 c -3.02,0 -4.75,-1.01 -4.75,-4.25 v -29.08 c 0,-3.18 1.73,-4.19 4.75,-4.19 v -1.06 h -17.31 v 1.06 c 3.02,0 4.75,1.01 4.75,4.19 v 13.45 h -17.36 v -13.45 c 0,-3.18 1.78,-4.19 4.74,-4.19 v -1.06 z m 96.18,0 v 1.06 c 3.01,0 4.74,1.06 4.74,4.24 v 29.03 c 0,3.18 -1.73,4.25 -4.74,4.25 v 1.06 h 17.25 v -1.06 c -2.96,0 -4.75,-1.07 -4.75,-4.25 v -29.03 c 0,-3.18 1.79,-4.24 4.75,-4.24 v -1.06 z m 24.74,0 v 1.06 c 3.01,0 5.13,1.79 5.13,4.97 v 28.3 c 0,3.24 -2.12,4.25 -5.13,4.25 v 1.06 h 11.94 v -1.06 c -2.96,0 -5.13,-1.01 -5.13,-4.25 v -26.85 l 26.29,32.16 h 1.67 v -34.34 c 0,-3.18 2.18,-4.24 5.14,-4.24 v -1.06 h -11.95 v 1.06 c 2.96,0 5.14,1.06 5.14,4.24 v 22.06 l -22.61,-27.36 z m -275.68,0.67 c 7.53,0 11.89,8.6 11.89,19.15 0,10.55 -4.3,19.15 -11.89,19.15 -7.54,0 -11.95,-8.6 -11.95,-19.15 0,-10.55 4.36,-19.15 11.95,-19.15 z M 521,366.93 h 1.45 c 4.07,0 6.31,2.35 6.31,6.76 0,5.64 -2.91,8.26 -7.26,8.26 h -3.8 v -11.16 c 0,-1.9 0.78,-3.86 3.3,-3.86 z m 301.45,8.04 5.75,14.52 h -11.67 z m -304.75,8.88 h 5.31 c 5.02,0 7.7,3.23 7.7,9.43 0,5.75 -2.57,9.66 -7.65,9.66 H 521 c -2.52,-0.06 -3.3,-1.95 -3.3,-3.91 z" />
    </clipPath>
  </defs>
  <g
     clip-path="url(#clipPath1312)"
     filter="url(#blur)"
     id="g18"
     inkscape:label="g18">
    <path
       d="m 0,0 c 170.66667,0 341.33333,0 512,0 0,128 0,256 0,384 -170.66667,0 -341.33333,0 -512,0 C 0,256 0,128 0,0 Z"
       fill="#498eb8"
       id="path10" />
    <path
       d="m 512,0 c 170.66667,0 341.33333,0 512,0 0,128 0,256 0,384 -170.66667,0 -341.33333,0 -512,0 0,-128 0,-256 0,-384 z"
       fill="#7c768e"
       id="path12" />
    <path
       d="m 512,384 c 170.66667,0 341.33333,0 512,0 0,128 0,256 0,384 -170.66667,0 -341.33333,0 -512,0 0,-128 0,-256 0,-384 z"
       fill="#af5f65"
       id="path14" />
    <path
       d="m 0,384 c 170.66667,0 341.33333,0 512,0 0,128 0,256 0,384 -170.66667,0 -341.33333,0 -512,0 C 0,640 0,512 0,384 Z"
       fill="#e2483c"
       id="path16" />
  </g>
  <g
     clip-path="url(#clipPath1308)"
     filter="url(#blur)"
     id="g1288">
    <path
       d="m 0,0 c 170.66667,0 341.33333,0 512,0 0,128 0,256 0,384 -170.66667,0 -341.33333,0 -512,0 C 0,256 0,128 0,0 Z"
       fill="#498eb8"
       id="path1280" />
    <path
       d="m 512,0 c 170.66667,0 341.33333,0 512,0 0,128 0,256 0,384 -170.66667,0 -341.33333,0 -512,0 0,-128 0,-256 0,-384 z"
       fill="#7c768e"
       id="path1282" />
    <path
       d="m 512,384 c 170.66667,0 341.33333,0 512,0 0,128 0,256 0,384 -170.66667,0 -341.33333,0 -512,0 0,-128 0,-256 0,-384 z"
       fill="#af5f65"
       id="path1284" />
    <path
       d="m 0,384 c 170.66667,0 341.33333,0 512,0 0,128 0,256 0,384 -170.66667,0 -341.33333,0 -512,0 C 0,640 0,512 0,384 Z"
       fill="#e2483c"
       id="path1286" />
  </g>
  <g
     clip-path="url(#clipPath1304)"
     filter="url(#blur)"
     id="g1298"
     inkscape:label="g18">
    <path
       d="m 0,0 c 170.66667,0 341.33333,0 512,0 0,128 0,256 0,384 -170.66667,0 -341.33333,0 -512,0 C 0,256 0,128 0,0 Z"
       fill="#498eb8"
       id="path1290" />
    <path
       d="m 512,0 c 170.66667,0 341.33333,0 512,0 0,128 0,256 0,384 -170.66667,0 -341.33333,0 -512,0 0,-128 0,-256 0,-384 z"
       fill="#7c768e"
       id="path1292" />
    <path
       d="m 512,384 c 170.66667,0 341.33333,0 512,0 0,128 0,256 0,384 -170.66667,0 -341.33333,0 -512,0 0,-128 0,-256 0,-384 z"
       fill="#af5f65"
       id="path1294" />
    <path
       d="m 0,384 c 170.66667,0 341.33333,0 512,0 0,128 0,256 0,384 -170.66667,0 -341.33333,0 -512,0 C 0,640 0,512 0,384 Z"
       fill="#e2483c"
       id="path1296" />
  </g>
</svg>
