<?xml version="1.0" encoding="UTF-8" standalone="no"?>
<svg
   version="1.1"
   viewBox="0 0 1024 768"
   id="svg20"
   sodipodi:docname="Lotus_Blockchain_src.svg"
   inkscape:version="1.1.1 (3bf5ae0d25, 2021-09-20)"
   xmlns:inkscape="http://www.inkscape.org/namespaces/inkscape"
   xmlns:sodipodi="http://sodipodi.sourceforge.net/DTD/sodipodi-0.dtd"
   xmlns="http://www.w3.org/2000/svg"
   xmlns:svg="http://www.w3.org/2000/svg">
  <sodipodi:namedview
     id="namedview22"
     pagecolor="#ffffff"
     bordercolor="#666666"
     borderopacity="1.0"
     inkscape:pageshadow="2"
     inkscape:pageopacity="0.0"
     inkscape:pagecheckerboard="0"
     showgrid="false"
     inkscape:zoom="1.3717201"
     inkscape:cx="500.83104"
     inkscape:cy="349.92562"
     inkscape:window-width="2160"
     inkscape:window-height="1346"
     inkscape:window-x="-11"
     inkscape:window-y="-11"
     inkscape:window-maximized="1"
     inkscape:current-layer="svg20" />
  <defs
     id="defs8">
    <filter
       id="blur"
       x="-0.1171875"
       y="-0.15625"
       width="1.234375"
       height="1.3125">
      <feGaussianBlur
         in="SourceGraphic"
         stdDeviation="50"
         id="feGaussianBlur2" />
    </filter>
  </defs>
  <path
     d="m 140.22,421.25 c 0.01,0 0.31,0.33 0.66,0.73 0.34,0.39 0.99,1.12 1.45,1.61 0.45,0.5 1.41,1.5 2.14,2.23 0.72,0.73 1.73,1.73 2.24,2.21 0.5,0.48 1.19,1.11 1.52,1.39 0.34,0.28 0.99,0.82 1.45,1.19 0.46,0.36 1.1,0.86 1.42,1.11 0.32,0.24 0.87,0.64 1.22,0.89 0.36,0.25 0.98,0.68 1.39,0.95 0.4,0.26 1.04,0.67 1.42,0.89 0.37,0.23 0.93,0.54 1.23,0.7 0.3,0.16 0.82,0.44 1.17,0.63 0.34,0.18 0.79,0.41 1.01,0.51 0.21,0.09 0.62,0.26 0.91,0.37 0.29,0.1 0.59,0.2 0.66,0.22 0.07,0.01 0.12,0.04 0.1,0.06 -0.02,0.01 -0.46,0.2 -0.97,0.41 -0.52,0.2 -1.26,0.51 -1.66,0.68 -0.39,0.16 -0.92,0.39 -1.16,0.5 -0.25,0.11 -0.7,0.3 -1,0.41 -0.3,0.11 -0.89,0.32 -1.32,0.46 -0.43,0.14 -1.06,0.34 -1.4,0.43 -0.35,0.1 -0.98,0.27 -1.41,0.37 -0.43,0.11 -1.18,0.28 -1.67,0.37 -0.5,0.1 -1.11,0.22 -1.37,0.26 -0.25,0.04 -0.76,0.12 -1.13,0.17 -0.36,0.06 -0.96,0.13 -1.34,0.18 -0.37,0.04 -0.99,0.1 -1.36,0.14 -0.38,0.03 -1.1,0.08 -1.6,0.12 -0.5,0.03 -1.76,0.07 -2.78,0.08 -1.17,0.02 -2.32,0.01 -3.04,-0.02 -0.65,-0.03 -1.58,-0.07 -2.07,-0.11 -0.49,-0.03 -1.38,-0.1 -1.97,-0.15 -0.58,-0.06 -1.43,-0.14 -1.88,-0.2 -0.45,-0.05 -1.31,-0.16 -1.91,-0.25 -0.6,-0.08 -1.55,-0.23 -2.1,-0.33 -0.55,-0.1 -1.43,-0.26 -1.95,-0.37 -0.52,-0.1 -0.96,-0.19 -0.97,-0.19 -0.02,0 -0.03,-0.02 -0.03,-0.04 0,-0.02 0.18,-0.32 0.39,-0.67 0.21,-0.35 0.58,-0.95 0.82,-1.34 0.24,-0.38 0.69,-1.08 1,-1.55 0.31,-0.46 0.81,-1.2 1.12,-1.63 0.3,-0.44 0.79,-1.11 1.08,-1.51 0.28,-0.39 0.78,-1.05 1.1,-1.46 0.32,-0.41 0.84,-1.06 1.16,-1.45 0.32,-0.39 0.77,-0.92 0.99,-1.19 0.23,-0.26 0.71,-0.8 1.06,-1.2 0.36,-0.4 1.02,-1.09 1.47,-1.54 0.45,-0.45 1.19,-1.17 1.65,-1.6 0.45,-0.43 0.96,-0.89 1.13,-1.04 0.16,-0.15 0.55,-0.49 0.86,-0.75 0.31,-0.26 0.76,-0.62 1,-0.8 0.23,-0.19 0.61,-0.46 0.83,-0.61 0.22,-0.16 0.42,-0.28 0.44,-0.27 z"
     id="path1016"
     style="fill:none;stroke:#000000;stroke-opacity:1" />
  <path
     d="m 208.98,419.71 c 0.02,0.01 0.39,0.26 0.82,0.54 0.43,0.28 1.03,0.7 1.33,0.92 0.3,0.22 0.75,0.55 0.99,0.74 0.24,0.19 0.77,0.64 1.18,0.99 0.41,0.36 1.04,0.9 1.39,1.21 0.35,0.32 1.13,1.06 1.71,1.65 0.59,0.59 1.38,1.41 1.76,1.83 0.38,0.42 0.92,1.02 1.2,1.35 0.27,0.32 0.73,0.87 1.01,1.21 0.27,0.34 0.75,0.94 1.06,1.33 0.31,0.4 0.83,1.08 1.15,1.52 0.32,0.44 0.82,1.13 1.1,1.53 0.28,0.39 0.8,1.16 1.17,1.71 0.36,0.54 0.84,1.28 1.07,1.64 0.22,0.35 0.6,0.95 0.83,1.32 0.22,0.36 0.4,0.67 0.4,0.68 -0.01,0 -0.51,0.11 -1.11,0.23 -0.59,0.12 -1.55,0.29 -2.12,0.39 -0.57,0.09 -1.47,0.23 -2,0.31 -0.54,0.07 -1.36,0.18 -1.83,0.23 -0.46,0.06 -1.3,0.15 -1.87,0.2 -0.56,0.05 -1.45,0.12 -1.97,0.15 -0.53,0.04 -1.39,0.08 -1.91,0.1 -0.53,0.03 -1.61,0.04 -2.42,0.04 -0.8,0 -1.85,-0.02 -2.33,-0.04 -0.49,-0.02 -1.17,-0.05 -1.52,-0.07 -0.36,-0.03 -1.01,-0.08 -1.46,-0.12 -0.45,-0.05 -1.11,-0.11 -1.46,-0.16 -0.36,-0.04 -1.05,-0.14 -1.54,-0.21 -0.5,-0.08 -1.37,-0.24 -1.95,-0.35 -0.58,-0.12 -1.44,-0.31 -1.92,-0.43 -0.47,-0.12 -1.24,-0.33 -1.7,-0.47 -0.46,-0.13 -1.16,-0.36 -1.55,-0.5 -0.4,-0.14 -1.09,-0.4 -1.53,-0.58 -0.45,-0.18 -1.09,-0.44 -1.43,-0.59 -0.33,-0.14 -0.99,-0.43 -1.46,-0.64 -0.47,-0.21 -1.25,-0.59 -1.74,-0.83 l -0.89,-0.45 0.3,-0.13 c 0.17,-0.07 0.56,-0.25 0.86,-0.4 0.3,-0.15 0.74,-0.38 0.99,-0.51 0.25,-0.13 0.64,-0.35 0.88,-0.47 0.23,-0.12 0.65,-0.36 0.91,-0.52 0.27,-0.16 0.8,-0.49 1.17,-0.74 0.38,-0.24 0.92,-0.61 1.21,-0.82 0.29,-0.2 0.78,-0.56 1.09,-0.8 0.31,-0.23 0.82,-0.63 1.14,-0.89 0.31,-0.25 0.77,-0.62 1.01,-0.83 0.24,-0.21 0.67,-0.58 0.95,-0.83 0.27,-0.25 0.88,-0.81 1.34,-1.26 0.46,-0.44 1.37,-1.34 2.02,-2 0.66,-0.66 1.53,-1.57 1.95,-2.02 0.42,-0.45 1.03,-1.13 1.36,-1.5 0.34,-0.38 0.82,-0.93 1.08,-1.23 0.26,-0.3 0.64,-0.75 0.85,-1 0.23,-0.28 0.4,-0.45 0.43,-0.43 z"
     id="path1014"
     style="fill:none;stroke:#000000;stroke-opacity:1" />
  <path
     d="m 220.84,389.1 h 0.23 c 0.12,0 0.55,0.02 0.96,0.04 0.41,0.02 1.22,0.05 1.81,0.08 0.59,0.02 1.35,0.06 1.68,0.1 0.33,0.03 0.81,0.07 1.07,0.09 0.26,0.03 0.66,0.09 0.9,0.14 0.23,0.06 0.86,0.18 1.4,0.27 0.53,0.1 1.32,0.25 1.75,0.33 0.43,0.09 1.05,0.22 1.38,0.3 0.34,0.07 0.85,0.2 1.15,0.27 0.3,0.08 0.84,0.22 1.19,0.32 0.36,0.09 0.9,0.25 1.21,0.34 0.31,0.1 0.87,0.28 1.25,0.42 0.51,0.17 0.7,0.25 0.7,0.3 0,0.03 -0.12,0.44 -0.26,0.9 -0.14,0.46 -0.39,1.2 -0.55,1.65 -0.16,0.45 -0.45,1.23 -0.65,1.74 -0.2,0.5 -0.51,1.24 -0.69,1.65 -0.17,0.41 -0.53,1.2 -0.8,1.75 -0.26,0.55 -0.68,1.39 -0.93,1.87 -0.25,0.47 -0.63,1.16 -0.84,1.52 -0.21,0.37 -0.56,0.96 -0.78,1.33 -0.22,0.36 -0.59,0.96 -0.83,1.32 -0.23,0.36 -0.6,0.91 -0.81,1.22 -0.22,0.32 -0.61,0.87 -0.88,1.24 -0.27,0.36 -0.69,0.92 -0.94,1.24 -0.25,0.32 -0.71,0.9 -1.04,1.28 -0.32,0.39 -0.76,0.9 -0.97,1.14 -0.21,0.23 -0.72,0.79 -1.14,1.24 -0.42,0.45 -1.12,1.15 -1.55,1.56 -0.43,0.41 -1.03,0.97 -1.34,1.25 -0.31,0.27 -0.87,0.75 -1.25,1.07 -0.37,0.31 -0.98,0.79 -1.34,1.07 -0.37,0.28 -0.92,0.7 -1.23,0.92 -0.31,0.23 -0.87,0.62 -1.24,0.87 l -0.67,0.46 -0.46,-0.41 c -0.25,-0.23 -0.7,-0.62 -1,-0.86 -0.3,-0.25 -0.8,-0.65 -1.11,-0.89 -0.31,-0.24 -0.87,-0.66 -1.25,-0.93 -0.37,-0.26 -0.89,-0.62 -1.16,-0.79 -0.26,-0.18 -0.47,-0.33 -0.47,-0.35 0,-0.02 0.07,-0.14 0.16,-0.27 0.09,-0.13 0.31,-0.43 0.5,-0.67 0.18,-0.23 0.5,-0.68 0.71,-0.99 0.22,-0.31 0.58,-0.85 0.8,-1.19 0.23,-0.34 0.62,-0.97 0.87,-1.38 0.25,-0.42 0.61,-1.04 0.8,-1.39 0.18,-0.34 0.57,-1.09 0.85,-1.65 0.28,-0.57 0.68,-1.4 0.87,-1.85 0.2,-0.45 0.55,-1.28 0.77,-1.83 0.22,-0.56 0.52,-1.33 0.65,-1.72 0.14,-0.38 0.36,-1.06 0.5,-1.5 0.13,-0.44 0.31,-1.1 0.41,-1.48 0.1,-0.37 0.26,-1.07 0.37,-1.54 0.1,-0.47 0.28,-1.36 0.4,-1.98 0.12,-0.62 0.26,-1.39 0.31,-1.72 0.06,-0.32 0.15,-0.9 0.2,-1.28 0.05,-0.39 0.13,-1.06 0.18,-1.5 0.04,-0.44 0.09,-1.1 0.11,-1.47 0.03,-0.37 0.04,-0.89 0.04,-1.16 z"
     id="path1012"
     style="fill:none;stroke:#000000;stroke-opacity:1" />
  <path
     d="m 126.89,388.28 v 0.44 c 0,0.24 0.02,0.82 0.04,1.28 0.02,0.46 0.08,1.22 0.12,1.69 0.04,0.47 0.12,1.18 0.17,1.58 0.06,0.4 0.15,1.04 0.22,1.44 0.06,0.4 0.2,1.14 0.29,1.66 0.1,0.51 0.24,1.2 0.31,1.54 0.08,0.33 0.22,0.92 0.31,1.3 0.1,0.39 0.25,0.95 0.34,1.25 0.08,0.3 0.27,0.9 0.41,1.34 0.14,0.44 0.38,1.16 0.54,1.6 0.16,0.44 0.42,1.15 0.59,1.57 0.17,0.43 0.46,1.12 0.63,1.52 0.18,0.41 0.58,1.27 0.9,1.91 0.31,0.65 0.73,1.47 0.93,1.83 0.2,0.37 0.53,0.95 0.74,1.29 0.2,0.34 0.51,0.84 0.68,1.11 0.17,0.27 0.57,0.87 0.9,1.34 0.32,0.47 0.73,1.07 0.91,1.33 0.19,0.25 0.59,0.81 0.9,1.23 0.32,0.41 0.67,0.88 0.79,1.04 l 0.22,0.28 -0.65,0.49 c -0.35,0.27 -0.91,0.71 -1.23,0.97 -0.32,0.26 -0.81,0.67 -1.09,0.91 -0.27,0.25 -0.69,0.63 -0.93,0.86 l -0.44,0.42 -0.64,-0.38 c -0.35,-0.22 -1.02,-0.65 -1.48,-0.95 -0.46,-0.3 -1.13,-0.76 -1.48,-1.02 -0.35,-0.25 -0.83,-0.6 -1.05,-0.77 -0.23,-0.17 -0.67,-0.52 -0.99,-0.78 -0.32,-0.25 -0.83,-0.68 -1.15,-0.95 -0.31,-0.27 -0.85,-0.74 -1.19,-1.05 -0.34,-0.31 -0.95,-0.9 -1.36,-1.31 -0.41,-0.41 -1.01,-1.04 -1.34,-1.39 -0.32,-0.35 -0.83,-0.92 -1.12,-1.26 -0.29,-0.35 -0.73,-0.87 -0.97,-1.17 -0.24,-0.3 -0.6,-0.77 -0.81,-1.03 -0.2,-0.27 -0.58,-0.78 -0.83,-1.14 -0.25,-0.35 -0.71,-1.01 -1.01,-1.47 -0.31,-0.46 -0.79,-1.24 -1.08,-1.72 -0.29,-0.48 -0.71,-1.2 -0.93,-1.6 -0.22,-0.39 -0.61,-1.14 -0.87,-1.65 -0.26,-0.51 -0.6,-1.22 -0.76,-1.56 -0.16,-0.34 -0.42,-0.94 -0.59,-1.33 -0.17,-0.39 -0.44,-1.04 -0.6,-1.44 -0.16,-0.4 -0.4,-1.05 -0.54,-1.44 -0.14,-0.38 -0.37,-1.05 -0.51,-1.48 -0.14,-0.43 -0.35,-1.1 -0.47,-1.5 -0.12,-0.41 -0.31,-1.12 -0.43,-1.59 -0.12,-0.48 -0.21,-0.9 -0.21,-0.94 0,-0.05 0.07,-0.09 0.3,-0.17 0.16,-0.05 0.49,-0.15 0.72,-0.22 0.23,-0.06 0.81,-0.21 1.28,-0.33 0.48,-0.11 1.25,-0.29 1.71,-0.39 0.46,-0.09 1.22,-0.24 1.7,-0.33 0.47,-0.08 1.38,-0.23 2,-0.33 0.63,-0.09 1.57,-0.21 2.08,-0.25 0.52,-0.05 1.11,-0.1 1.33,-0.12 0.21,-0.02 0.73,-0.06 1.15,-0.08 0.41,-0.02 0.79,-0.05 0.83,-0.06 0.05,0 0.67,-0.01 1.4,-0.01 z"
     id="path1010"
     style="fill:none;stroke:#000000;stroke-opacity:1" />
  <path
     d="m 173.87,384.93 c 0.02,0 0.13,0.07 0.24,0.15 0.12,0.07 0.26,0.19 0.32,0.24 0.07,0.06 0.28,0.22 0.49,0.35 0.2,0.14 0.46,0.34 0.58,0.45 0.12,0.11 0.32,0.28 0.45,0.38 0.13,0.09 0.35,0.25 0.49,0.34 0.14,0.1 0.53,0.39 0.88,0.66 0.34,0.27 0.78,0.62 0.97,0.78 0.19,0.16 0.52,0.46 0.73,0.66 0.21,0.2 0.44,0.38 0.51,0.41 0.07,0.03 0.6,0.54 1.24,1.18 0.61,0.62 1.44,1.49 1.85,1.95 0.41,0.45 0.92,1.03 1.13,1.28 0.21,0.26 0.51,0.62 0.66,0.81 0.14,0.2 0.41,0.58 0.59,0.86 0.18,0.28 0.56,0.85 0.83,1.28 0.39,0.59 0.5,0.79 0.5,0.87 -0.01,0.1 0,0.11 0.08,0.11 0.09,-0.01 0.13,0.04 0.37,0.48 0.15,0.27 0.58,1.1 0.97,1.86 0.6,1.18 0.73,1.46 0.95,2.1 0.14,0.41 0.33,0.98 0.42,1.27 0.1,0.29 0.27,0.86 0.39,1.27 0.11,0.4 0.28,1.06 0.36,1.46 0.09,0.39 0.21,1.02 0.28,1.4 0.06,0.37 0.15,0.96 0.2,1.3 l 0.08,0.63 -0.02,2.94 c -0.01,1.76 -0.03,3.04 -0.06,3.19 -0.02,0.14 -0.08,0.67 -0.14,1.19 -0.05,0.51 -0.15,1.35 -0.22,1.87 -0.06,0.51 -0.16,1.24 -0.21,1.61 -0.06,0.38 -0.18,1.16 -0.28,1.74 -0.09,0.58 -0.24,1.4 -0.32,1.82 -0.09,0.43 -0.16,0.8 -0.16,0.84 0,0.03 -0.03,0.1 -0.07,0.14 -0.04,0.05 -0.17,0.42 -0.3,0.88 -0.12,0.44 -0.34,1.17 -0.49,1.63 -0.15,0.46 -0.36,1.07 -0.47,1.35 -0.1,0.28 -0.23,0.69 -0.29,0.91 -0.05,0.23 -0.18,0.62 -0.28,0.88 -0.09,0.26 -0.34,0.84 -0.55,1.29 -0.21,0.45 -0.44,0.94 -0.51,1.11 -0.07,0.16 -0.19,0.43 -0.28,0.6 -0.08,0.17 -0.18,0.37 -0.22,0.45 -0.04,0.07 -0.19,0.33 -0.33,0.56 -0.14,0.24 -0.43,0.71 -0.65,1.06 -0.21,0.34 -0.47,0.7 -0.57,0.8 -0.1,0.09 -0.3,0.33 -0.45,0.52 -0.16,0.19 -0.36,0.44 -0.46,0.55 -0.11,0.11 -0.21,0.26 -0.24,0.33 -0.04,0.07 -0.26,0.34 -0.51,0.6 -0.24,0.26 -0.63,0.64 -0.86,0.86 -0.22,0.22 -0.6,0.55 -0.83,0.74 -0.23,0.18 -0.65,0.49 -0.94,0.68 -0.28,0.19 -0.76,0.47 -1.06,0.62 -0.3,0.15 -0.72,0.34 -0.94,0.43 -0.22,0.09 -0.59,0.21 -0.81,0.27 -0.23,0.07 -0.6,0.16 -0.84,0.2 -0.24,0.04 -0.68,0.09 -0.99,0.12 -0.31,0.02 -0.74,0.03 -0.94,0.01 -0.2,-0.01 -0.53,-0.04 -0.72,-0.06 -0.19,-0.02 -0.55,-0.08 -0.8,-0.14 -0.25,-0.05 -0.67,-0.16 -0.93,-0.25 -0.25,-0.08 -0.61,-0.21 -0.79,-0.29 -0.18,-0.07 -0.52,-0.24 -0.77,-0.37 -0.25,-0.13 -0.69,-0.4 -0.99,-0.6 -0.3,-0.2 -0.74,-0.52 -0.98,-0.7 -0.23,-0.19 -0.75,-0.67 -1.15,-1.07 -0.4,-0.41 -0.78,-0.81 -0.84,-0.9 -0.06,-0.1 -0.24,-0.34 -0.4,-0.54 -0.16,-0.21 -0.37,-0.46 -0.47,-0.57 -0.1,-0.11 -0.34,-0.44 -0.54,-0.74 -0.19,-0.3 -0.41,-0.61 -0.47,-0.7 -0.07,-0.09 -0.21,-0.27 -0.31,-0.42 -0.11,-0.14 -0.29,-0.42 -0.41,-0.62 -0.12,-0.2 -0.24,-0.44 -0.28,-0.54 -0.04,-0.09 -0.09,-0.21 -0.12,-0.25 -0.03,-0.05 -0.08,-0.16 -0.11,-0.25 -0.03,-0.09 -0.09,-0.21 -0.13,-0.27 -0.04,-0.06 -0.17,-0.27 -0.27,-0.47 -0.11,-0.19 -0.29,-0.55 -0.4,-0.78 -0.1,-0.23 -0.3,-0.72 -0.44,-1.08 -0.14,-0.36 -0.42,-1.1 -0.62,-1.63 -0.2,-0.54 -0.52,-1.39 -0.71,-1.9 -0.23,-0.63 -0.43,-1.29 -0.64,-2.08 -0.17,-0.64 -0.37,-1.41 -0.45,-1.71 -0.07,-0.3 -0.2,-0.85 -0.27,-1.22 -0.08,-0.38 -0.18,-0.92 -0.24,-1.21 -0.05,-0.29 -0.13,-0.77 -0.17,-1.06 -0.05,-0.3 -0.19,-1.59 -0.32,-2.87 -0.16,-1.63 -0.23,-2.51 -0.23,-2.9 0,-0.3 -0.03,-0.83 -0.06,-1.18 -0.03,-0.34 -0.07,-1.15 -0.08,-1.79 -0.02,-0.76 -0.01,-1.39 0.02,-1.81 0.03,-0.36 0.09,-0.97 0.14,-1.36 0.06,-0.4 0.18,-1.11 0.27,-1.58 0.1,-0.47 0.27,-1.22 0.39,-1.66 0.12,-0.44 0.35,-1.19 0.52,-1.67 0.16,-0.48 0.32,-0.94 0.36,-1.01 0.04,-0.08 0.15,-0.32 0.24,-0.53 0.1,-0.22 0.23,-0.53 0.3,-0.71 0.07,-0.17 0.3,-0.66 0.51,-1.09 0.2,-0.42 0.46,-0.92 0.56,-1.1 0.11,-0.18 0.2,-0.34 0.2,-0.35 0.01,0 0.07,0.03 0.13,0.07 0.09,0.07 0.12,0.08 0.12,0.03 0,-0.03 -0.02,-0.08 -0.06,-0.11 -0.03,-0.02 -0.05,-0.08 -0.04,-0.11 0.01,-0.04 0.29,-0.53 0.63,-1.1 0.34,-0.56 0.78,-1.27 0.99,-1.57 0.2,-0.3 0.51,-0.74 0.68,-0.97 0.18,-0.24 0.57,-0.74 0.87,-1.11 0.3,-0.38 0.9,-1.1 1.34,-1.6 0.44,-0.5 1.08,-1.21 1.43,-1.57 0.36,-0.36 1.1,-1.07 1.66,-1.56 0.56,-0.5 1.13,-1 1.27,-1.12 0.14,-0.12 0.38,-0.32 0.54,-0.45 0.16,-0.13 0.42,-0.34 0.56,-0.47 0.15,-0.13 0.45,-0.34 0.68,-0.48 0.22,-0.13 0.52,-0.35 0.67,-0.48 0.14,-0.14 0.38,-0.34 0.54,-0.47 0.16,-0.12 0.3,-0.22 0.32,-0.22 z"
     id="path1008"
     style="fill:none;stroke:#000000;stroke-opacity:1" />
  <path
     d="m 517.7,383.85 h 5.31 c 5.02,0 7.7,3.23 7.7,9.43 0,5.75 -2.57,9.66 -7.65,9.66 H 521 c -2.52,-0.06 -3.3,-1.95 -3.3,-3.91 z"
     id="path1006"
     style="fill:none;fill-opacity:1;stroke:#000000;stroke-opacity:1" />
  <path
     d="m 217.76,377.88 0.06,0.28 c 0.04,0.16 0.09,0.43 0.13,0.62 0.03,0.18 0.11,0.7 0.17,1.15 0.06,0.45 0.16,1.24 0.21,1.77 0.06,0.52 0.13,1.32 0.16,1.77 0.03,0.45 0.08,1.16 0.1,1.58 0.02,0.41 0.04,1.45 0.04,2.3 0,0.84 -0.02,1.86 -0.04,2.26 -0.02,0.39 -0.07,1.05 -0.1,1.46 -0.03,0.4 -0.09,1.04 -0.14,1.42 -0.04,0.37 -0.13,1.06 -0.19,1.52 -0.07,0.46 -0.19,1.22 -0.28,1.69 -0.08,0.47 -0.22,1.18 -0.3,1.58 -0.09,0.39 -0.26,1.1 -0.37,1.57 -0.12,0.46 -0.35,1.3 -0.51,1.87 -0.16,0.56 -0.4,1.33 -0.53,1.71 -0.13,0.38 -0.35,1 -0.49,1.36 -0.14,0.37 -0.38,0.97 -0.54,1.34 -0.15,0.36 -0.41,0.94 -0.57,1.28 -0.15,0.35 -0.5,1.06 -0.77,1.6 -0.27,0.54 -0.62,1.2 -0.78,1.48 -0.15,0.28 -0.47,0.81 -0.7,1.17 -0.23,0.36 -0.68,1.07 -1,1.56 -0.33,0.5 -0.67,1.01 -0.76,1.14 -0.1,0.12 -0.33,0.44 -0.52,0.71 -0.19,0.27 -1.03,1.4 -1.86,2.51 -0.84,1.11 -1.78,2.33 -2.1,2.71 -0.31,0.37 -0.82,0.97 -1.13,1.32 -0.31,0.35 -0.77,0.87 -1.02,1.15 -0.26,0.28 -0.9,0.97 -1.44,1.53 -0.54,0.57 -1.39,1.43 -1.9,1.91 -0.5,0.49 -1.13,1.09 -1.4,1.34 -0.27,0.24 -0.71,0.65 -0.99,0.89 -0.28,0.25 -0.75,0.66 -1.05,0.92 -0.3,0.25 -0.82,0.68 -1.15,0.95 -0.33,0.27 -0.85,0.68 -1.15,0.9 -0.3,0.23 -0.78,0.57 -1.07,0.78 -0.29,0.2 -0.74,0.51 -1,0.69 -0.27,0.17 -0.78,0.5 -1.15,0.74 -0.37,0.23 -0.92,0.56 -1.22,0.73 -0.3,0.18 -0.82,0.46 -1.14,0.64 -0.33,0.17 -0.61,0.31 -0.62,0.3 -0.01,-0.01 0.11,-0.32 0.26,-0.68 0.15,-0.36 0.32,-0.77 0.38,-0.91 0.05,-0.14 0.23,-0.61 0.4,-1.05 0.16,-0.44 0.43,-1.12 0.58,-1.52 0.16,-0.39 0.39,-1.03 0.51,-1.4 0.13,-0.38 0.33,-1.01 0.44,-1.4 0.12,-0.4 0.28,-0.97 0.35,-1.27 0.08,-0.3 0.19,-0.78 0.25,-1.07 0.07,-0.29 0.22,-1.04 0.34,-1.67 0.12,-0.63 0.28,-1.51 0.35,-1.95 0.08,-0.44 0.2,-1.29 0.27,-1.89 0.08,-0.6 0.17,-1.48 0.22,-1.95 0.04,-0.47 0.1,-1.23 0.14,-1.7 0.05,-0.63 0.07,-1.51 0.08,-3.6 0.01,-2.35 0.01,-2.87 -0.04,-3.41 -0.04,-0.35 -0.1,-0.88 -0.14,-1.18 -0.05,-0.3 -0.15,-0.9 -0.24,-1.33 -0.09,-0.43 -0.26,-1.18 -0.38,-1.67 -0.13,-0.5 -0.31,-1.18 -0.41,-1.53 -0.1,-0.35 -0.38,-1.13 -0.61,-1.75 -0.23,-0.61 -0.56,-1.43 -0.72,-1.82 -0.17,-0.39 -0.47,-1.04 -0.68,-1.45 -0.22,-0.41 -0.58,-1.04 -0.8,-1.4 -0.23,-0.37 -0.5,-0.81 -0.59,-0.99 -0.1,-0.18 -0.24,-0.4 -0.31,-0.49 l -0.13,-0.17 0.07,-0.09 c 0.04,-0.05 0.08,-0.12 0.1,-0.16 0.01,-0.04 0.16,-0.27 0.33,-0.51 0.17,-0.24 0.52,-0.7 0.77,-1.02 0.26,-0.33 0.89,-1.09 1.42,-1.7 0.52,-0.6 1.14,-1.3 1.38,-1.55 0.23,-0.24 0.69,-0.69 1.01,-0.99 0.32,-0.3 0.84,-0.77 1.15,-1.05 0.32,-0.27 0.8,-0.68 1.08,-0.9 0.27,-0.23 0.87,-0.69 1.32,-1.03 0.45,-0.34 1.22,-0.89 1.71,-1.22 0.49,-0.33 1.19,-0.78 1.54,-0.99 0.36,-0.22 0.96,-0.57 1.35,-0.78 0.38,-0.22 1.05,-0.57 1.48,-0.79 0.44,-0.21 1.08,-0.52 1.43,-0.68 0.36,-0.16 1.04,-0.45 1.53,-0.65 0.49,-0.19 1.38,-0.52 1.98,-0.72 0.6,-0.2 1.43,-0.48 1.84,-0.6 0.42,-0.13 1,-0.3 1.29,-0.37 0.29,-0.07 0.73,-0.18 0.98,-0.23 0.25,-0.06 0.87,-0.2 1.38,-0.32 0.52,-0.11 1.09,-0.23 1.27,-0.26 0.18,-0.04 0.74,-0.11 1.24,-0.16 0.51,-0.06 1.09,-0.12 1.29,-0.14 0.2,-0.01 0.43,-0.03 0.51,-0.04 v 0.01 z"
     id="path1004"
     style="fill:none;stroke:#000000;stroke-opacity:1" />
  <path
     d="m 129.56,377.75 0.54,0.03 c 0.3,0.01 0.83,0.05 1.17,0.1 0.35,0.04 1.07,0.15 1.62,0.24 0.55,0.08 1.27,0.21 1.62,0.29 0.34,0.08 1.07,0.25 1.61,0.39 0.55,0.13 1.4,0.37 1.89,0.52 0.49,0.15 1.22,0.38 1.62,0.52 0.4,0.14 0.96,0.34 1.26,0.45 0.3,0.12 0.81,0.32 1.14,0.45 0.32,0.14 0.81,0.35 1.09,0.47 0.27,0.12 0.94,0.44 1.48,0.7 0.53,0.27 1.24,0.64 1.57,0.82 0.34,0.19 0.89,0.5 1.23,0.71 0.34,0.2 1.03,0.64 1.52,0.97 0.5,0.32 1.25,0.85 1.68,1.18 0.43,0.32 0.99,0.75 1.25,0.96 0.25,0.21 0.7,0.59 1,0.86 0.3,0.26 0.84,0.75 1.2,1.09 0.35,0.34 0.82,0.8 1.03,1.03 0.22,0.22 0.78,0.85 1.25,1.39 0.47,0.54 1.14,1.32 1.49,1.73 0.34,0.42 0.76,0.94 0.92,1.16 0.15,0.23 0.36,0.55 0.46,0.73 0.1,0.17 0.25,0.38 0.34,0.46 l 0.16,0.15 -0.06,0.1 c -0.04,0.05 -0.15,0.25 -0.24,0.43 -0.09,0.18 -0.2,0.42 -0.23,0.53 -0.03,0.11 -0.09,0.26 -0.12,0.35 -0.03,0.08 -0.14,0.3 -0.24,0.48 -0.1,0.19 -0.46,0.9 -0.79,1.58 -0.33,0.69 -0.68,1.44 -0.77,1.67 -0.1,0.24 -0.26,0.68 -0.37,0.98 -0.11,0.3 -0.28,0.84 -0.39,1.19 -0.11,0.35 -0.29,1.01 -0.4,1.46 -0.12,0.45 -0.28,1.17 -0.37,1.6 -0.08,0.43 -0.2,1.08 -0.25,1.46 -0.06,0.37 -0.13,1 -0.17,1.4 -0.05,0.58 -0.07,1.13 -0.07,2.83 0,1.71 0.02,2.22 0.07,2.76 0.04,0.36 0.09,0.94 0.12,1.29 0.04,0.34 0.07,0.76 0.08,0.93 0.02,0.17 0.08,0.74 0.14,1.26 0.07,0.52 0.16,1.25 0.22,1.61 0.05,0.37 0.15,1.03 0.23,1.45 0.07,0.43 0.22,1.22 0.33,1.76 0.11,0.53 0.39,1.74 0.62,2.69 0.24,0.94 0.49,1.88 0.55,2.1 0.06,0.21 0.31,0.97 0.55,1.67 0.25,0.71 0.54,1.52 0.65,1.8 0.12,0.27 0.4,0.87 0.63,1.32 0.23,0.45 0.46,0.91 0.52,1.01 0.05,0.11 0.27,0.56 0.49,1 l 0.38,0.81 -0.26,-0.1 c -0.14,-0.05 -0.51,-0.2 -0.82,-0.33 -0.31,-0.13 -1.01,-0.47 -1.56,-0.74 -0.55,-0.27 -1.34,-0.7 -1.77,-0.95 -0.43,-0.25 -1.11,-0.67 -1.52,-0.94 -0.4,-0.26 -1.1,-0.74 -1.55,-1.07 -0.46,-0.32 -1.09,-0.78 -1.42,-1.04 -0.32,-0.25 -0.85,-0.67 -1.18,-0.94 -0.32,-0.26 -0.87,-0.72 -1.22,-1.03 -0.34,-0.3 -0.99,-0.89 -1.43,-1.29 -0.44,-0.41 -1.28,-1.22 -1.87,-1.81 -0.59,-0.59 -1.43,-1.46 -1.87,-1.93 -0.44,-0.47 -1.08,-1.16 -1.42,-1.54 -0.34,-0.37 -1.02,-1.15 -1.52,-1.73 -0.49,-0.58 -1.12,-1.32 -1.39,-1.66 -0.27,-0.33 -0.86,-1.1 -1.32,-1.71 -0.46,-0.61 -0.98,-1.3 -1.15,-1.54 -0.17,-0.24 -0.55,-0.77 -0.84,-1.19 -0.29,-0.41 -0.74,-1.07 -0.99,-1.46 -0.26,-0.39 -0.63,-0.97 -0.83,-1.29 -0.19,-0.32 -0.55,-0.98 -0.81,-1.46 -0.25,-0.48 -0.63,-1.23 -0.84,-1.68 -0.21,-0.44 -0.54,-1.19 -0.74,-1.65 -0.2,-0.47 -0.5,-1.2 -0.67,-1.63 -0.17,-0.43 -0.43,-1.14 -0.59,-1.58 -0.15,-0.44 -0.35,-1.03 -0.44,-1.3 -0.08,-0.28 -0.24,-0.84 -0.35,-1.25 -0.11,-0.41 -0.27,-1.05 -0.35,-1.43 -0.09,-0.38 -0.23,-1.04 -0.32,-1.46 -0.08,-0.42 -0.22,-1.17 -0.31,-1.67 -0.08,-0.49 -0.2,-1.27 -0.27,-1.73 -0.06,-0.46 -0.15,-1.16 -0.19,-1.56 -0.04,-0.4 -0.11,-1.06 -0.14,-1.48 -0.03,-0.42 -0.08,-1.05 -0.1,-1.4 -0.02,-0.35 -0.04,-1.51 -0.04,-2.57 0,-1.06 0.02,-2.22 0.04,-2.57 0.02,-0.36 0.08,-1.03 0.12,-1.5 0.04,-0.47 0.11,-1.15 0.16,-1.5 0.04,-0.36 0.12,-0.93 0.17,-1.27 0.05,-0.34 0.15,-0.92 0.22,-1.28 z"
     id="path1002"
     style="fill:none;stroke:#000000;stroke-opacity:1" />
  <path
     d="m 822.45,374.97 5.75,14.52 h -11.67 z"
     id="path1000"
     style="fill:none;fill-opacity:1;stroke:#000000;stroke-opacity:1" />
  <path
     d="m 521,366.93 h 1.45 c 4.07,0 6.31,2.35 6.31,6.76 0,5.64 -2.91,8.26 -7.26,8.26 h -3.8 v -11.16 c 0,-1.9 0.78,-3.86 3.3,-3.86 z"
     id="path998"
     style="fill:none;fill-opacity:1;stroke:#000000;stroke-opacity:1" />
  <path
     d="m 601.41,365.76 c 7.53,0 11.89,8.6 11.89,19.15 0,10.55 -4.3,19.15 -11.89,19.15 -7.54,0 -11.95,-8.6 -11.95,-19.15 0,-10.55 4.36,-19.15 11.95,-19.15 z"
     id="path996"
     style="fill:none;fill-opacity:1;stroke:#000000;stroke-opacity:1" />
  <path
     d="m 343.73,365.76 c 7.54,0 11.89,8.6 11.89,19.15 0,10.55 -4.3,19.15 -11.89,19.15 -7.53,0 -11.94,-8.6 -11.94,-19.15 0,-10.55 4.35,-19.15 11.94,-19.15 z"
     id="path994"
     style="stroke:#000000;stroke-opacity:1;fill:none" />
  <path
     d="m 877.09,365.09 v 1.06 c 3.01,0 5.13,1.79 5.13,4.97 v 28.3 c 0,3.24 -2.12,4.25 -5.13,4.25 v 1.06 h 11.94 v -1.06 c -2.96,0 -5.13,-1.01 -5.13,-4.25 v -26.85 l 26.29,32.16 h 1.67 v -34.34 c 0,-3.18 2.18,-4.24 5.14,-4.24 v -1.06 h -11.95 v 1.06 c 2.96,0 5.14,1.06 5.14,4.24 v 22.06 l -22.61,-27.36 z"
     id="path992"
     style="fill:none;fill-opacity:1;stroke:#000000;stroke-opacity:1" />
  <path
     d="m 852.35,365.09 v 1.06 c 3.01,0 4.74,1.06 4.74,4.24 v 29.03 c 0,3.18 -1.73,4.25 -4.74,4.25 v 1.06 h 17.25 v -1.06 c -2.96,0 -4.75,-1.07 -4.75,-4.25 v -29.03 c 0,-3.18 1.79,-4.24 4.75,-4.24 v -1.06 z"
     id="path990"
     style="fill:none;fill-opacity:1;stroke:#000000;stroke-opacity:1" />
  <path
     d="m 756.17,365.09 v 1.06 c 3.02,0 4.75,1.01 4.75,4.19 v 29.08 c 0,3.24 -1.73,4.25 -4.75,4.25 v 1.06 h 17.25 v -1.06 c -2.96,0 -4.74,-1.01 -4.74,-4.25 v -13.95 h 17.36 v 13.95 c 0,3.24 -1.73,4.25 -4.75,4.25 v 1.06 h 17.31 v -1.06 c -3.02,0 -4.75,-1.01 -4.75,-4.25 v -29.08 c 0,-3.18 1.73,-4.19 4.75,-4.19 v -1.06 h -17.31 v 1.06 c 3.02,0 4.75,1.01 4.75,4.19 v 13.45 h -17.36 v -13.45 c 0,-3.18 1.78,-4.19 4.74,-4.19 v -1.06 z"
     id="path988"
     style="fill:none;fill-opacity:1;stroke:#000000;stroke-opacity:1" />
  <path
     d="m 696.04,365.09 v 1.06 c 2.01,0 3.46,0.39 3.8,1.29 0.22,0.44 0.16,1.06 -0.9,2.17 l -13.28,14.8 13.95,20.32 h 12.45 v -1.06 c -3.12,0 -5.19,-2.13 -7.2,-4.58 l -13.4,-18.59 10.22,-11.33 c 1.95,-1.96 3.85,-3.02 6.59,-3.02 v -1.06 z"
     id="path986"
     style="fill:none;fill-opacity:1;stroke:#000000;stroke-opacity:1" />
  <path
     d="m 672.32,365.09 v 1.01 c 3.01,0 4.74,1.06 4.74,4.24 v 29.08 c 0,3.18 -1.73,4.25 -4.74,4.25 v 1.06 h 17.24 v -1.06 c -2.95,0 -4.74,-1.07 -4.74,-4.25 v -29.08 c 0,-3.18 1.79,-4.24 4.74,-4.24 v -1.01 z"
     id="path984"
     style="fill:none;fill-opacity:1;stroke:#000000;stroke-opacity:1" />
  <path
     d="m 545.88,365.09 v 1.06 c 3.01,0 4.74,1.06 4.74,4.24 v 29.03 c 0,3.18 -1.73,4.25 -4.74,4.25 v 1.06 h 28.63 l 1.57,-9.55 -1.06,-0.22 c -1.57,4.85 -4.41,8.09 -9.49,8.09 h -3.63 c -1.9,0 -3.52,-0.67 -3.52,-3.63 v -29.03 c 0,-3.18 1.79,-4.24 4.75,-4.24 v -1.06 z"
     id="path982"
     style="fill:none;fill-opacity:1;stroke:#000000;stroke-opacity:1" />
  <path
     d="m 505.37,365.09 v 1.06 c 3.01,0 4.74,1.06 4.74,4.24 v 29.03 c 0,3.18 -1.73,4.25 -4.74,4.25 v 1.06 h 20.71 c 8.26,0 12.61,-4.97 12.61,-11 0,-6.25 -4.63,-9.77 -10.99,-11.05 4.52,-1.51 8.26,-4.69 8.26,-8.88 0,-5.14 -3.86,-8.71 -12.17,-8.71 z"
     id="path980"
     style="fill:none;fill-opacity:1;stroke:#000000;stroke-opacity:1" />
  <path
     d="m 408.62,365.09 v 1.06 c 3.01,0 4.74,1.01 4.74,4.19 v 18.09 c 0,9.65 4.19,17.41 15.13,17.41 10.94,0 14.74,-6.08 14.74,-17.25 v -18.25 c 0,-3.18 2.17,-4.19 5.13,-4.19 v -1.06 h -11.94 v 1.06 c 2.96,0 5.13,1.01 5.13,4.19 v 18.25 c 0,10.89 -4.02,15.3 -11.16,15.3 -5.53,0 -9.27,-3.52 -9.27,-15.46 v -18.09 c 0,-3.18 1.79,-4.19 4.75,-4.19 v -1.06 z"
     id="path978"
     style="stroke:#000000;stroke-opacity:1;fill:none" />
  <path
     d="m 369.9,365.09 -0.67,9.21 1.06,0.17 c 1.23,-4.75 3.58,-7.7 8.66,-7.7 h 3.46 v 32.65 c 0,3.24 -1.79,4.25 -4.75,4.25 v 1.06 h 17.25 v -1.06 c -3.01,0 -4.74,-1.01 -4.74,-4.25 v -32.65 h 3.46 c 5.08,0 7.42,2.95 8.59,7.7 l 1.12,-0.17 -0.67,-9.21 z"
     id="path976"
     style="stroke:#000000;stroke-opacity:1;fill:none" />
  <path
     d="m 288.2,365.09 v 1.06 c 3.02,0 4.75,1.06 4.75,4.24 v 29.03 c 0,3.18 -1.73,4.25 -4.75,4.25 v 1.06 h 28.64 l 1.56,-9.55 -1.06,-0.22 c -1.56,4.85 -4.41,8.09 -9.49,8.09 h -3.63 c -1.9,0 -3.51,-0.67 -3.51,-3.63 v -29.03 c 0,-3.18 1.78,-4.24 4.74,-4.24 v -1.06 z"
     id="path974"
     style="stroke:#000000;stroke-opacity:1;fill:none" />
  <path
     d="m 825.24,363.97 -14.79,35.23 c -1.45,3.29 -2.4,4.47 -6.31,4.47 v 1.06 h 11.95 v -1.06 c -2.18,0 -3.3,-0.28 -3.85,-0.95 -0.51,-0.56 -0.28,-1.73 0.5,-3.69 l 3.12,-7.87 h 13.01 l 3.24,8.26 c 0.84,2.07 0.89,2.9 0.56,3.46 -0.5,0.73 -1.51,0.79 -3.19,0.79 v 1.06 h 17.31 v -1.06 c -3.35,0 -4.69,-1.79 -6.31,-5.42 l -13.95,-34.28 z"
     id="path972"
     style="fill:none;fill-opacity:1;stroke:#000000;stroke-opacity:1" />
  <path
     d="m 735.33,363.97 c -12.67,0 -21.38,8.82 -21.38,20.94 0,11.55 8.21,20.93 21.38,20.93 5.08,0 10.55,-1.89 12.06,-2.84 l 1.28,-9.33 -1.06,-0.28 c -2.34,7.93 -7.48,10.67 -12.45,10.67 -7.03,0 -12.5,-8.55 -12.5,-19.15 0,-10.55 5.64,-19.15 13.29,-19.15 5.58,0 9.54,3.74 11.89,11.67 l 1.06,-0.22 -0.84,-10.17 c -2.9,-1.22 -6.75,-3.07 -12.73,-3.07 z"
     id="path970"
     style="fill:none;fill-opacity:1;stroke:#000000;stroke-opacity:1" />
  <path
     d="m 651.48,363.97 c -12.68,0 -21.38,8.82 -21.38,20.94 0,11.55 8.2,20.93 21.38,20.93 5.08,0 10.55,-1.89 12.05,-2.84 l 1.29,-9.33 -1.06,-0.28 c -2.35,7.93 -7.48,10.67 -12.45,10.67 -7.04,0 -12.51,-8.55 -12.51,-19.15 0,-10.55 5.64,-19.15 13.29,-19.15 5.58,0 9.55,3.74 11.89,11.67 l 1.06,-0.22 -0.84,-10.17 c -2.9,-1.22 -6.75,-3.07 -12.72,-3.07 z"
     id="path968"
     style="fill:none;fill-opacity:1;stroke:#000000;stroke-opacity:1" />
  <path
     d="m 601.41,363.97 c -11.95,0 -20.66,9.38 -20.66,20.94 0,11.55 8.71,20.93 20.66,20.93 11.94,0 20.65,-9.38 20.65,-20.93 0,-11.56 -8.71,-20.94 -20.65,-20.94 z"
     id="path966"
     style="fill:none;fill-opacity:1;stroke:#000000;stroke-opacity:1" />
  <path
     d="m 466.87,363.97 c -9.05,0 -12.28,6.93 -12.28,10.61 0,4.13 1.5,7.37 8.87,12.12 4.97,3.12 8.04,5.74 8.04,10.66 0,3.85 -2.34,6.7 -6.59,6.7 -4.91,0 -8.98,-3.47 -11.33,-11.39 l -1.06,0.28 1.4,10.05 c 0,0 4.63,2.84 11.16,2.84 8.38,0 13.57,-6.08 13.57,-12.11 0,-5.42 -3.69,-8.88 -9.88,-12.56 -5.98,-3.57 -7.93,-6.03 -7.93,-9.6 0,-2.85 2.07,-5.81 5.86,-5.81 4.08,0 7.48,3.29 9.21,9.04 l 1.06,-0.22 -1.17,-8.6 c -1.62,-0.83 -4.52,-2.01 -8.93,-2.01 z"
     id="path964"
     style="stroke:#000000;stroke-opacity:1;fill:none" />
  <path
     d="m 343.73,363.97 c -11.94,0 -20.65,9.38 -20.65,20.94 0,11.55 8.71,20.93 20.65,20.93 11.95,0 20.66,-9.38 20.66,-20.93 0,-11.56 -8.71,-20.94 -20.66,-20.94 z"
     id="path962"
     style="stroke:#000000;stroke-opacity:1;fill:none" />
  <path
     d="m 115.51,363.31 h 0.01 c 0.06,0 0.42,0.03 0.8,0.06 0.39,0.03 1.07,0.11 1.53,0.16 0.46,0.05 1.2,0.15 1.64,0.21 0.44,0.07 1.16,0.18 1.6,0.26 0.44,0.07 1.15,0.2 1.59,0.29 0.44,0.09 1.24,0.25 1.78,0.37 0.53,0.12 1.39,0.32 1.91,0.45 0.51,0.13 1.42,0.36 2.02,0.52 0.6,0.17 1.42,0.41 1.81,0.53 0.4,0.13 1.02,0.35 1.39,0.49 0.36,0.14 0.94,0.34 1.28,0.46 0.34,0.11 1.12,0.4 1.73,0.63 0.61,0.24 1.37,0.54 1.68,0.67 0.31,0.13 0.77,0.32 1.03,0.43 0.26,0.12 0.83,0.37 1.26,0.58 0.44,0.2 1.26,0.6 1.83,0.88 0.57,0.29 1.34,0.69 1.7,0.88 0.37,0.2 1.08,0.6 1.58,0.89 0.5,0.29 1.3,0.76 1.77,1.05 0.47,0.29 1.42,0.9 2.11,1.35 0.68,0.46 1.59,1.08 2.02,1.39 0.43,0.3 1.17,0.84 1.64,1.19 0.47,0.36 1.24,0.95 1.7,1.32 0.47,0.37 1.18,0.95 1.58,1.29 0.4,0.34 1.07,0.91 1.49,1.28 0.42,0.36 0.98,0.86 1.24,1.11 0.27,0.25 0.84,0.79 1.27,1.21 0.42,0.41 1.44,1.44 2.26,2.28 0.81,0.83 1.78,1.84 2.15,2.24 0.36,0.39 0.87,0.94 1.11,1.22 l 0.45,0.51 -0.5,0.54 c -0.28,0.3 -0.71,0.79 -0.95,1.09 -0.24,0.3 -0.73,0.94 -1.09,1.42 -0.35,0.47 -0.66,0.86 -0.67,0.86 -0.02,0 -0.09,-0.09 -0.17,-0.2 -0.07,-0.11 -0.34,-0.49 -0.6,-0.83 -0.26,-0.34 -0.77,-1 -1.13,-1.46 -0.36,-0.46 -0.77,-0.98 -0.91,-1.15 -0.13,-0.17 -0.46,-0.54 -0.72,-0.82 -0.25,-0.29 -0.73,-0.77 -1.07,-1.07 -0.33,-0.31 -0.8,-0.74 -1.04,-0.95 -0.24,-0.22 -0.72,-0.64 -1.06,-0.95 -0.34,-0.3 -0.84,-0.73 -1.12,-0.96 -0.28,-0.23 -0.81,-0.64 -1.17,-0.91 -0.36,-0.28 -0.89,-0.66 -1.17,-0.85 -0.28,-0.2 -0.78,-0.53 -1.11,-0.74 -0.33,-0.22 -0.84,-0.53 -1.13,-0.71 -0.29,-0.17 -0.85,-0.49 -1.25,-0.71 -0.39,-0.21 -1.1,-0.58 -1.57,-0.81 -0.47,-0.24 -1.17,-0.56 -1.54,-0.73 -0.38,-0.16 -1.03,-0.44 -1.46,-0.61 -0.43,-0.17 -0.97,-0.38 -1.21,-0.46 -0.23,-0.09 -0.87,-0.31 -1.4,-0.5 -0.54,-0.19 -1.2,-0.41 -1.48,-0.5 -0.28,-0.09 -0.76,-0.23 -1.06,-0.32 -0.31,-0.08 -1.03,-0.26 -1.6,-0.38 -0.57,-0.13 -1.25,-0.27 -1.51,-0.32 -0.26,-0.04 -0.78,-0.12 -1.17,-0.18 -0.38,-0.06 -0.92,-0.16 -1.19,-0.24 -0.27,-0.07 -0.78,-0.19 -1.15,-0.26 -0.36,-0.07 -0.89,-0.16 -1.18,-0.2 -0.34,-0.05 -0.8,-0.07 -1.3,-0.07 h -0.77 l -0.14,0.4 c -0.07,0.23 -0.21,0.79 -0.31,1.25 -0.09,0.46 -0.23,1.21 -0.3,1.66 -0.08,0.45 -0.19,1.14 -0.24,1.54 -0.05,0.39 -0.13,0.94 -0.16,1.22 -0.03,0.28 -0.09,0.92 -0.13,1.42 -0.04,0.51 -0.09,1.07 -0.1,1.26 l -0.03,0.34 h -1.14 c -0.62,0 -1.52,0.02 -1.99,0.04 -0.47,0.02 -1.13,0.05 -1.46,0.08 -0.33,0.02 -0.67,0.06 -0.76,0.08 -0.08,0.02 -0.18,0.04 -0.21,0.05 -0.03,0 -0.13,-0.18 -0.26,-0.48 -0.12,-0.27 -0.43,-1.03 -0.7,-1.7 -0.26,-0.66 -0.63,-1.62 -0.81,-2.12 -0.18,-0.51 -0.46,-1.32 -0.62,-1.81 -0.16,-0.49 -0.46,-1.47 -0.66,-2.16 -0.21,-0.7 -0.47,-1.63 -0.6,-2.07 -0.12,-0.44 -0.33,-1.25 -0.46,-1.81 -0.14,-0.56 -0.34,-1.43 -0.45,-1.93 -0.1,-0.5 -0.27,-1.35 -0.37,-1.89 -0.09,-0.53 -0.23,-1.32 -0.29,-1.75 -0.06,-0.43 -0.16,-1.14 -0.21,-1.58 -0.06,-0.44 -0.13,-1.1 -0.16,-1.48 -0.03,-0.37 -0.06,-0.7 -0.06,-0.73 0,-0.03 0.05,-0.05 0.11,-0.05 z"
     id="path960"
     style="fill:none;stroke:#000000;stroke-opacity:1" />
  <path
     d="m 233.1,363.16 c 0.05,0 0.09,0.01 0.09,0.04 0,0.02 -0.02,0.3 -0.06,0.61 -0.03,0.32 -0.09,0.85 -0.14,1.2 -0.04,0.34 -0.14,1.01 -0.21,1.5 -0.08,0.48 -0.2,1.2 -0.28,1.59 -0.07,0.4 -0.23,1.16 -0.35,1.7 -0.11,0.53 -0.3,1.32 -0.41,1.75 -0.1,0.43 -0.29,1.13 -0.4,1.56 -0.12,0.42 -0.31,1.09 -0.43,1.48 -0.12,0.38 -0.36,1.13 -0.53,1.65 -0.17,0.53 -0.46,1.37 -0.65,1.87 -0.18,0.51 -0.5,1.38 -0.73,1.93 -0.22,0.56 -0.56,1.4 -0.77,1.87 -0.2,0.47 -0.5,1.16 -0.67,1.52 -0.16,0.37 -0.48,1.04 -0.7,1.49 l -0.4,0.83 -0.17,-0.02 c -0.09,-0.01 -0.65,-0.06 -1.24,-0.1 -0.59,-0.04 -1.52,-0.09 -2.06,-0.11 -0.55,-0.03 -1.25,-0.05 -1.56,-0.06 h -0.57 l -0.02,-0.55 c -0.02,-0.3 -0.05,-0.87 -0.07,-1.27 -0.03,-0.39 -0.08,-1.08 -0.12,-1.53 -0.05,-0.45 -0.12,-1.1 -0.16,-1.44 -0.04,-0.35 -0.12,-0.92 -0.18,-1.27 -0.05,-0.36 -0.16,-0.97 -0.23,-1.36 -0.08,-0.4 -0.19,-0.95 -0.25,-1.23 -0.06,-0.28 -0.17,-0.68 -0.25,-0.9 l -0.13,-0.39 -0.95,0.01 c -0.52,0 -1.18,0.02 -1.46,0.05 -0.27,0.02 -0.79,0.08 -1.14,0.12 -0.36,0.04 -1.05,0.14 -1.54,0.22 -0.5,0.07 -1.5,0.26 -2.24,0.4 -0.74,0.15 -1.65,0.35 -2.03,0.45 -0.37,0.09 -0.92,0.25 -1.22,0.35 -0.3,0.09 -0.72,0.23 -0.92,0.3 -0.2,0.08 -0.85,0.32 -1.44,0.55 -0.59,0.22 -1.39,0.54 -1.77,0.7 -0.39,0.16 -1.04,0.45 -1.45,0.63 -0.4,0.19 -1.13,0.54 -1.61,0.78 -0.48,0.25 -1.23,0.64 -1.65,0.88 -0.43,0.23 -1.04,0.59 -1.36,0.78 -0.33,0.2 -1.02,0.64 -1.55,0.99 -0.53,0.35 -1.25,0.84 -1.61,1.11 -0.37,0.26 -0.89,0.65 -1.17,0.87 -0.28,0.22 -0.71,0.56 -0.96,0.77 -0.25,0.2 -0.7,0.61 -1,0.89 -0.31,0.29 -0.99,0.93 -1.5,1.44 -0.52,0.5 -1.18,1.17 -1.46,1.48 -0.29,0.31 -0.78,0.87 -1.08,1.23 -0.31,0.37 -0.76,0.94 -1.02,1.27 -0.26,0.34 -0.54,0.72 -0.64,0.85 -0.09,0.13 -0.18,0.23 -0.2,0.22 -0.02,-0.02 -0.17,-0.2 -0.33,-0.42 -0.17,-0.22 -0.48,-0.62 -0.69,-0.89 -0.22,-0.27 -0.56,-0.68 -0.76,-0.91 -0.2,-0.24 -0.61,-0.68 -0.9,-0.99 l -0.52,-0.55 0.19,-0.22 c 0.11,-0.12 0.37,-0.43 0.6,-0.67 0.22,-0.25 0.77,-0.85 1.22,-1.33 0.46,-0.48 1.62,-1.68 2.59,-2.66 0.98,-0.98 1.91,-1.89 2.09,-2.02 0.17,-0.14 0.56,-0.49 0.86,-0.77 0.3,-0.29 0.97,-0.9 1.48,-1.35 0.51,-0.46 1.1,-0.96 1.31,-1.13 0.2,-0.18 0.72,-0.6 1.16,-0.95 0.44,-0.35 1.23,-0.96 1.77,-1.36 0.54,-0.41 1.31,-0.97 1.72,-1.25 0.41,-0.29 1.13,-0.79 1.62,-1.1 0.48,-0.32 1.23,-0.81 1.67,-1.08 0.44,-0.28 1.14,-0.7 1.56,-0.95 0.42,-0.24 1.07,-0.62 1.46,-0.83 0.39,-0.22 1.02,-0.57 1.42,-0.78 0.39,-0.21 1.26,-0.64 1.93,-0.97 0.66,-0.33 1.49,-0.72 1.83,-0.88 0.34,-0.15 0.99,-0.43 1.44,-0.63 0.45,-0.19 1.08,-0.45 1.39,-0.57 0.31,-0.13 0.7,-0.27 0.87,-0.32 0.17,-0.04 0.86,-0.26 1.52,-0.48 0.66,-0.22 1.81,-0.59 2.55,-0.82 0.73,-0.23 1.54,-0.48 1.79,-0.57 0.25,-0.08 0.86,-0.26 1.35,-0.38 0.49,-0.13 1.17,-0.3 1.52,-0.38 0.34,-0.07 1.01,-0.21 1.48,-0.31 0.47,-0.1 1.2,-0.24 1.63,-0.31 0.43,-0.07 1.07,-0.18 1.42,-0.23 0.36,-0.05 1.07,-0.15 1.58,-0.21 0.52,-0.07 1.33,-0.15 1.81,-0.2 0.49,-0.04 1.34,-0.11 1.89,-0.15 0.56,-0.04 1.06,-0.08 1.1,-0.08 z"
     id="path958"
     style="fill:none;stroke:#000000;stroke-opacity:1" />
  <path
     d="m 139.52,347.03 0.29,0.11 c 0.17,0.07 0.52,0.19 0.78,0.29 0.26,0.1 0.8,0.31 1.19,0.47 0.39,0.16 1,0.42 1.37,0.58 0.36,0.16 1,0.45 1.42,0.65 0.42,0.2 1.08,0.53 1.48,0.73 0.4,0.21 1.04,0.55 1.42,0.76 0.39,0.22 1.11,0.63 1.6,0.93 0.49,0.3 1.19,0.73 1.55,0.96 0.36,0.23 0.92,0.6 1.24,0.83 0.33,0.22 0.95,0.67 1.37,0.99 0.43,0.32 1.08,0.82 1.45,1.12 0.37,0.29 0.95,0.77 1.27,1.05 0.33,0.28 0.87,0.76 1.19,1.06 0.33,0.3 0.6,0.55 0.6,0.57 0,0.01 -0.07,0.3 -0.16,0.65 -0.08,0.34 -0.25,1.09 -0.38,1.67 -0.13,0.58 -0.33,1.49 -0.43,2.03 -0.11,0.55 -0.27,1.38 -0.35,1.86 -0.09,0.47 -0.23,1.31 -0.32,1.86 -0.08,0.55 -0.22,1.46 -0.29,2.02 -0.08,0.56 -0.2,1.57 -0.27,2.24 -0.08,0.66 -0.17,1.64 -0.22,2.16 -0.04,0.53 -0.1,1.34 -0.13,1.81 -0.03,0.47 -0.07,1.09 -0.08,1.38 -0.02,0.28 -0.04,0.51 -0.05,0.51 0,0 -0.27,-0.21 -0.59,-0.46 -0.31,-0.25 -0.83,-0.66 -1.15,-0.9 -0.32,-0.25 -0.94,-0.71 -1.36,-1.02 -0.43,-0.31 -1.12,-0.79 -1.52,-1.07 -0.41,-0.28 -1.1,-0.74 -1.52,-1.01 -0.43,-0.28 -1.1,-0.7 -1.48,-0.94 -0.39,-0.24 -1,-0.61 -1.37,-0.82 -0.36,-0.21 -0.96,-0.55 -1.32,-0.76 -0.37,-0.2 -0.96,-0.53 -1.33,-0.72 -0.36,-0.19 -1.04,-0.54 -1.5,-0.78 -0.46,-0.23 -1.26,-0.62 -1.79,-0.87 -0.52,-0.25 -1.3,-0.61 -1.73,-0.81 -0.43,-0.19 -1.02,-0.45 -1.31,-0.57 -0.29,-0.12 -0.79,-0.34 -1.13,-0.47 -0.33,-0.14 -0.61,-0.26 -0.62,-0.28 -0.02,-0.02 0.01,-0.39 0.06,-0.83 0.05,-0.44 0.17,-1.37 0.25,-2.08 0.09,-0.71 0.23,-1.79 0.32,-2.4 0.08,-0.61 0.21,-1.39 0.27,-1.73 0.07,-0.34 0.2,-0.98 0.29,-1.42 0.1,-0.44 0.29,-1.22 0.42,-1.74 0.12,-0.51 0.34,-1.32 0.48,-1.79 0.13,-0.47 0.38,-1.27 0.54,-1.77 0.17,-0.5 0.41,-1.21 0.55,-1.58 0.13,-0.36 0.33,-0.88 0.44,-1.15 0.1,-0.26 0.27,-0.67 0.37,-0.9 z"
     id="path956"
     style="fill:none;stroke:#000000;stroke-opacity:1" />
  <path
     d="m 209.58,346.92 c 0.04,-0.01 0.14,0.19 0.31,0.66 0.14,0.37 0.39,1.1 0.56,1.61 0.17,0.51 0.44,1.38 0.59,1.93 0.16,0.55 0.38,1.34 0.49,1.77 0.1,0.43 0.26,1.1 0.35,1.48 0.08,0.39 0.22,1.06 0.31,1.5 0.09,0.44 0.21,1.12 0.27,1.52 0.07,0.4 0.17,1.11 0.24,1.58 0.06,0.47 0.15,1.21 0.19,1.63 0.05,0.43 0.11,1.14 0.14,1.58 0.03,0.44 0.07,1.06 0.08,1.38 l 0.03,0.59 -0.58,0.21 c -0.32,0.11 -1.05,0.4 -1.63,0.63 -0.58,0.23 -1.4,0.57 -1.83,0.76 -0.43,0.18 -1.14,0.5 -1.58,0.71 -0.44,0.2 -1.22,0.58 -1.73,0.83 -0.52,0.26 -1.31,0.67 -1.77,0.92 -0.46,0.24 -1.24,0.68 -1.74,0.96 -0.49,0.29 -1.26,0.74 -1.71,1.02 -0.45,0.27 -1.17,0.72 -1.6,1 -0.43,0.28 -1,0.66 -1.27,0.84 -0.26,0.18 -0.78,0.54 -1.15,0.8 -0.36,0.26 -0.99,0.72 -1.4,1.02 -0.4,0.3 -0.96,0.73 -1.24,0.95 -0.28,0.21 -0.52,0.38 -0.53,0.36 -0.02,-0.01 -0.05,-0.43 -0.07,-0.92 -0.03,-0.49 -0.09,-1.33 -0.13,-1.85 -0.04,-0.53 -0.12,-1.39 -0.17,-1.91 -0.06,-0.53 -0.16,-1.44 -0.24,-2.03 -0.07,-0.59 -0.19,-1.42 -0.25,-1.85 -0.06,-0.42 -0.2,-1.24 -0.29,-1.8 -0.1,-0.56 -0.26,-1.48 -0.37,-2.03 -0.11,-0.55 -0.31,-1.51 -0.45,-2.13 -0.14,-0.62 -0.35,-1.53 -0.48,-2.03 l -0.23,-0.91 0.32,-0.28 c 0.17,-0.16 0.53,-0.47 0.8,-0.7 0.27,-0.22 0.74,-0.61 1.06,-0.86 0.31,-0.24 0.84,-0.65 1.16,-0.89 0.34,-0.25 0.84,-0.62 1.13,-0.82 0.29,-0.2 0.9,-0.62 1.35,-0.92 0.45,-0.29 1.16,-0.76 1.59,-1.03 0.43,-0.27 1.02,-0.62 1.31,-0.8 0.29,-0.17 0.66,-0.39 0.83,-0.48 0.18,-0.1 0.53,-0.3 0.8,-0.44 0.27,-0.15 0.86,-0.46 1.33,-0.69 0.46,-0.23 1.08,-0.53 1.38,-0.67 0.3,-0.14 0.76,-0.34 1.01,-0.45 0.26,-0.12 0.78,-0.33 1.15,-0.48 0.38,-0.15 0.96,-0.38 1.31,-0.5 0.34,-0.13 0.95,-0.34 1.36,-0.47 0.41,-0.13 0.78,-0.25 0.84,-0.27 0.05,-0.02 0.12,-0.03 0.15,-0.03 z"
     id="path954"
     style="fill:none;stroke:#000000;stroke-opacity:1" />
  <path
     d="m 174.2,327.62 c 0.03,0.04 0.25,0.4 0.49,0.79 0.25,0.4 0.68,1.1 0.95,1.58 0.28,0.47 0.76,1.28 1.06,1.81 0.29,0.52 0.78,1.39 1.07,1.93 0.29,0.53 0.79,1.49 1.12,2.12 0.33,0.63 0.78,1.53 1,1.99 0.23,0.46 0.58,1.18 0.78,1.61 0.2,0.43 0.58,1.24 0.83,1.8 0.25,0.56 0.65,1.45 0.87,1.98 0.23,0.53 0.56,1.31 0.73,1.73 0.17,0.42 0.47,1.17 0.67,1.66 0.19,0.49 0.49,1.27 0.66,1.73 0.17,0.46 0.45,1.23 0.61,1.7 0.17,0.47 0.49,1.42 0.72,2.1 0.22,0.69 0.52,1.62 0.66,2.07 0.14,0.45 0.38,1.24 0.53,1.77 0.15,0.52 0.45,1.66 0.67,2.53 0.21,0.87 0.5,2.09 0.64,2.71 0.13,0.62 0.34,1.63 0.46,2.24 0.12,0.61 0.28,1.53 0.37,2.04 0.09,0.52 0.2,1.23 0.25,1.58 0.06,0.35 0.16,1.05 0.22,1.54 0.07,0.49 0.15,1.2 0.2,1.58 0.04,0.37 0.11,1.05 0.15,1.5 0.04,0.45 0.1,1.16 0.14,1.57 0.03,0.42 0.08,1.23 0.12,1.8 0.03,0.56 0.06,1.43 0.08,1.92 l 0.02,0.9 -0.44,0.39 c -0.24,0.21 -1.71,1.66 -3.27,3.21 -1.55,1.56 -3.1,3.12 -3.43,3.47 -0.33,0.35 -0.83,0.91 -1.12,1.23 -0.29,0.32 -0.6,0.66 -0.69,0.76 l -0.16,0.19 -0.14,-0.12 c -0.08,-0.07 -0.14,-0.13 -0.14,-0.15 0,-0.01 0.73,-0.73 1.62,-1.59 0.9,-0.86 1.86,-1.79 2.13,-2.08 0.28,-0.29 0.71,-0.74 0.95,-1 0.25,-0.27 0.62,-0.71 0.83,-0.98 0.22,-0.26 0.52,-0.67 0.68,-0.91 0.16,-0.24 0.37,-0.61 0.48,-0.83 0.11,-0.22 0.26,-0.56 0.32,-0.76 0.11,-0.3 0.13,-0.42 0.13,-0.71 v -0.35 l -0.14,-0.29 c -0.08,-0.17 -0.22,-0.39 -0.32,-0.49 -0.09,-0.11 -0.26,-0.25 -0.37,-0.31 -0.17,-0.09 -0.24,-0.11 -0.37,-0.09 -0.09,0.01 -0.34,0.11 -0.55,0.22 -0.21,0.11 -0.58,0.34 -0.82,0.51 -0.26,0.2 -0.7,0.6 -1.13,1.03 -0.38,0.38 -0.91,0.95 -1.17,1.27 -0.26,0.31 -0.67,0.82 -0.91,1.13 -0.24,0.31 -0.69,0.9 -0.99,1.32 -0.3,0.42 -0.9,1.29 -1.34,1.95 -0.44,0.65 -0.81,1.2 -0.83,1.22 -0.02,0.02 -0.1,-0.02 -0.18,-0.1 -0.09,-0.07 -0.21,-0.17 -0.28,-0.21 -0.08,-0.05 -0.11,-0.09 -0.1,-0.13 0.01,-0.04 0.31,-0.84 0.66,-1.79 0.35,-0.96 0.76,-2.1 0.91,-2.54 0.16,-0.45 0.38,-1.1 0.49,-1.47 0.12,-0.36 0.28,-0.9 0.37,-1.2 0.09,-0.3 0.23,-0.83 0.31,-1.18 0.09,-0.36 0.21,-0.88 0.26,-1.17 0.05,-0.29 0.12,-0.74 0.15,-0.99 0.04,-0.26 0.07,-0.7 0.09,-0.99 0.01,-0.3 0,-0.73 -0.02,-0.97 -0.02,-0.23 -0.07,-0.57 -0.11,-0.74 -0.03,-0.17 -0.11,-0.41 -0.17,-0.54 -0.06,-0.13 -0.2,-0.33 -0.31,-0.45 -0.11,-0.13 -0.32,-0.31 -0.47,-0.4 -0.15,-0.1 -0.37,-0.22 -0.49,-0.26 -0.12,-0.04 -0.29,-0.08 -0.36,-0.07 -0.08,0 -0.19,0.02 -0.25,0.04 -0.06,0.03 -0.19,0.15 -0.29,0.26 -0.09,0.12 -0.24,0.32 -0.33,0.44 -0.08,0.12 -0.24,0.4 -0.36,0.62 -0.12,0.23 -0.28,0.55 -0.36,0.74 -0.07,0.18 -0.22,0.56 -0.33,0.84 -0.1,0.29 -0.29,0.84 -0.4,1.22 -0.12,0.39 -0.31,1.08 -0.43,1.55 -0.12,0.47 -0.3,1.26 -0.41,1.77 -0.11,0.5 -0.28,1.37 -0.39,1.94 -0.1,0.57 -0.27,1.52 -0.37,2.12 l -0.2,1.2 -0.02,0.11 -0.12,-0.06 c -0.06,-0.04 -0.19,-0.13 -0.27,-0.21 -0.09,-0.08 -0.35,-0.26 -0.58,-0.41 l -0.41,-0.28 0.01,-0.27 c 0.01,-0.15 0.08,-0.92 0.15,-1.71 0.08,-0.8 0.2,-2.09 0.27,-2.89 0.07,-0.79 0.16,-1.82 0.19,-2.29 0.04,-0.48 0.08,-1.19 0.1,-1.6 0.02,-0.41 0.04,-1.23 0.04,-1.83 0,-0.6 -0.02,-1.35 -0.04,-1.66 -0.02,-0.31 -0.07,-0.77 -0.1,-1.03 -0.03,-0.26 -0.1,-0.67 -0.15,-0.93 -0.06,-0.25 -0.16,-0.62 -0.22,-0.82 -0.06,-0.19 -0.18,-0.48 -0.25,-0.63 -0.09,-0.19 -0.2,-0.34 -0.33,-0.46 -0.11,-0.1 -0.31,-0.23 -0.44,-0.3 -0.14,-0.06 -0.39,-0.14 -0.56,-0.18 -0.25,-0.05 -0.35,-0.05 -0.53,-0.01 -0.12,0.02 -0.28,0.08 -0.35,0.13 -0.07,0.05 -0.16,0.16 -0.21,0.24 -0.05,0.09 -0.14,0.3 -0.21,0.47 -0.07,0.17 -0.17,0.5 -0.23,0.74 -0.06,0.23 -0.15,0.64 -0.19,0.89 -0.05,0.26 -0.11,0.73 -0.14,1.04 -0.03,0.31 -0.08,0.89 -0.1,1.28 -0.02,0.4 -0.04,1.3 -0.04,2.01 0,0.71 0.02,1.74 0.04,2.3 0.02,0.55 0.08,1.57 0.12,2.26 0.04,0.68 0.11,1.7 0.15,2.25 0.05,0.56 0.14,1.64 0.21,2.41 l 0.13,1.4 -0.32,0.21 c -0.18,0.11 -0.39,0.27 -0.48,0.35 -0.09,0.08 -0.17,0.14 -0.18,0.13 0,-0.01 -0.05,-0.25 -0.1,-0.54 -0.04,-0.29 -0.18,-1.05 -0.29,-1.7 -0.12,-0.64 -0.29,-1.55 -0.38,-2.02 -0.1,-0.47 -0.23,-1.1 -0.3,-1.4 -0.07,-0.3 -0.2,-0.86 -0.29,-1.24 -0.1,-0.37 -0.25,-0.95 -0.35,-1.28 -0.09,-0.33 -0.26,-0.86 -0.37,-1.18 -0.11,-0.32 -0.31,-0.83 -0.43,-1.13 -0.13,-0.3 -0.33,-0.72 -0.44,-0.92 -0.12,-0.21 -0.31,-0.52 -0.44,-0.7 -0.12,-0.17 -0.29,-0.38 -0.37,-0.45 -0.08,-0.07 -0.22,-0.15 -0.3,-0.17 -0.11,-0.03 -0.21,-0.03 -0.34,0 -0.11,0.02 -0.3,0.1 -0.43,0.16 -0.13,0.07 -0.35,0.24 -0.5,0.4 -0.15,0.15 -0.33,0.37 -0.39,0.48 -0.06,0.12 -0.14,0.37 -0.18,0.57 -0.05,0.22 -0.09,0.59 -0.1,1 -0.02,0.39 -0.01,0.85 0.02,1.15 0.03,0.28 0.08,0.72 0.12,0.99 0.04,0.26 0.12,0.68 0.18,0.93 0.05,0.25 0.17,0.75 0.27,1.11 0.09,0.37 0.28,1.04 0.42,1.5 0.14,0.46 0.4,1.28 0.59,1.82 0.18,0.53 0.68,1.95 1.11,3.15 0.43,1.19 0.78,2.18 0.78,2.2 0,0.01 -0.04,-0.04 -0.09,-0.11 -0.05,-0.08 -0.33,-0.57 -0.61,-1.09 -0.28,-0.53 -0.68,-1.24 -0.87,-1.58 -0.19,-0.34 -0.47,-0.84 -0.62,-1.09 -0.15,-0.26 -0.45,-0.76 -0.66,-1.11 -0.22,-0.36 -0.66,-1.05 -0.99,-1.54 -0.32,-0.49 -0.77,-1.14 -1,-1.44 -0.23,-0.3 -0.53,-0.69 -0.67,-0.86 -0.14,-0.17 -0.45,-0.51 -0.69,-0.75 -0.24,-0.25 -0.58,-0.55 -0.74,-0.69 -0.17,-0.13 -0.44,-0.31 -0.6,-0.41 -0.17,-0.1 -0.36,-0.17 -0.46,-0.18 -0.13,-0.02 -0.22,0 -0.35,0.06 -0.1,0.05 -0.27,0.19 -0.38,0.31 -0.11,0.12 -0.27,0.37 -0.36,0.55 l -0.16,0.32 v 0.3 c 0,0.17 0.04,0.43 0.09,0.61 0.04,0.17 0.15,0.49 0.24,0.7 0.08,0.21 0.26,0.58 0.39,0.81 0.13,0.24 0.38,0.64 0.55,0.9 0.17,0.26 0.49,0.7 0.7,0.98 0.21,0.27 0.61,0.78 0.89,1.13 0.29,0.34 0.63,0.74 0.76,0.89 0.13,0.15 0.7,0.79 1.25,1.42 0.56,0.64 1.21,1.39 1.46,1.68 0.25,0.29 0.56,0.66 0.7,0.83 l 0.24,0.31 -0.14,0.14 -0.56,-0.63 c -0.3,-0.35 -0.83,-0.94 -1.18,-1.31 -0.35,-0.38 -1.7,-1.75 -2.99,-3.05 -1.3,-1.31 -2.63,-2.61 -2.96,-2.9 l -0.59,-0.54 0.02,-0.19 c 0.01,-0.11 0.04,-0.45 0.06,-0.76 0.02,-0.32 0.07,-0.89 0.1,-1.29 0.03,-0.4 0.1,-1.17 0.15,-1.73 0.06,-0.56 0.14,-1.41 0.2,-1.89 0.05,-0.48 0.15,-1.3 0.21,-1.81 0.07,-0.52 0.17,-1.31 0.24,-1.77 0.06,-0.47 0.18,-1.3 0.27,-1.86 0.09,-0.55 0.25,-1.54 0.37,-2.2 0.11,-0.65 0.31,-1.68 0.43,-2.28 0.11,-0.6 0.28,-1.39 0.37,-1.77 0.08,-0.37 0.33,-1.44 0.55,-2.37 0.23,-0.94 0.54,-2.16 0.7,-2.73 0.17,-0.57 0.44,-1.5 0.61,-2.06 0.18,-0.57 0.5,-1.58 0.72,-2.24 0.22,-0.67 0.56,-1.64 0.74,-2.16 0.19,-0.53 0.52,-1.42 0.73,-1.99 0.21,-0.57 0.62,-1.62 0.91,-2.34 0.29,-0.72 0.78,-1.9 1.09,-2.63 0.3,-0.73 0.7,-1.63 0.87,-2.01 0.17,-0.37 0.44,-0.96 0.6,-1.3 0.16,-0.34 0.52,-1.09 0.8,-1.66 0.28,-0.56 0.75,-1.51 1.06,-2.1 0.31,-0.59 0.74,-1.41 0.97,-1.83 0.22,-0.42 0.64,-1.18 0.93,-1.7 0.29,-0.51 0.84,-1.45 1.22,-2.08 0.38,-0.63 0.87,-1.43 1.09,-1.78 0.35,-0.56 0.41,-0.63 0.45,-0.57 z"
     id="path952"
     style="fill:none;stroke:#000000;stroke-opacity:1" />
  <path
     d="m 174.29,322.26 c -0.01,0 -0.31,0.37 -0.65,0.82 -0.34,0.46 -0.92,1.29 -1.28,1.84 -0.37,0.56 -0.89,1.37 -1.15,1.79 -0.27,0.43 -0.7,1.13 -0.96,1.56 -0.25,0.43 -0.67,1.13 -0.91,1.56 -0.25,0.43 -0.68,1.19 -0.96,1.7 -0.28,0.5 -0.7,1.28 -0.94,1.73 -0.24,0.45 -0.78,1.51 -1.21,2.36 -0.42,0.84 -0.94,1.89 -1.15,2.33 -0.21,0.44 -0.6,1.28 -0.87,1.87 -0.26,0.59 -0.72,1.63 -1.01,2.3 -0.29,0.68 -0.73,1.75 -0.98,2.38 -0.26,0.63 -0.62,1.57 -0.81,2.08 -0.2,0.52 -0.51,1.38 -0.7,1.93 -0.2,0.55 -0.45,1.29 -0.57,1.66 -0.12,0.36 -0.31,0.96 -0.43,1.34 -0.12,0.37 -0.32,1.04 -0.45,1.48 -0.12,0.44 -0.29,1.04 -0.37,1.32 -0.08,0.29 -0.15,0.54 -0.16,0.54 -0.01,0.01 -0.14,-0.09 -0.3,-0.22 -0.16,-0.14 -0.59,-0.5 -0.97,-0.82 -0.37,-0.31 -0.94,-0.78 -1.27,-1.04 -0.32,-0.26 -0.8,-0.63 -1.05,-0.82 -0.25,-0.19 -0.68,-0.51 -0.95,-0.7 -0.27,-0.19 -0.72,-0.51 -1.01,-0.7 -0.29,-0.19 -1.02,-0.66 -1.62,-1.03 -0.6,-0.38 -1.3,-0.81 -1.55,-0.96 -0.26,-0.15 -0.79,-0.45 -1.18,-0.67 -0.38,-0.21 -1.11,-0.6 -1.61,-0.85 -0.51,-0.26 -1.13,-0.56 -1.39,-0.68 -0.26,-0.13 -0.73,-0.34 -1.05,-0.48 -0.32,-0.14 -0.94,-0.41 -1.38,-0.59 -0.44,-0.17 -1.01,-0.4 -1.28,-0.5 -0.26,-0.1 -0.73,-0.26 -1.03,-0.37 -0.3,-0.1 -0.88,-0.29 -1.29,-0.42 -0.41,-0.13 -0.92,-0.28 -1.15,-0.34 -0.22,-0.05 -0.44,-0.1 -0.47,-0.11 -0.05,-0.01 -0.16,0.13 -0.42,0.59 -0.19,0.34 -0.46,0.84 -0.6,1.12 -0.14,0.28 -0.37,0.77 -0.52,1.11 -0.14,0.33 -0.33,0.78 -0.41,0.99 -0.09,0.22 -0.29,0.73 -0.44,1.15 -0.16,0.42 -0.43,1.2 -0.6,1.73 -0.18,0.54 -0.44,1.36 -0.57,1.83 -0.14,0.48 -0.33,1.21 -0.44,1.64 -0.11,0.43 -0.28,1.14 -0.38,1.57 -0.09,0.44 -0.24,1.15 -0.33,1.6 -0.08,0.44 -0.24,1.43 -0.35,2.21 -0.11,0.77 -0.29,2.11 -0.41,2.99 -0.11,0.87 -0.21,1.59 -0.22,1.6 -0.01,0.01 -0.39,-0.1 -0.84,-0.25 -0.44,-0.15 -1.26,-0.39 -1.8,-0.54 -0.55,-0.15 -1.41,-0.39 -1.92,-0.53 -0.51,-0.14 -1.29,-0.34 -1.73,-0.45 -0.45,-0.11 -1.16,-0.28 -1.59,-0.37 -0.43,-0.09 -1.15,-0.24 -1.59,-0.33 -0.45,-0.09 -1.12,-0.21 -1.5,-0.27 -0.38,-0.07 -1.07,-0.17 -1.53,-0.23 -0.46,-0.07 -1.15,-0.16 -1.54,-0.2 -0.38,-0.04 -1.11,-0.12 -1.61,-0.16 -0.72,-0.07 -1.33,-0.09 -2.8,-0.1 l -1.88,-0.03 v 0.91 c 0,0.51 0.02,1.26 0.04,1.67 0.02,0.42 0.08,1.17 0.12,1.66 0.04,0.49 0.12,1.25 0.18,1.68 0.05,0.43 0.13,1.02 0.17,1.32 0.05,0.3 0.14,0.91 0.22,1.36 0.07,0.45 0.22,1.26 0.33,1.81 0.11,0.55 0.28,1.38 0.39,1.85 0.1,0.48 0.32,1.37 0.48,1.99 0.16,0.62 0.4,1.53 0.54,2.01 0.14,0.48 0.37,1.24 0.51,1.69 0.14,0.45 0.39,1.24 0.57,1.76 0.17,0.51 0.48,1.38 0.68,1.92 0.21,0.54 0.51,1.33 0.68,1.75 0.17,0.42 0.4,0.97 0.5,1.23 0.11,0.26 0.2,0.47 0.19,0.48 -0.01,0.01 -0.12,0.03 -0.25,0.05 -0.12,0.02 -0.55,0.09 -0.95,0.16 -0.39,0.06 -1.12,0.19 -1.61,0.29 -0.5,0.1 -1.21,0.25 -1.58,0.33 -0.38,0.09 -0.92,0.22 -1.21,0.3 -0.29,0.07 -0.85,0.22 -1.24,0.33 -0.4,0.11 -1.15,0.35 -1.66,0.52 -0.51,0.18 -1.23,0.43 -1.59,0.57 -0.35,0.14 -0.66,0.26 -0.67,0.27 -0.01,0.01 0.02,0.37 0.06,0.8 0.04,0.42 0.1,0.89 0.12,1.03 0.02,0.13 0.08,0.48 0.14,0.75 0.05,0.28 0.17,0.84 0.27,1.23 0.09,0.4 0.26,1.04 0.37,1.44 0.1,0.39 0.32,1.11 0.47,1.59 0.15,0.49 0.41,1.28 0.58,1.76 0.17,0.49 0.5,1.34 0.72,1.89 0.22,0.56 0.57,1.4 0.77,1.86 0.21,0.47 0.57,1.26 0.81,1.75 0.24,0.5 0.62,1.26 0.85,1.69 0.22,0.43 0.6,1.14 0.85,1.58 0.25,0.44 0.65,1.13 0.9,1.54 0.24,0.4 0.67,1.08 0.95,1.51 0.27,0.43 0.74,1.12 1.03,1.54 0.3,0.42 0.81,1.12 1.14,1.56 0.33,0.44 0.82,1.07 1.09,1.4 0.26,0.34 0.69,0.85 0.93,1.14 0.25,0.28 0.6,0.69 0.78,0.89 0.18,0.2 0.7,0.76 1.15,1.24 0.45,0.48 1.22,1.25 1.72,1.72 0.49,0.47 1.13,1.06 1.42,1.31 0.29,0.26 0.78,0.67 1.09,0.93 0.31,0.26 0.78,0.64 1.03,0.84 0.26,0.21 0.68,0.53 0.94,0.73 0.26,0.19 0.69,0.51 0.97,0.71 0.28,0.2 0.9,0.62 1.37,0.94 0.47,0.31 0.89,0.59 0.93,0.61 0.06,0.03 0.07,0.06 0.04,0.1 -0.02,0.03 -0.24,0.27 -0.49,0.54 -0.24,0.26 -0.69,0.76 -0.99,1.1 -0.3,0.35 -0.78,0.9 -1.06,1.23 -0.28,0.33 -0.79,0.96 -1.14,1.4 -0.35,0.44 -0.94,1.2 -1.31,1.7 -0.36,0.49 -0.92,1.25 -1.23,1.69 -0.31,0.44 -0.85,1.22 -1.19,1.73 -0.34,0.52 -0.91,1.4 -1.27,1.97 -0.35,0.57 -0.86,1.4 -1.12,1.85 -0.26,0.45 -0.66,1.15 -0.88,1.56 -0.22,0.41 -0.74,1.4 -1.15,2.21 -0.4,0.81 -0.73,1.48 -0.73,1.49 0.01,0 0.6,0.17 1.3,0.38 0.71,0.21 1.53,0.44 1.83,0.51 0.3,0.07 0.94,0.22 1.42,0.33 0.49,0.11 1.29,0.27 1.78,0.37 0.49,0.1 1.14,0.22 1.44,0.27 0.3,0.06 0.93,0.16 1.4,0.24 0.47,0.07 1.31,0.2 1.85,0.27 0.55,0.08 1.49,0.19 2.09,0.26 0.6,0.06 1.39,0.14 1.77,0.17 0.37,0.04 1.07,0.09 1.56,0.12 0.48,0.03 1.31,0.08 1.85,0.1 0.53,0.03 1.84,0.04 2.9,0.04 1.06,0 2.36,-0.02 2.9,-0.04 0.54,-0.02 1.43,-0.08 1.99,-0.12 0.55,-0.04 1.27,-0.1 1.59,-0.14 0.32,-0.03 0.93,-0.1 1.35,-0.15 0.41,-0.06 1.04,-0.14 1.38,-0.2 0.34,-0.05 0.91,-0.15 1.27,-0.21 0.35,-0.07 0.95,-0.19 1.34,-0.27 0.39,-0.09 1.03,-0.23 1.42,-0.33 0.4,-0.1 1.03,-0.27 1.4,-0.38 0.38,-0.11 1.05,-0.32 1.5,-0.47 0.45,-0.15 1.08,-0.38 1.41,-0.5 0.32,-0.12 1.18,-0.48 1.9,-0.81 0.73,-0.32 1.72,-0.76 2.21,-0.98 0.48,-0.23 1.38,-0.66 2.01,-0.97 l 1.13,-0.57 0.45,0.48 c 0.24,0.27 0.69,0.72 1.01,1.01 0.31,0.28 0.77,0.68 1.02,0.89 0.25,0.2 0.65,0.5 0.89,0.67 0.24,0.16 0.63,0.42 0.87,0.56 0.24,0.15 0.69,0.39 0.98,0.54 0.3,0.14 0.69,0.33 0.87,0.4 0.18,0.08 0.51,0.2 0.74,0.28 0.22,0.08 0.61,0.19 0.85,0.26 0.25,0.06 0.7,0.16 1.01,0.21 0.3,0.05 0.85,0.11 1.22,0.14 0.46,0.02 0.88,0.02 1.32,0 0.35,-0.02 0.81,-0.07 1.02,-0.1 0.21,-0.03 0.59,-0.1 0.84,-0.16 0.25,-0.05 0.74,-0.19 1.08,-0.31 0.34,-0.11 0.81,-0.29 1.03,-0.39 0.23,-0.1 0.59,-0.27 0.81,-0.38 0.22,-0.12 0.62,-0.36 0.9,-0.53 0.27,-0.17 0.69,-0.46 0.93,-0.63 0.24,-0.18 0.64,-0.51 0.89,-0.72 0.26,-0.22 0.76,-0.69 1.11,-1.05 0.35,-0.37 0.83,-0.88 1.05,-1.15 0.23,-0.27 0.47,-0.57 0.55,-0.67 0.07,-0.1 0.14,-0.18 0.15,-0.18 0.01,-0.01 0.27,0.13 0.57,0.29 0.3,0.16 1.09,0.56 1.75,0.89 0.66,0.33 1.6,0.78 2.08,1 0.49,0.21 1.33,0.58 1.87,0.81 0.55,0.24 1.27,0.53 1.6,0.67 0.33,0.13 0.95,0.37 1.38,0.52 0.43,0.16 1.1,0.38 1.48,0.5 0.39,0.12 0.92,0.28 1.19,0.35 0.27,0.08 0.66,0.18 0.86,0.24 0.2,0.05 0.71,0.17 1.13,0.27 0.42,0.1 1.08,0.24 1.47,0.31 0.39,0.08 1.09,0.21 1.54,0.28 0.45,0.07 1.17,0.18 1.58,0.23 0.42,0.06 1.11,0.14 1.52,0.18 0.42,0.04 1.12,0.1 1.56,0.13 0.44,0.04 1.14,0.08 1.56,0.1 0.42,0.03 1.49,0.05 2.38,0.07 0.96,0.01 2.16,0 2.96,-0.02 0.74,-0.03 1.76,-0.08 2.28,-0.11 0.51,-0.03 1.24,-0.08 1.61,-0.11 0.38,-0.03 1.04,-0.1 1.48,-0.14 0.44,-0.05 1.22,-0.13 1.73,-0.2 0.51,-0.06 1.29,-0.16 1.73,-0.23 0.45,-0.06 1.17,-0.18 1.62,-0.25 0.45,-0.08 1.18,-0.21 1.64,-0.29 0.45,-0.09 1.16,-0.23 1.58,-0.32 0.42,-0.08 1.19,-0.26 1.72,-0.38 0.52,-0.13 1.32,-0.34 1.77,-0.47 0.45,-0.13 1.05,-0.3 1.33,-0.38 0.29,-0.09 0.53,-0.17 0.54,-0.18 0.01,-0.01 -0.34,-0.74 -0.78,-1.61 -0.44,-0.87 -1.02,-1.99 -1.29,-2.47 -0.28,-0.48 -0.76,-1.31 -1.08,-1.85 -0.32,-0.53 -0.8,-1.3 -1.06,-1.71 -0.26,-0.41 -0.7,-1.09 -0.98,-1.51 -0.29,-0.42 -0.77,-1.13 -1.08,-1.56 -0.3,-0.43 -0.89,-1.24 -1.31,-1.8 -0.42,-0.56 -1.01,-1.33 -1.32,-1.71 -0.31,-0.39 -0.79,-0.98 -1.07,-1.31 -0.28,-0.33 -0.74,-0.87 -1.02,-1.19 -0.28,-0.32 -0.75,-0.84 -1.04,-1.15 -0.28,-0.31 -0.78,-0.83 -1.1,-1.15 -0.32,-0.33 -0.57,-0.61 -0.56,-0.61 0,-0.01 0.3,-0.22 0.65,-0.46 0.36,-0.24 0.88,-0.6 1.15,-0.81 0.28,-0.2 0.82,-0.61 1.19,-0.9 0.38,-0.29 0.94,-0.73 1.25,-0.99 0.31,-0.26 0.81,-0.69 1.11,-0.95 0.3,-0.27 0.92,-0.84 1.38,-1.27 0.45,-0.43 1.16,-1.13 1.57,-1.56 0.41,-0.43 0.96,-1.02 1.22,-1.31 0.26,-0.29 0.66,-0.74 0.89,-1.01 0.23,-0.27 0.7,-0.83 1.03,-1.25 0.34,-0.41 0.82,-1.04 1.08,-1.38 0.26,-0.34 0.68,-0.92 0.94,-1.29 0.26,-0.36 0.72,-1.04 1.03,-1.51 0.31,-0.47 0.74,-1.14 0.95,-1.48 0.21,-0.35 0.58,-0.97 0.82,-1.39 0.24,-0.41 0.56,-1 0.72,-1.3 0.17,-0.3 0.52,-0.99 0.79,-1.52 0.26,-0.54 0.62,-1.28 0.79,-1.66 0.18,-0.37 0.45,-0.99 0.62,-1.38 0.16,-0.38 0.38,-0.91 0.49,-1.18 0.11,-0.27 0.3,-0.78 0.43,-1.12 0.13,-0.34 0.36,-1.01 0.53,-1.48 0.16,-0.47 0.39,-1.2 0.51,-1.61 0.13,-0.42 0.31,-1.08 0.41,-1.47 0.09,-0.38 0.26,-1.17 0.38,-1.74 0.11,-0.59 0.18,-1.06 0.16,-1.08 -0.02,-0.01 -0.38,-0.2 -0.81,-0.42 -0.43,-0.21 -1,-0.48 -1.26,-0.58 -0.27,-0.11 -0.79,-0.31 -1.17,-0.44 -0.37,-0.13 -1.04,-0.35 -1.5,-0.48 -0.45,-0.14 -1.19,-0.35 -1.64,-0.47 -0.45,-0.12 -1.13,-0.29 -1.52,-0.37 -0.38,-0.09 -1.09,-0.24 -1.56,-0.34 -0.47,-0.09 -1.13,-0.21 -1.48,-0.27 -0.34,-0.05 -0.66,-0.11 -0.7,-0.12 l -0.08,-0.01 0.51,-1.12 c 0.29,-0.62 0.68,-1.49 0.87,-1.94 0.19,-0.45 0.48,-1.15 0.65,-1.56 0.16,-0.41 0.44,-1.11 0.6,-1.56 0.17,-0.45 0.42,-1.13 0.55,-1.52 0.13,-0.38 0.4,-1.22 0.6,-1.87 0.2,-0.64 0.44,-1.4 0.52,-1.69 0.09,-0.29 0.27,-0.92 0.4,-1.41 0.13,-0.48 0.32,-1.22 0.43,-1.65 0.1,-0.43 0.26,-1.09 0.34,-1.48 0.09,-0.39 0.23,-1.06 0.31,-1.5 0.09,-0.44 0.22,-1.16 0.3,-1.6 0.07,-0.44 0.18,-1.11 0.24,-1.5 0.05,-0.38 0.13,-1 0.17,-1.36 0.04,-0.37 0.11,-0.96 0.14,-1.31 0.03,-0.35 0.07,-1.14 0.08,-1.76 l 0.03,-1.13 -2.01,0.02 c -1.26,0.02 -2.31,0.05 -2.84,0.09 -0.46,0.03 -1.19,0.09 -1.63,0.14 -0.44,0.04 -1.08,0.11 -1.42,0.15 -0.35,0.05 -0.93,0.13 -1.29,0.18 -0.36,0.05 -1.07,0.17 -1.57,0.25 -0.51,0.09 -1.35,0.25 -1.88,0.36 -0.52,0.1 -1.25,0.26 -1.61,0.35 -0.36,0.08 -1.07,0.25 -1.57,0.38 -0.5,0.13 -1.66,0.45 -2.57,0.7 -0.91,0.26 -1.66,0.47 -1.67,0.46 -0.01,-0.01 -0.05,-0.47 -0.1,-1.03 -0.04,-0.55 -0.1,-1.29 -0.13,-1.63 -0.04,-0.34 -0.1,-0.9 -0.14,-1.24 -0.04,-0.35 -0.17,-1.15 -0.28,-1.8 -0.1,-0.64 -0.28,-1.6 -0.38,-2.14 -0.11,-0.54 -0.29,-1.35 -0.39,-1.81 -0.11,-0.46 -0.28,-1.15 -0.37,-1.52 -0.1,-0.38 -0.31,-1.13 -0.47,-1.68 -0.16,-0.56 -0.43,-1.45 -0.61,-1.99 -0.18,-0.54 -0.44,-1.27 -0.57,-1.63 -0.13,-0.35 -0.36,-0.9 -0.49,-1.23 -0.14,-0.32 -0.43,-0.92 -0.63,-1.32 -0.2,-0.39 -0.38,-0.72 -0.39,-0.72 -0.01,0 -0.22,0.05 -0.47,0.11 -0.26,0.07 -0.63,0.16 -0.85,0.2 -0.21,0.05 -0.67,0.16 -1.01,0.26 -0.35,0.1 -0.95,0.28 -1.35,0.41 -0.39,0.13 -1.02,0.35 -1.38,0.48 -0.37,0.14 -1.04,0.4 -1.48,0.58 -0.45,0.18 -1.17,0.48 -1.6,0.67 -0.43,0.19 -1.36,0.64 -2.08,1 -0.72,0.36 -1.66,0.84 -2.09,1.08 -0.42,0.24 -1.11,0.64 -1.53,0.89 -0.42,0.24 -1.07,0.65 -1.46,0.89 -0.39,0.25 -1.03,0.67 -1.42,0.94 -0.4,0.27 -1.01,0.7 -1.37,0.95 -0.35,0.26 -0.96,0.71 -1.34,1.01 -0.39,0.29 -0.99,0.77 -1.35,1.06 -0.35,0.29 -0.64,0.52 -0.65,0.52 -0.01,-0.01 -0.12,-0.41 -0.26,-0.89 -0.14,-0.48 -0.37,-1.25 -0.51,-1.71 -0.14,-0.46 -0.41,-1.3 -0.6,-1.87 -0.19,-0.56 -0.49,-1.43 -0.66,-1.92 -0.18,-0.5 -0.52,-1.42 -0.77,-2.05 -0.24,-0.64 -0.64,-1.63 -0.88,-2.22 -0.25,-0.59 -0.6,-1.42 -0.79,-1.85 -0.19,-0.43 -0.59,-1.32 -0.9,-1.99 -0.3,-0.66 -0.82,-1.76 -1.14,-2.43 -0.33,-0.68 -0.83,-1.69 -1.12,-2.26 -0.29,-0.57 -0.69,-1.33 -0.88,-1.7 -0.19,-0.36 -0.57,-1.06 -0.84,-1.55 -0.27,-0.5 -0.77,-1.39 -1.11,-1.99 -0.34,-0.6 -0.88,-1.52 -1.19,-2.05 -0.32,-0.52 -0.8,-1.31 -1.07,-1.75 -0.28,-0.44 -0.75,-1.17 -1.05,-1.63 -0.3,-0.47 -0.85,-1.24 -1.23,-1.73 -0.37,-0.48 -0.69,-0.88 -0.71,-0.88 z"
     id="path5"
     style="fill:none;stroke:#000000;stroke-opacity:1" />
  <path
     style="fill:#eed2d2;stroke:none;stroke-width:0.627388;stroke-linecap:round;stroke-miterlimit:4;stroke-dasharray:none;stroke-opacity:1;fill-opacity:1"
     d="m 134.57466,445.03723 c -4.43532,-0.28885 -10.6788,-1.29201 -14.30719,-2.29877 l -1.52416,-0.4229 1.09714,-2.09685 c 2.53142,-4.83806 6.18898,-10.10611 9.92899,-14.3009 1.6514,-1.8522 1.64953,-1.86332 -0.56679,-3.38481 -8.9195,-6.12314 -15.9913,-15.56749 -19.72132,-26.33768 -0.75465,-2.17901 -1.64626,-5.57078 -1.79592,-6.83183 l -0.10344,-0.87164 1.69361,-0.56951 c 2.04907,-0.68903 4.21963,-1.24008 6.63429,-1.68427 0.99206,-0.1825 1.91451,-0.3643 2.0499,-0.40402 0.38033,-0.11158 0.14904,-1.26331 -0.67533,-3.36284 -2.49678,-6.35888 -4.19393,-13.83272 -4.46651,-19.66936 l -0.0945,-2.02408 2.4951,0.097 c 4.39102,0.17076 8.97867,0.99622 14.5936,2.62585 0.87437,0.25377 1.92853,0.47932 2.34258,0.50123 0.8999,0.0476 0.76764,0.43537 1.48332,-4.34882 0.56988,-3.8095 1.26704,-6.72318 2.38034,-9.94823 0.67466,-1.9544 1.82178,-4.61687 2.29001,-5.31512 0.10718,-0.15983 0.53331,-0.072 2.00474,0.41339 5.89384,1.94409 11.39713,5.07332 17.07695,9.71016 0.66044,0.53916 1.2738,0.98029 1.36302,0.98029 0.0892,0 0.19893,-0.14037 0.2438,-0.31193 0.0449,-0.17156 0.13418,-0.27941 0.1985,-0.23967 0.0643,0.0398 0.24403,-0.40218 0.39938,-0.98205 0.45798,-1.70945 1.99854,-6.21602 2.9416,-8.60502 2.72044,-6.89152 6.42245,-14.11988 10.09786,-19.71657 l 1.63222,-2.48544 0.28899,0.36801 c 0.15895,0.20241 0.88783,1.28557 1.61973,2.40703 4.84816,7.42858 9.81975,17.8709 12.33352,25.90531 0.66407,2.12248 1.05363,3.23322 1.22127,3.48225 0.0866,0.12862 1.50861,-0.80504 3.48253,-2.28655 5.08039,-3.81305 11.54157,-7.05384 16.67785,-8.36525 0.69408,-0.17721 1.27571,-0.30097 1.29252,-0.27502 0.3006,0.46418 1.31732,3.06556 1.8674,4.77794 1.28559,4.00204 2.21424,8.45053 2.60029,12.45613 0.21867,2.26884 0.19683,2.22965 1.17243,2.10392 0.44117,-0.0569 2.17847,-0.44422 3.86065,-0.8608 5.0992,-1.26279 9.444,-1.88265 13.19613,-1.88265 h 2.02676 l -0.0897,1.05872 c -0.43728,5.16344 -1.20071,9.00731 -2.83344,14.26625 -0.89421,2.88023 -1.69835,4.99454 -3.04842,8.01519 -0.69062,1.5452 -1.00722,2.42216 -0.88819,2.4602 0.10174,0.0325 0.71434,0.13955 1.36133,0.23787 4.00691,0.60891 10.35466,2.65329 10.3508,3.33362 -0.002,0.41731 -0.66115,2.94635 -1.19447,4.58551 -3.2172,9.8881 -9.66302,19.1545 -17.54274,25.21914 -1.0325,0.79466 -2.19708,1.75063 -2.58797,2.12437 -0.67635,0.64668 -0.68986,0.67617 -0.27938,0.60993 0.23723,-0.0383 0.43133,-0.0175 0.43133,0.0463 0,0.18913 -0.41232,0.47394 -0.52419,0.36207 -0.0568,-0.0568 -0.1032,-0.06 -0.1032,-0.007 0,0.0528 0.67999,0.82326 1.51109,1.71225 4.00487,4.28379 8.38707,10.52991 10.89766,15.53285 0.43217,0.86119 0.75583,1.59574 0.71925,1.63232 -0.14363,0.14363 -2.97019,0.86378 -5.12881,1.30671 -11.57571,2.37525 -23.70595,1.96133 -31.99677,-1.09182 -1.82407,-0.67173 -5.40541,-2.23059 -7.25132,-3.1563 -0.83953,-0.42102 -1.66297,-0.76549 -1.82988,-0.76549 -0.16691,0 -0.33255,-0.0872 -0.36808,-0.19381 -0.0355,-0.1066 -0.80016,0.57281 -1.69917,1.50978 -0.89902,0.93698 -2.05806,2.00401 -2.57566,2.37118 -5.16993,3.66742 -11.04424,2.91059 -15.98173,-2.05903 l -1.20077,-1.20858 -2.30961,1.11058 c -3.12383,1.50211 -4.68473,2.1722 -6.54447,2.80955 -5.65205,1.937 -12.97946,2.72995 -20.62537,2.232 z m 42.91356,-2.72707 c 1.39324,-0.4652 2.81497,-1.29875 4.08421,-2.39453 0.93326,-0.80572 2.98596,-3.25637 3.78186,-4.51505 1.69411,-2.67915 3.98809,-9.07774 4.65623,-12.98761 0.74147,-4.33895 0.93292,-6.43187 0.94197,-10.29769 0.01,-4.17673 -0.17789,-5.44239 -1.33976,-9.03521 -1.52349,-4.71111 -5.07394,-9.95103 -9.42846,-13.91499 -2.14347,-1.95122 -5.90488,-4.80964 -6.33098,-4.81112 -0.27097,-9.4e-4 -2.89294,2.00406 -4.6704,3.57142 -2.64156,2.32933 -5.63749,5.84239 -7.02271,8.23491 -0.36078,0.62312 -0.77012,1.23883 -0.90965,1.36822 -0.37077,0.34384 -2.09598,4.22835 -2.64959,5.96588 -0.89593,2.81191 -1.04926,3.95813 -1.03783,7.75823 0.0209,6.95385 0.86838,11.95893 3.00001,17.71795 1.44092,3.8929 2.6593,6.12093 4.84918,8.8676 3.39865,4.26277 7.80999,5.89639 12.07592,4.47199 z m -31.07162,-0.6176 c 4.14451,-0.591 7.13491,-1.37548 10.58388,-2.77648 3.18021,-1.29183 3.67926,-1.55687 3.74018,-1.9864 0.042,-0.29621 -0.0685,-0.40669 -0.62739,-0.62738 -1.4975,-0.5913 -4.39293,-2.16614 -6.24644,-3.39747 -3.3448,-2.22201 -5.08554,-3.71521 -9.35455,-8.0243 -2.2551,-2.27627 -4.2224,-4.13867 -4.3718,-4.13867 -0.6269,0 -4.32725,3.11295 -6.82247,5.73946 -2.88797,3.03993 -6.60729,7.92289 -8.69934,11.42104 -1.04156,1.74162 -1.17579,2.13148 -0.82724,2.40263 0.52207,0.40613 6.2508,1.27015 11.09692,1.67365 1.78764,0.14885 9.88788,-0.0522 11.52825,-0.28608 z m 73.16909,6.3e-4 c 1.7071,-0.20623 8.0081,-1.18893 8.11723,-1.26596 0.0218,-0.0154 -0.0977,-0.4271 -0.26554,-0.91494 -0.54057,-1.57124 -4.75785,-7.62554 -7.6122,-10.92809 -1.78755,-2.06823 -4.10882,-4.39735 -5.96441,-5.98456 -1.92037,-1.64263 -4.47848,-3.42625 -4.91399,-3.42625 -0.21519,0 -0.85605,0.61141 -1.93175,1.84295 -2.1322,2.44111 -6.29441,6.67158 -8.05471,8.18681 -3.04097,2.61758 -6.70719,5.01793 -9.48924,6.21278 -0.56073,0.24083 -1.08151,0.49111 -1.15729,0.55618 -0.1769,0.15189 3.3239,1.90111 5.86269,2.92937 3.7166,1.5053 7.50269,2.44185 11.84195,2.92928 2.60516,0.29264 10.68389,0.21068 13.56726,-0.13764 z m -57.71967,-6.12777 c 0,-0.0423 -0.57248,-1.25982 -1.27219,-2.70561 -1.58228,-3.26946 -2.18969,-4.92542 -2.97784,-8.11836 -1.43961,-5.83208 -2.12253,-12.26786 -1.7226,-16.23365 0.21739,-2.15572 0.80827,-4.89626 1.44403,-6.6975 0.4622,-1.30951 2.50876,-5.82209 2.89401,-6.38117 0.17614,-0.25561 0.14501,-0.37245 -0.22983,-0.86266 -0.23846,-0.31186 -0.7181,-0.95521 -1.06587,-1.42967 -1.18187,-1.6124 -4.08716,-4.77943 -5.53401,-6.03258 -6.48476,-5.61655 -14.62778,-9.09597 -23.16455,-9.89796 l -1.12212,-0.10542 -0.1663,0.84224 c -1.28993,6.53249 -1.01359,14.1793 0.77041,21.31893 0.79431,3.17889 2.43784,7.41507 3.95225,10.18687 2.23118,4.08371 6.64755,9.76016 11.33257,14.56599 5.53053,5.67314 10.19758,9.03175 15.52884,11.17522 1.12177,0.45101 1.3332,0.51053 1.3332,0.37533 z m 28.54614,-1.75951 c 4.17885,-2.23495 10.17365,-7.33489 14.74263,-12.54198 2.05636,-2.34355 5.45864,-6.85566 7.07867,-9.38776 5.04006,-7.87753 7.38604,-17.20252 6.86804,-27.29966 -0.15095,-2.9426 -0.65954,-6.91924 -0.91798,-7.17768 -0.38394,-0.38394 -5.64379,0.518 -9.04385,1.5508 -7.46565,2.26777 -13.96753,6.50187 -19.04824,12.40442 -0.75248,0.8742 -1.65758,2.01567 -2.01134,2.53659 l -0.64319,0.94714 0.54854,0.81512 c 2.05963,3.06059 3.68238,7.31597 4.40377,11.54806 0.20754,1.21753 0.24014,2.27578 0.17722,5.75194 -0.0826,4.56206 -0.26822,6.36303 -1.06965,10.37693 -0.58751,2.94254 -0.86435,3.88899 -2.11039,7.21496 -0.54942,1.46652 -1.04598,2.96332 -1.10348,3.32621 l -0.10453,0.65982 0.60714,-0.0898 c 0.33392,-0.0494 1.06591,-0.3352 1.62664,-0.63508 z m -55.7602,-12.56911 c 0.53896,-0.50417 1.60667,-1.39889 2.37269,-1.98826 0.76601,-0.58937 1.45135,-1.12125 1.52297,-1.18196 0.0716,-0.0607 -0.322,-0.70113 -0.87471,-1.42316 -3.76436,-4.91761 -6.00357,-9.07717 -7.8459,-14.5746 -1.27969,-3.81854 -2.11405,-8.2606 -2.26396,-12.05306 l -0.0955,-2.41524 -2.54842,0.10446 c -4.10225,0.16813 -7.94202,0.69169 -11.63469,1.58639 -2.40791,0.58341 -2.7074,0.73636 -2.7074,1.38263 0,0.78268 1.13547,4.53286 2.14174,7.07366 3.60199,9.09484 9.51526,16.73088 17.06532,22.03709 1.63161,1.14671 3.56344,2.36873 3.74461,2.36873 0.0788,0 0.58424,-0.41251 1.12321,-0.91668 z m 83.37654,-0.98318 c 6.99967,-4.81797 12.63153,-11.35413 16.62066,-19.28942 1.67425,-3.33046 3.54669,-8.33982 3.37421,-9.02703 -0.10066,-0.40108 -0.823,-0.7028 -3.4588,-1.44471 -4.18426,-1.17776 -8.96962,-1.8963 -12.66539,-1.90174 l -1.68611,-0.002 v 1.40359 c 0,2.48958 -0.86118,7.73077 -1.81823,11.06574 -1.20383,4.19496 -3.78307,9.49115 -6.38733,13.11567 -1.09657,1.52618 -1.24359,1.80904 -1.12856,2.17143 0.0517,0.16301 0.74643,0.75881 1.54378,1.324 0.79734,0.5652 2.08028,1.55846 2.85098,2.20726 0.77069,0.64879 1.44366,1.17962 1.49549,1.17962 0.0518,0 0.61851,-0.36087 1.2593,-0.80193 z m -56.06127,-26.84234 c 0.26204,-0.28036 0.80501,-0.93324 1.2066,-1.45083 0.40159,-0.5176 1.02233,-1.27406 1.37943,-1.68103 l 0.64928,-0.73994 -0.28131,-0.42933 c -0.53781,-0.8208 -8.32074,-8.49217 -10.11332,-9.96837 -5.01983,-4.13382 -10.26738,-7.54459 -15.21415,-9.88879 -6.88152,-3.26104 -14.44633,-5.44661 -21.80172,-6.29879 -2.67744,-0.3102 -2.57639,-0.31484 -2.81402,0.12916 -0.43949,0.8212 0.78026,7.8185 2.24666,12.88839 1.34578,4.65282 2.92808,8.84932 3.47689,9.22124 0.24765,0.16783 0.89084,0.17742 3.38099,0.0504 l 3.07515,-0.15684 0.17392,-2.0527 c 0.17134,-2.02222 0.66191,-5.225 0.98292,-6.41713 l 0.16419,-0.60975 0.89131,0.10189 c 0.83334,0.0952 2.49068,0.40723 6.45938,1.21589 3.98643,0.81228 9.57574,3.06359 13.23977,5.33284 3.48164,2.15628 7.32623,5.52206 9.6348,8.43486 0.65184,0.82246 1.42294,1.79535 1.71355,2.16198 0.29062,0.36663 0.65098,0.66659 0.80081,0.66659 0.14984,0 0.48683,-0.22938 0.74887,-0.50975 z m 26.31987,-1.84226 c 2.67103,-3.32383 6.27627,-6.52904 9.92218,-8.82124 3.29033,-2.06864 8.06992,-4.25218 11.41663,-5.21562 2.80448,-0.80736 9.00218,-1.72778 9.3425,-1.38746 0.37852,0.37853 1.24163,6.22358 1.24687,8.44394 0.001,0.60386 0.0545,1.17555 0.11783,1.27041 0.072,0.10783 1.17347,0.21183 2.93848,0.27745 1.55278,0.0577 2.9823,0.14723 3.1767,0.19887 0.32166,0.0854 0.43214,-0.0736 1.22827,-1.7675 2.07767,-4.42072 3.91241,-9.66846 4.84587,-13.86018 1.05485,-4.73681 1.41056,-7.61215 0.98537,-7.96503 -0.59261,-0.49182 -8.79551,0.61836 -13.14971,1.77969 -2.4712,0.65911 -7.96232,2.50047 -9.77777,3.27883 -9.23226,3.95823 -17.81685,10.19439 -25.68669,18.65974 -1.2781,1.37482 -2.32382,2.57802 -2.32382,2.67378 0,0.0958 0.28832,0.45311 0.64072,0.79412 0.35239,0.341 1.14271,1.23759 1.75626,1.99242 1.51699,1.86628 1.53943,1.8639 3.32031,-0.35222 z m -21.57804,-4.826 c -0.11898,-0.16988 -1.23797,-1.48788 -2.48664,-2.92889 -2.81233,-3.24556 -3.47157,-4.11352 -4.16313,-5.48123 -0.60841,-1.20327 -0.67015,-1.72989 -0.26461,-2.25681 l 0.2744,-0.35652 0.64639,0.47536 c 1.32268,0.97271 3.40515,3.90961 5.69161,8.02686 0.70236,1.26474 1.37958,2.33889 1.50492,2.38699 0.29908,0.11477 0.65272,-0.0279 0.75959,-0.30638 0.047,-0.12242 -0.34061,-1.44036 -0.8613,-2.92875 -2.19313,-6.26905 -2.78913,-8.72218 -2.55249,-10.50607 0.10612,-0.79991 0.67772,-1.68935 1.08569,-1.68935 0.28083,0 0.93843,1.1353 1.50956,2.60613 0.53448,1.37647 1.36496,4.77927 1.87127,7.66734 0.19661,1.12146 0.43225,2.09087 0.52366,2.15425 0.339,0.23505 0.96552,0.0991 1.46925,-0.31887 l 0.51882,-0.43047 -0.26978,-2.81989 c -0.3475,-3.63233 -0.39776,-11.16467 -0.0837,-12.53646 0.29763,-1.29981 0.48525,-1.65482 0.87454,-1.65482 0.54176,0 0.9809,0.4189 1.27231,1.21368 0.44968,1.22646 0.4879,5.87878 0.0846,10.29527 -0.46839,5.12904 -0.5068,4.76462 0.57557,5.4605 1.40462,0.90305 1.39738,0.90331 1.58841,-0.0576 0.0913,-0.45927 0.27799,-1.50555 0.41485,-2.32508 0.36599,-2.19142 0.9555,-4.7394 1.48784,-6.43072 0.48611,-1.54445 1.35114,-3.31006 1.67102,-3.4107 0.10098,-0.0318 0.41859,0.15238 0.70581,0.40924 l 0.52221,0.46701 -0.0103,1.77697 c -0.0123,2.12522 -0.43996,3.87291 -2.03466,8.31445 -0.55748,1.55269 -1.0136,2.96998 -1.0136,3.14955 0,0.49502 0.45634,0.90098 1.00461,0.8937 0.44142,-0.006 0.5975,-0.17123 1.72121,-1.82361 2.29263,-3.37125 4.42337,-5.80081 5.64054,-6.43157 0.40149,-0.20805 0.47523,-0.20409 0.74503,0.0401 0.3926,0.35531 0.37583,0.75862 -0.0712,1.71241 -0.53326,1.13777 -1.41475,2.1948 -4.20532,5.04281 -1.36519,1.39329 -2.48216,2.64931 -2.48216,2.79116 0,0.14185 0.18201,0.43992 0.40448,0.66239 l 0.40447,0.40447 1.02955,-1.15663 c 0.56625,-0.63614 2.75504,-2.88031 4.86398,-4.98703 l 3.83444,-3.83041 -0.1742,-2.91401 c -0.70076,-11.72226 -3.48759,-22.58294 -8.80901,-34.32991 -1.88805,-4.16785 -4.87212,-9.77796 -6.82401,-12.82925 -0.58626,-0.91647 -1.05533,-1.09523 -1.50583,-0.57386 -0.78412,0.90748 -4.52061,7.62858 -6.12189,11.01191 -5.7748,12.20155 -8.87349,23.75157 -10.09154,37.61515 l -0.25189,2.86697 4.44498,4.52705 4.44497,4.52705 0.45147,-0.43749 c 0.40403,-0.39151 0.42874,-0.46995 0.23513,-0.74635 z M 155.2944,376.44931 c 0.37672,-0.34932 0.41225,-0.50455 0.51094,-2.23259 0.21303,-3.72991 0.76444,-7.70032 1.69626,-12.21403 0.92654,-4.48814 0.94933,-3.93739 -0.20961,-5.06555 -2.64579,-2.57552 -7.18848,-5.67168 -11.48467,-7.82761 -2.05111,-1.0293 -6.05218,-2.71311 -6.44688,-2.71311 -0.62364,0 -3.06201,7.60047 -3.74881,11.68509 -0.50417,2.99852 -0.87752,6.49558 -0.73383,6.87353 0.10553,0.27757 0.54239,0.5493 1.6842,1.04762 6.36384,2.77731 11.96649,6.01295 16.52059,9.54094 0.90579,0.7017 1.68291,1.27701 1.72692,1.27847 0.044,10e-4 0.26222,-0.16629 0.48489,-0.37276 z m 40.36433,-2.21658 c 4.81809,-3.58242 10.18664,-6.57112 15.80509,-8.79875 l 2.30845,-0.91526 -0.0832,-1.1796 c -0.40095,-5.68142 -1.35544,-10.53573 -2.98474,-15.17959 -0.70405,-2.00673 -0.76848,-2.03575 -2.88211,-1.29811 -3.77015,1.31575 -7.33732,3.08472 -10.90459,5.40763 -1.98506,1.29261 -4.81722,3.39372 -6.09146,4.51909 l -0.76238,0.67333 0.56222,2.42745 c 0.97762,4.22098 1.64292,8.51898 1.97817,12.77936 0.20882,2.65386 0.32916,3.04278 0.90724,2.93227 0.22783,-0.0435 1.19414,-0.65907 2.14736,-1.36782 z"
     id="path2322" />
</svg>
