<?xml version="1.0" encoding="UTF-8"?>
<svg version="1.1" viewBox="0 0 256 256" xmlns="http://www.w3.org/2000/svg">
 <defs>
  <filter id="blur" x="-.11719" y="-.15625" width="1.2344" height="1.3125">
   <feGaussianBlur in="SourceGraphic" stdDeviation="50"/>
  </filter>
  <clipPath id="clipPath1304">
   <path d="m174.29 322.26c-0.01 0-0.31 0.37-0.65 0.82-0.34 0.46-0.92 1.29-1.28 1.84-0.37 0.56-0.89 1.37-1.15 1.79-0.27 0.43-0.7 1.13-0.96 1.56-0.25 0.43-0.67 1.13-0.91 1.56-0.25 0.43-0.68 1.19-0.96 1.7-0.28 0.5-0.7 1.28-0.94 1.73s-0.78 1.51-1.21 2.36c-0.42 0.84-0.94 1.89-1.15 2.33s-0.6 1.28-0.87 1.87c-0.26 0.59-0.72 1.63-1.01 2.3-0.29 0.68-0.73 1.75-0.98 2.38-0.26 0.63-0.62 1.57-0.81 2.08-0.2 0.52-0.51 1.38-0.7 1.93-0.2 0.55-0.45 1.29-0.57 1.66-0.12 0.36-0.31 0.96-0.43 1.34-0.12 0.37-0.32 1.04-0.45 1.48-0.12 0.44-0.29 1.04-0.37 1.32-0.08 0.29-0.15 0.54-0.16 0.54-0.01 0.01-0.14-0.09-0.3-0.22-0.16-0.14-0.59-0.5-0.97-0.82-0.37-0.31-0.94-0.78-1.27-1.04-0.32-0.26-0.8-0.63-1.05-0.82s-0.68-0.51-0.95-0.7-0.72-0.51-1.01-0.7-1.02-0.66-1.62-1.03c-0.6-0.38-1.3-0.81-1.55-0.96-0.26-0.15-0.79-0.45-1.18-0.67-0.38-0.21-1.11-0.6-1.61-0.85-0.51-0.26-1.13-0.56-1.39-0.68-0.26-0.13-0.73-0.34-1.05-0.48s-0.94-0.41-1.38-0.59c-0.44-0.17-1.01-0.4-1.28-0.5-0.26-0.1-0.73-0.26-1.03-0.37-0.3-0.1-0.88-0.29-1.29-0.42s-0.92-0.28-1.15-0.34c-0.22-0.05-0.44-0.1-0.47-0.11-0.05-0.01-0.16 0.13-0.42 0.59-0.19 0.34-0.46 0.84-0.6 1.12s-0.37 0.77-0.52 1.11c-0.14 0.33-0.33 0.78-0.41 0.99-0.09 0.22-0.29 0.73-0.44 1.15-0.16 0.42-0.43 1.2-0.6 1.73-0.18 0.54-0.44 1.36-0.57 1.83-0.14 0.48-0.33 1.21-0.44 1.64s-0.28 1.14-0.38 1.57c-0.09 0.44-0.24 1.15-0.33 1.6-0.08 0.44-0.24 1.43-0.35 2.21-0.11 0.77-0.29 2.11-0.41 2.99-0.11 0.87-0.21 1.59-0.22 1.6s-0.39-0.1-0.84-0.25c-0.44-0.15-1.26-0.39-1.8-0.54-0.55-0.15-1.41-0.39-1.92-0.53s-1.29-0.34-1.73-0.45c-0.45-0.11-1.16-0.28-1.59-0.37s-1.15-0.24-1.59-0.33c-0.45-0.09-1.12-0.21-1.5-0.27-0.38-0.07-1.07-0.17-1.53-0.23-0.46-0.07-1.15-0.16-1.54-0.2-0.38-0.04-1.11-0.12-1.61-0.16-0.72-0.07-1.33-0.09-2.8-0.1l-1.88-0.03v0.91c0 0.51 0.02 1.26 0.04 1.67 0.02 0.42 0.08 1.17 0.12 1.66s0.12 1.25 0.18 1.68c0.05 0.43 0.13 1.02 0.17 1.32 0.05 0.3 0.14 0.91 0.22 1.36 0.07 0.45 0.22 1.26 0.33 1.81s0.28 1.38 0.39 1.85c0.1 0.48 0.32 1.37 0.48 1.99s0.4 1.53 0.54 2.01 0.37 1.24 0.51 1.69 0.39 1.24 0.57 1.76c0.17 0.51 0.48 1.38 0.68 1.92 0.21 0.54 0.51 1.33 0.68 1.75s0.4 0.97 0.5 1.23c0.11 0.26 0.2 0.47 0.19 0.48s-0.12 0.03-0.25 0.05c-0.12 0.02-0.55 0.09-0.95 0.16-0.39 0.06-1.12 0.19-1.61 0.29-0.5 0.1-1.21 0.25-1.58 0.33-0.38 0.09-0.92 0.22-1.21 0.3-0.29 0.07-0.85 0.22-1.24 0.33-0.4 0.11-1.15 0.35-1.66 0.52-0.51 0.18-1.23 0.43-1.59 0.57-0.35 0.14-0.66 0.26-0.67 0.27s0.02 0.37 0.06 0.8c0.04 0.42 0.1 0.89 0.12 1.03 0.02 0.13 0.08 0.48 0.14 0.75 0.05 0.28 0.17 0.84 0.27 1.23 0.09 0.4 0.26 1.04 0.37 1.44 0.1 0.39 0.32 1.11 0.47 1.59 0.15 0.49 0.41 1.28 0.58 1.76 0.17 0.49 0.5 1.34 0.72 1.89 0.22 0.56 0.57 1.4 0.77 1.86 0.21 0.47 0.57 1.26 0.81 1.75 0.24 0.5 0.62 1.26 0.85 1.69 0.22 0.43 0.6 1.14 0.85 1.58s0.65 1.13 0.9 1.54c0.24 0.4 0.67 1.08 0.95 1.51 0.27 0.43 0.74 1.12 1.03 1.54 0.3 0.42 0.81 1.12 1.14 1.56s0.82 1.07 1.09 1.4c0.26 0.34 0.69 0.85 0.93 1.14 0.25 0.28 0.6 0.69 0.78 0.89s0.7 0.76 1.15 1.24 1.22 1.25 1.72 1.72c0.49 0.47 1.13 1.06 1.42 1.31 0.29 0.26 0.78 0.67 1.09 0.93s0.78 0.64 1.03 0.84c0.26 0.21 0.68 0.53 0.94 0.73 0.26 0.19 0.69 0.51 0.97 0.71s0.9 0.62 1.37 0.94c0.47 0.31 0.89 0.59 0.93 0.61 0.06 0.03 0.07 0.06 0.04 0.1-0.02 0.03-0.24 0.27-0.49 0.54-0.24 0.26-0.69 0.76-0.99 1.1-0.3 0.35-0.78 0.9-1.06 1.23s-0.79 0.96-1.14 1.4-0.94 1.2-1.31 1.7c-0.36 0.49-0.92 1.25-1.23 1.69s-0.85 1.22-1.19 1.73c-0.34 0.52-0.91 1.4-1.27 1.97-0.35 0.57-0.86 1.4-1.12 1.85s-0.66 1.15-0.88 1.56-0.74 1.4-1.15 2.21c-0.4 0.81-0.73 1.48-0.73 1.49 0.01 0 0.6 0.17 1.3 0.38 0.71 0.21 1.53 0.44 1.83 0.51s0.94 0.22 1.42 0.33c0.49 0.11 1.29 0.27 1.78 0.37s1.14 0.22 1.44 0.27c0.3 0.06 0.93 0.16 1.4 0.24 0.47 0.07 1.31 0.2 1.85 0.27 0.55 0.08 1.49 0.19 2.09 0.26 0.6 0.06 1.39 0.14 1.77 0.17 0.37 0.04 1.07 0.09 1.56 0.12 0.48 0.03 1.31 0.08 1.85 0.1 0.53 0.03 1.84 0.04 2.9 0.04s2.36-0.02 2.9-0.04 1.43-0.08 1.99-0.12c0.55-0.04 1.27-0.1 1.59-0.14 0.32-0.03 0.93-0.1 1.35-0.15 0.41-0.06 1.04-0.14 1.38-0.2 0.34-0.05 0.91-0.15 1.27-0.21 0.35-0.07 0.95-0.19 1.34-0.27 0.39-0.09 1.03-0.23 1.42-0.33 0.4-0.1 1.03-0.27 1.4-0.38 0.38-0.11 1.05-0.32 1.5-0.47s1.08-0.38 1.41-0.5c0.32-0.12 1.18-0.48 1.9-0.81 0.73-0.32 1.72-0.76 2.21-0.98 0.48-0.23 1.38-0.66 2.01-0.97l1.13-0.57 0.45 0.48c0.24 0.27 0.69 0.72 1.01 1.01 0.31 0.28 0.77 0.68 1.02 0.89 0.25 0.2 0.65 0.5 0.89 0.67 0.24 0.16 0.63 0.42 0.87 0.56 0.24 0.15 0.69 0.39 0.98 0.54 0.3 0.14 0.69 0.33 0.87 0.4 0.18 0.08 0.51 0.2 0.74 0.28 0.22 0.08 0.61 0.19 0.85 0.26 0.25 0.06 0.7 0.16 1.01 0.21 0.3 0.05 0.85 0.11 1.22 0.14 0.46 0.02 0.88 0.02 1.32 0 0.35-0.02 0.81-0.07 1.02-0.1s0.59-0.1 0.84-0.16c0.25-0.05 0.74-0.19 1.08-0.31 0.34-0.11 0.81-0.29 1.03-0.39 0.23-0.1 0.59-0.27 0.81-0.38 0.22-0.12 0.62-0.36 0.9-0.53 0.27-0.17 0.69-0.46 0.93-0.63 0.24-0.18 0.64-0.51 0.89-0.72 0.26-0.22 0.76-0.69 1.11-1.05 0.35-0.37 0.83-0.88 1.05-1.15 0.23-0.27 0.47-0.57 0.55-0.67 0.07-0.1 0.14-0.18 0.15-0.18 0.01-0.01 0.27 0.13 0.57 0.29s1.09 0.56 1.75 0.89 1.6 0.78 2.08 1c0.49 0.21 1.33 0.58 1.87 0.81 0.55 0.24 1.27 0.53 1.6 0.67 0.33 0.13 0.95 0.37 1.38 0.52 0.43 0.16 1.1 0.38 1.48 0.5 0.39 0.12 0.92 0.28 1.19 0.35 0.27 0.08 0.66 0.18 0.86 0.24 0.2 0.05 0.71 0.17 1.13 0.27s1.08 0.24 1.47 0.31c0.39 0.08 1.09 0.21 1.54 0.28s1.17 0.18 1.58 0.23c0.42 0.06 1.11 0.14 1.52 0.18 0.42 0.04 1.12 0.1 1.56 0.13 0.44 0.04 1.14 0.08 1.56 0.1 0.42 0.03 1.49 0.05 2.38 0.07 0.96 0.01 2.16 0 2.96-0.02 0.74-0.03 1.76-0.08 2.28-0.11 0.51-0.03 1.24-0.08 1.61-0.11 0.38-0.03 1.04-0.1 1.48-0.14 0.44-0.05 1.22-0.13 1.73-0.2 0.51-0.06 1.29-0.16 1.73-0.23 0.45-0.06 1.17-0.18 1.62-0.25 0.45-0.08 1.18-0.21 1.64-0.29 0.45-0.09 1.16-0.23 1.58-0.32 0.42-0.08 1.19-0.26 1.72-0.38 0.52-0.13 1.32-0.34 1.77-0.47s1.05-0.3 1.33-0.38c0.29-0.09 0.53-0.17 0.54-0.18s-0.34-0.74-0.78-1.61-1.02-1.99-1.29-2.47c-0.28-0.48-0.76-1.31-1.08-1.85-0.32-0.53-0.8-1.3-1.06-1.71s-0.7-1.09-0.98-1.51c-0.29-0.42-0.77-1.13-1.08-1.56-0.3-0.43-0.89-1.24-1.31-1.8s-1.01-1.33-1.32-1.71c-0.31-0.39-0.79-0.98-1.07-1.31s-0.74-0.87-1.02-1.19-0.75-0.84-1.04-1.15c-0.28-0.31-0.78-0.83-1.1-1.15-0.32-0.33-0.57-0.61-0.56-0.61 0-0.01 0.3-0.22 0.65-0.46 0.36-0.24 0.88-0.6 1.15-0.81 0.28-0.2 0.82-0.61 1.19-0.9 0.38-0.29 0.94-0.73 1.25-0.99s0.81-0.69 1.11-0.95c0.3-0.27 0.92-0.84 1.38-1.27 0.45-0.43 1.16-1.13 1.57-1.56s0.96-1.02 1.22-1.31 0.66-0.74 0.89-1.01 0.7-0.83 1.03-1.25c0.34-0.41 0.82-1.04 1.08-1.38s0.68-0.92 0.94-1.29c0.26-0.36 0.72-1.04 1.03-1.51s0.74-1.14 0.95-1.48c0.21-0.35 0.58-0.97 0.82-1.39 0.24-0.41 0.56-1 0.72-1.3 0.17-0.3 0.52-0.99 0.79-1.52 0.26-0.54 0.62-1.28 0.79-1.66 0.18-0.37 0.45-0.99 0.62-1.38 0.16-0.38 0.38-0.91 0.49-1.18s0.3-0.78 0.43-1.12 0.36-1.01 0.53-1.48c0.16-0.47 0.39-1.2 0.51-1.61 0.13-0.42 0.31-1.08 0.41-1.47 0.09-0.38 0.26-1.17 0.38-1.74 0.11-0.59 0.18-1.06 0.16-1.08-0.02-0.01-0.38-0.2-0.81-0.42-0.43-0.21-1-0.48-1.26-0.58-0.27-0.11-0.79-0.31-1.17-0.44-0.37-0.13-1.04-0.35-1.5-0.48-0.45-0.14-1.19-0.35-1.64-0.47s-1.13-0.29-1.52-0.37c-0.38-0.09-1.09-0.24-1.56-0.34-0.47-0.09-1.13-0.21-1.48-0.27-0.34-0.05-0.66-0.11-0.7-0.12l-0.08-0.01 0.51-1.12c0.29-0.62 0.68-1.49 0.87-1.94s0.48-1.15 0.65-1.56c0.16-0.41 0.44-1.11 0.6-1.56 0.17-0.45 0.42-1.13 0.55-1.52 0.13-0.38 0.4-1.22 0.6-1.87 0.2-0.64 0.44-1.4 0.52-1.69 0.09-0.29 0.27-0.92 0.4-1.41 0.13-0.48 0.32-1.22 0.43-1.65 0.1-0.43 0.26-1.09 0.34-1.48 0.09-0.39 0.23-1.06 0.31-1.5 0.09-0.44 0.22-1.16 0.3-1.6 0.07-0.44 0.18-1.11 0.24-1.5 0.05-0.38 0.13-1 0.17-1.36 0.04-0.37 0.11-0.96 0.14-1.31s0.07-1.14 0.08-1.76l0.03-1.13-2.01 0.02c-1.26 0.02-2.31 0.05-2.84 0.09-0.46 0.03-1.19 0.09-1.63 0.14-0.44 0.04-1.08 0.11-1.42 0.15-0.35 0.05-0.93 0.13-1.29 0.18s-1.07 0.17-1.57 0.25c-0.51 0.09-1.35 0.25-1.88 0.36-0.52 0.1-1.25 0.26-1.61 0.35-0.36 0.08-1.07 0.25-1.57 0.38s-1.66 0.45-2.57 0.7c-0.91 0.26-1.66 0.47-1.67 0.46s-0.05-0.47-0.1-1.03c-0.04-0.55-0.1-1.29-0.13-1.63-0.04-0.34-0.1-0.9-0.14-1.24-0.04-0.35-0.17-1.15-0.28-1.8-0.1-0.64-0.28-1.6-0.38-2.14-0.11-0.54-0.29-1.35-0.39-1.81-0.11-0.46-0.28-1.15-0.37-1.52-0.1-0.38-0.31-1.13-0.47-1.68-0.16-0.56-0.43-1.45-0.61-1.99s-0.44-1.27-0.57-1.63c-0.13-0.35-0.36-0.9-0.49-1.23-0.14-0.32-0.43-0.92-0.63-1.32-0.2-0.39-0.38-0.72-0.39-0.72s-0.22 0.05-0.47 0.11c-0.26 0.07-0.63 0.16-0.85 0.2-0.21 0.05-0.67 0.16-1.01 0.26-0.35 0.1-0.95 0.28-1.35 0.41-0.39 0.13-1.02 0.35-1.38 0.48-0.37 0.14-1.04 0.4-1.48 0.58-0.45 0.18-1.17 0.48-1.6 0.67s-1.36 0.64-2.08 1-1.66 0.84-2.09 1.08c-0.42 0.24-1.11 0.64-1.53 0.89-0.42 0.24-1.07 0.65-1.46 0.89-0.39 0.25-1.03 0.67-1.42 0.94-0.4 0.27-1.01 0.7-1.37 0.95-0.35 0.26-0.96 0.71-1.34 1.01-0.39 0.29-0.99 0.77-1.35 1.06-0.35 0.29-0.64 0.52-0.65 0.52-0.01-0.01-0.12-0.41-0.26-0.89s-0.37-1.25-0.51-1.71-0.41-1.3-0.6-1.87c-0.19-0.56-0.49-1.43-0.66-1.92-0.18-0.5-0.52-1.42-0.77-2.05-0.24-0.64-0.64-1.63-0.88-2.22-0.25-0.59-0.6-1.42-0.79-1.85s-0.59-1.32-0.9-1.99c-0.3-0.66-0.82-1.76-1.14-2.43-0.33-0.68-0.83-1.69-1.12-2.26s-0.69-1.33-0.88-1.7c-0.19-0.36-0.57-1.06-0.84-1.55-0.27-0.5-0.77-1.39-1.11-1.99s-0.88-1.52-1.19-2.05c-0.32-0.52-0.8-1.31-1.07-1.75-0.28-0.44-0.75-1.17-1.05-1.63-0.3-0.47-0.85-1.24-1.23-1.73-0.37-0.48-0.69-0.88-0.71-0.88zm-0.09 5.36c0.03 0.04 0.25 0.4 0.49 0.79 0.25 0.4 0.68 1.1 0.95 1.58 0.28 0.47 0.76 1.28 1.06 1.81 0.29 0.52 0.78 1.39 1.07 1.93 0.29 0.53 0.79 1.49 1.12 2.12s0.78 1.53 1 1.99c0.23 0.46 0.58 1.18 0.78 1.61s0.58 1.24 0.83 1.8 0.65 1.45 0.87 1.98c0.23 0.53 0.56 1.31 0.73 1.73s0.47 1.17 0.67 1.66c0.19 0.49 0.49 1.27 0.66 1.73s0.45 1.23 0.61 1.7c0.17 0.47 0.49 1.42 0.72 2.1 0.22 0.69 0.52 1.62 0.66 2.07s0.38 1.24 0.53 1.77c0.15 0.52 0.45 1.66 0.67 2.53 0.21 0.87 0.5 2.09 0.64 2.71 0.13 0.62 0.34 1.63 0.46 2.24s0.28 1.53 0.37 2.04c0.09 0.52 0.2 1.23 0.25 1.58 0.06 0.35 0.16 1.05 0.22 1.54 0.07 0.49 0.15 1.2 0.2 1.58 0.04 0.37 0.11 1.05 0.15 1.5s0.1 1.16 0.14 1.57c0.03 0.42 0.08 1.23 0.12 1.8 0.03 0.56 0.06 1.43 0.08 1.92l0.02 0.9-0.44 0.39c-0.24 0.21-1.71 1.66-3.27 3.21-1.55 1.56-3.1 3.12-3.43 3.47s-0.83 0.91-1.12 1.23-0.6 0.66-0.69 0.76l-0.16 0.19-0.14-0.12c-0.08-0.07-0.14-0.13-0.14-0.15 0-0.01 0.73-0.73 1.62-1.59 0.9-0.86 1.86-1.79 2.13-2.08 0.28-0.29 0.71-0.74 0.95-1 0.25-0.27 0.62-0.71 0.83-0.98 0.22-0.26 0.52-0.67 0.68-0.91s0.37-0.61 0.48-0.83 0.26-0.56 0.32-0.76c0.11-0.3 0.13-0.42 0.13-0.71v-0.35l-0.14-0.29c-0.08-0.17-0.22-0.39-0.32-0.49-0.09-0.11-0.26-0.25-0.37-0.31-0.17-0.09-0.24-0.11-0.37-0.09-0.09 0.01-0.34 0.11-0.55 0.22s-0.58 0.34-0.82 0.51c-0.26 0.2-0.7 0.6-1.13 1.03-0.38 0.38-0.91 0.95-1.17 1.27-0.26 0.31-0.67 0.82-0.91 1.13s-0.69 0.9-0.99 1.32-0.9 1.29-1.34 1.95c-0.44 0.65-0.81 1.2-0.83 1.22s-0.1-0.02-0.18-0.1c-0.09-0.07-0.21-0.17-0.28-0.21-0.08-0.05-0.11-0.09-0.1-0.13s0.31-0.84 0.66-1.79c0.35-0.96 0.76-2.1 0.91-2.54 0.16-0.45 0.38-1.1 0.49-1.47 0.12-0.36 0.28-0.9 0.37-1.2s0.23-0.83 0.31-1.18c0.09-0.36 0.21-0.88 0.26-1.17s0.12-0.74 0.15-0.99c0.04-0.26 0.07-0.7 0.09-0.99 0.01-0.3 0-0.73-0.02-0.97-0.02-0.23-0.07-0.57-0.11-0.74-0.03-0.17-0.11-0.41-0.17-0.54s-0.2-0.33-0.31-0.45c-0.11-0.13-0.32-0.31-0.47-0.4-0.15-0.1-0.37-0.22-0.49-0.26s-0.29-0.08-0.36-0.07c-0.08 0-0.19 0.02-0.25 0.04-0.06 0.03-0.19 0.15-0.29 0.26-0.09 0.12-0.24 0.32-0.33 0.44-0.08 0.12-0.24 0.4-0.36 0.62-0.12 0.23-0.28 0.55-0.36 0.74-0.07 0.18-0.22 0.56-0.33 0.84-0.1 0.29-0.29 0.84-0.4 1.22-0.12 0.39-0.31 1.08-0.43 1.55s-0.3 1.26-0.41 1.77c-0.11 0.5-0.28 1.37-0.39 1.94-0.1 0.57-0.27 1.52-0.37 2.12l-0.2 1.2-0.02 0.11-0.12-0.06c-0.06-0.04-0.19-0.13-0.27-0.21-0.09-0.08-0.35-0.26-0.58-0.41l-0.41-0.28 0.01-0.27c0.01-0.15 0.08-0.92 0.15-1.71 0.08-0.8 0.2-2.09 0.27-2.89 0.07-0.79 0.16-1.82 0.19-2.29 0.04-0.48 0.08-1.19 0.1-1.6s0.04-1.23 0.04-1.83-0.02-1.35-0.04-1.66-0.07-0.77-0.1-1.03-0.1-0.67-0.15-0.93c-0.06-0.25-0.16-0.62-0.22-0.82-0.06-0.19-0.18-0.48-0.25-0.63-0.09-0.19-0.2-0.34-0.33-0.46-0.11-0.1-0.31-0.23-0.44-0.3-0.14-0.06-0.39-0.14-0.56-0.18-0.25-0.05-0.35-0.05-0.53-0.01-0.12 0.02-0.28 0.08-0.35 0.13s-0.16 0.16-0.21 0.24c-0.05 0.09-0.14 0.3-0.21 0.47s-0.17 0.5-0.23 0.74c-0.06 0.23-0.15 0.64-0.19 0.89-0.05 0.26-0.11 0.73-0.14 1.04s-0.08 0.89-0.1 1.28c-0.02 0.4-0.04 1.3-0.04 2.01s0.02 1.74 0.04 2.3c0.02 0.55 0.08 1.57 0.12 2.26 0.04 0.68 0.11 1.7 0.15 2.25 0.05 0.56 0.14 1.64 0.21 2.41l0.13 1.4-0.32 0.21c-0.18 0.11-0.39 0.27-0.48 0.35s-0.17 0.14-0.18 0.13c0-0.01-0.05-0.25-0.1-0.54-0.04-0.29-0.18-1.05-0.29-1.7-0.12-0.64-0.29-1.55-0.38-2.02-0.1-0.47-0.23-1.1-0.3-1.4s-0.2-0.86-0.29-1.24c-0.1-0.37-0.25-0.95-0.35-1.28-0.09-0.33-0.26-0.86-0.37-1.18s-0.31-0.83-0.43-1.13c-0.13-0.3-0.33-0.72-0.44-0.92-0.12-0.21-0.31-0.52-0.44-0.7-0.12-0.17-0.29-0.38-0.37-0.45s-0.22-0.15-0.3-0.17c-0.11-0.03-0.21-0.03-0.34 0-0.11 0.02-0.3 0.1-0.43 0.16-0.13 0.07-0.35 0.24-0.5 0.4-0.15 0.15-0.33 0.37-0.39 0.48-0.06 0.12-0.14 0.37-0.18 0.57-0.05 0.22-0.09 0.59-0.1 1-0.02 0.39-0.01 0.85 0.02 1.15 0.03 0.28 0.08 0.72 0.12 0.99 0.04 0.26 0.12 0.68 0.18 0.93 0.05 0.25 0.17 0.75 0.27 1.11 0.09 0.37 0.28 1.04 0.42 1.5s0.4 1.28 0.59 1.82c0.18 0.53 0.68 1.95 1.11 3.15 0.43 1.19 0.78 2.18 0.78 2.2 0 0.01-0.04-0.04-0.09-0.11-0.05-0.08-0.33-0.57-0.61-1.09-0.28-0.53-0.68-1.24-0.87-1.58s-0.47-0.84-0.62-1.09c-0.15-0.26-0.45-0.76-0.66-1.11-0.22-0.36-0.66-1.05-0.99-1.54-0.32-0.49-0.77-1.14-1-1.44s-0.53-0.69-0.67-0.86-0.45-0.51-0.69-0.75c-0.24-0.25-0.58-0.55-0.74-0.69-0.17-0.13-0.44-0.31-0.6-0.41-0.17-0.1-0.36-0.17-0.46-0.18-0.13-0.02-0.22 0-0.35 0.06-0.1 0.05-0.27 0.19-0.38 0.31s-0.27 0.37-0.36 0.55l-0.16 0.32v0.3c0 0.17 0.04 0.43 0.09 0.61 0.04 0.17 0.15 0.49 0.24 0.7 0.08 0.21 0.26 0.58 0.39 0.81 0.13 0.24 0.38 0.64 0.55 0.9s0.49 0.7 0.7 0.98c0.21 0.27 0.61 0.78 0.89 1.13 0.29 0.34 0.63 0.74 0.76 0.89s0.7 0.79 1.25 1.42c0.56 0.64 1.21 1.39 1.46 1.68s0.56 0.66 0.7 0.83l0.24 0.31-0.14 0.14-0.56-0.63c-0.3-0.35-0.83-0.94-1.18-1.31-0.35-0.38-1.7-1.75-2.99-3.05-1.3-1.31-2.63-2.61-2.96-2.9l-0.59-0.54 0.02-0.19c0.01-0.11 0.04-0.45 0.06-0.76 0.02-0.32 0.07-0.89 0.1-1.29s0.1-1.17 0.15-1.73c0.06-0.56 0.14-1.41 0.2-1.89 0.05-0.48 0.15-1.3 0.21-1.81 0.07-0.52 0.17-1.31 0.24-1.77 0.06-0.47 0.18-1.3 0.27-1.86 0.09-0.55 0.25-1.54 0.37-2.2 0.11-0.65 0.31-1.68 0.43-2.28 0.11-0.6 0.28-1.39 0.37-1.77 0.08-0.37 0.33-1.44 0.55-2.37 0.23-0.94 0.54-2.16 0.7-2.73 0.17-0.57 0.44-1.5 0.61-2.06 0.18-0.57 0.5-1.58 0.72-2.24 0.22-0.67 0.56-1.64 0.74-2.16 0.19-0.53 0.52-1.42 0.73-1.99s0.62-1.62 0.91-2.34 0.78-1.9 1.09-2.63c0.3-0.73 0.7-1.63 0.87-2.01 0.17-0.37 0.44-0.96 0.6-1.3s0.52-1.09 0.8-1.66c0.28-0.56 0.75-1.51 1.06-2.1s0.74-1.41 0.97-1.83c0.22-0.42 0.64-1.18 0.93-1.7 0.29-0.51 0.84-1.45 1.22-2.08s0.87-1.43 1.09-1.78c0.35-0.56 0.41-0.63 0.45-0.57zm35.38 19.3c0.04-0.01 0.14 0.19 0.31 0.66 0.14 0.37 0.39 1.1 0.56 1.61s0.44 1.38 0.59 1.93c0.16 0.55 0.38 1.34 0.49 1.77 0.1 0.43 0.26 1.1 0.35 1.48 0.08 0.39 0.22 1.06 0.31 1.5s0.21 1.12 0.27 1.52c0.07 0.4 0.17 1.11 0.24 1.58 0.06 0.47 0.15 1.21 0.19 1.63 0.05 0.43 0.11 1.14 0.14 1.58s0.07 1.06 0.08 1.38l0.03 0.59-0.58 0.21c-0.32 0.11-1.05 0.4-1.63 0.63s-1.4 0.57-1.83 0.76c-0.43 0.18-1.14 0.5-1.58 0.71-0.44 0.2-1.22 0.58-1.73 0.83-0.52 0.26-1.31 0.67-1.77 0.92-0.46 0.24-1.24 0.68-1.74 0.96-0.49 0.29-1.26 0.74-1.71 1.02-0.45 0.27-1.17 0.72-1.6 1s-1 0.66-1.27 0.84c-0.26 0.18-0.78 0.54-1.15 0.8-0.36 0.26-0.99 0.72-1.4 1.02-0.4 0.3-0.96 0.73-1.24 0.95-0.28 0.21-0.52 0.38-0.53 0.36-0.02-0.01-0.05-0.43-0.07-0.92-0.03-0.49-0.09-1.33-0.13-1.85-0.04-0.53-0.12-1.39-0.17-1.91-0.06-0.53-0.16-1.44-0.24-2.03-0.07-0.59-0.19-1.42-0.25-1.85-0.06-0.42-0.2-1.24-0.29-1.8-0.1-0.56-0.26-1.48-0.37-2.03s-0.31-1.51-0.45-2.13-0.35-1.53-0.48-2.03l-0.23-0.91 0.32-0.28c0.17-0.16 0.53-0.47 0.8-0.7 0.27-0.22 0.74-0.61 1.06-0.86 0.31-0.24 0.84-0.65 1.16-0.89 0.34-0.25 0.84-0.62 1.13-0.82s0.9-0.62 1.35-0.92c0.45-0.29 1.16-0.76 1.59-1.03s1.02-0.62 1.31-0.8c0.29-0.17 0.66-0.39 0.83-0.48 0.18-0.1 0.53-0.3 0.8-0.44 0.27-0.15 0.86-0.46 1.33-0.69 0.46-0.23 1.08-0.53 1.38-0.67s0.76-0.34 1.01-0.45c0.26-0.12 0.78-0.33 1.15-0.48 0.38-0.15 0.96-0.38 1.31-0.5 0.34-0.13 0.95-0.34 1.36-0.47s0.78-0.25 0.84-0.27c0.05-0.02 0.12-0.03 0.15-0.03zm-70.06 0.11 0.29 0.11c0.17 0.07 0.52 0.19 0.78 0.29s0.8 0.31 1.19 0.47 1 0.42 1.37 0.58c0.36 0.16 1 0.45 1.42 0.65s1.08 0.53 1.48 0.73c0.4 0.21 1.04 0.55 1.42 0.76 0.39 0.22 1.11 0.63 1.6 0.93s1.19 0.73 1.55 0.96 0.92 0.6 1.24 0.83c0.33 0.22 0.95 0.67 1.37 0.99 0.43 0.32 1.08 0.82 1.45 1.12 0.37 0.29 0.95 0.77 1.27 1.05 0.33 0.28 0.87 0.76 1.19 1.06 0.33 0.3 0.6 0.55 0.6 0.57 0 0.01-0.07 0.3-0.16 0.65-0.08 0.34-0.25 1.09-0.38 1.67s-0.33 1.49-0.43 2.03c-0.11 0.55-0.27 1.38-0.35 1.86-0.09 0.47-0.23 1.31-0.32 1.86-0.08 0.55-0.22 1.46-0.29 2.02-0.08 0.56-0.2 1.57-0.27 2.24-0.08 0.66-0.17 1.64-0.22 2.16-0.04 0.53-0.1 1.34-0.13 1.81s-0.07 1.09-0.08 1.38c-0.02 0.28-0.04 0.51-0.05 0.51 0 0-0.27-0.21-0.59-0.46-0.31-0.25-0.83-0.66-1.15-0.9-0.32-0.25-0.94-0.71-1.36-1.02-0.43-0.31-1.12-0.79-1.52-1.07-0.41-0.28-1.1-0.74-1.52-1.01-0.43-0.28-1.1-0.7-1.48-0.94-0.39-0.24-1-0.61-1.37-0.82-0.36-0.21-0.96-0.55-1.32-0.76-0.37-0.2-0.96-0.53-1.33-0.72-0.36-0.19-1.04-0.54-1.5-0.78-0.46-0.23-1.26-0.62-1.79-0.87-0.52-0.25-1.3-0.61-1.73-0.81-0.43-0.19-1.02-0.45-1.31-0.57s-0.79-0.34-1.13-0.47c-0.33-0.14-0.61-0.26-0.62-0.28-0.02-0.02 0.01-0.39 0.06-0.83s0.17-1.37 0.25-2.08c0.09-0.71 0.23-1.79 0.32-2.4 0.08-0.61 0.21-1.39 0.27-1.73 0.07-0.34 0.2-0.98 0.29-1.42 0.1-0.44 0.29-1.22 0.42-1.74 0.12-0.51 0.34-1.32 0.48-1.79 0.13-0.47 0.38-1.27 0.54-1.77 0.17-0.5 0.41-1.21 0.55-1.58 0.13-0.36 0.33-0.88 0.44-1.15 0.1-0.26 0.27-0.67 0.37-0.9zm93.58 16.13c0.05 0 0.09 0.01 0.09 0.04 0 0.02-0.02 0.3-0.06 0.61-0.03 0.32-0.09 0.85-0.14 1.2-0.04 0.34-0.14 1.01-0.21 1.5-0.08 0.48-0.2 1.2-0.28 1.59-0.07 0.4-0.23 1.16-0.35 1.7-0.11 0.53-0.3 1.32-0.41 1.75-0.1 0.43-0.29 1.13-0.4 1.56-0.12 0.42-0.31 1.09-0.43 1.48-0.12 0.38-0.36 1.13-0.53 1.65-0.17 0.53-0.46 1.37-0.65 1.87-0.18 0.51-0.5 1.38-0.73 1.93-0.22 0.56-0.56 1.4-0.77 1.87-0.2 0.47-0.5 1.16-0.67 1.52-0.16 0.37-0.48 1.04-0.7 1.49l-0.4 0.83-0.17-0.02c-0.09-0.01-0.65-0.06-1.24-0.1s-1.52-0.09-2.06-0.11c-0.55-0.03-1.25-0.05-1.56-0.06h-0.57l-0.02-0.55c-0.02-0.3-0.05-0.87-0.07-1.27-0.03-0.39-0.08-1.08-0.12-1.53-0.05-0.45-0.12-1.1-0.16-1.44-0.04-0.35-0.12-0.92-0.18-1.27-0.05-0.36-0.16-0.97-0.23-1.36-0.08-0.4-0.19-0.95-0.25-1.23s-0.17-0.68-0.25-0.9l-0.13-0.39-0.95 0.01c-0.52 0-1.18 0.02-1.46 0.05-0.27 0.02-0.79 0.08-1.14 0.12-0.36 0.04-1.05 0.14-1.54 0.22-0.5 0.07-1.5 0.26-2.24 0.4-0.74 0.15-1.65 0.35-2.03 0.45-0.37 0.09-0.92 0.25-1.22 0.35-0.3 0.09-0.72 0.23-0.92 0.3-0.2 0.08-0.85 0.32-1.44 0.55-0.59 0.22-1.39 0.54-1.77 0.7-0.39 0.16-1.04 0.45-1.45 0.63-0.4 0.19-1.13 0.54-1.61 0.78-0.48 0.25-1.23 0.64-1.65 0.88-0.43 0.23-1.04 0.59-1.36 0.78-0.33 0.2-1.02 0.64-1.55 0.99s-1.25 0.84-1.61 1.11c-0.37 0.26-0.89 0.65-1.17 0.87s-0.71 0.56-0.96 0.77c-0.25 0.2-0.7 0.61-1 0.89-0.31 0.29-0.99 0.93-1.5 1.44-0.52 0.5-1.18 1.17-1.46 1.48-0.29 0.31-0.78 0.87-1.08 1.23-0.31 0.37-0.76 0.94-1.02 1.27-0.26 0.34-0.54 0.72-0.64 0.85-0.09 0.13-0.18 0.23-0.2 0.22-0.02-0.02-0.17-0.2-0.33-0.42-0.17-0.22-0.48-0.62-0.69-0.89-0.22-0.27-0.56-0.68-0.76-0.91-0.2-0.24-0.61-0.68-0.9-0.99l-0.52-0.55 0.19-0.22c0.11-0.12 0.37-0.43 0.6-0.67 0.22-0.25 0.77-0.85 1.22-1.33 0.46-0.48 1.62-1.68 2.59-2.66 0.98-0.98 1.91-1.89 2.09-2.02 0.17-0.14 0.56-0.49 0.86-0.77 0.3-0.29 0.97-0.9 1.48-1.35 0.51-0.46 1.1-0.96 1.31-1.13 0.2-0.18 0.72-0.6 1.16-0.95s1.23-0.96 1.77-1.36c0.54-0.41 1.31-0.97 1.72-1.25 0.41-0.29 1.13-0.79 1.62-1.1 0.48-0.32 1.23-0.81 1.67-1.08 0.44-0.28 1.14-0.7 1.56-0.95 0.42-0.24 1.07-0.62 1.46-0.83 0.39-0.22 1.02-0.57 1.42-0.78 0.39-0.21 1.26-0.64 1.93-0.97 0.66-0.33 1.49-0.72 1.83-0.88 0.34-0.15 0.99-0.43 1.44-0.63 0.45-0.19 1.08-0.45 1.39-0.57 0.31-0.13 0.7-0.27 0.87-0.32 0.17-0.04 0.86-0.26 1.52-0.48s1.81-0.59 2.55-0.82c0.73-0.23 1.54-0.48 1.79-0.57 0.25-0.08 0.86-0.26 1.35-0.38 0.49-0.13 1.17-0.3 1.52-0.38 0.34-0.07 1.01-0.21 1.48-0.31s1.2-0.24 1.63-0.31 1.07-0.18 1.42-0.23c0.36-0.05 1.07-0.15 1.58-0.21 0.52-0.07 1.33-0.15 1.81-0.2 0.49-0.04 1.34-0.11 1.89-0.15 0.56-0.04 1.06-0.08 1.1-0.08zm-117.59 0.15h0.01c0.06 0 0.42 0.03 0.8 0.06 0.39 0.03 1.07 0.11 1.53 0.16s1.2 0.15 1.64 0.21c0.44 0.07 1.16 0.18 1.6 0.26 0.44 0.07 1.15 0.2 1.59 0.29s1.24 0.25 1.78 0.37c0.53 0.12 1.39 0.32 1.91 0.45 0.51 0.13 1.42 0.36 2.02 0.52 0.6 0.17 1.42 0.41 1.81 0.53 0.4 0.13 1.02 0.35 1.39 0.49 0.36 0.14 0.94 0.34 1.28 0.46 0.34 0.11 1.12 0.4 1.73 0.63 0.61 0.24 1.37 0.54 1.68 0.67s0.77 0.32 1.03 0.43c0.26 0.12 0.83 0.37 1.26 0.58 0.44 0.2 1.26 0.6 1.83 0.88 0.57 0.29 1.34 0.69 1.7 0.88 0.37 0.2 1.08 0.6 1.58 0.89s1.3 0.76 1.77 1.05 1.42 0.9 2.11 1.35c0.68 0.46 1.59 1.08 2.02 1.39 0.43 0.3 1.17 0.84 1.64 1.19 0.47 0.36 1.24 0.95 1.7 1.32 0.47 0.37 1.18 0.95 1.58 1.29s1.07 0.91 1.49 1.28c0.42 0.36 0.98 0.86 1.24 1.11 0.27 0.25 0.84 0.79 1.27 1.21 0.42 0.41 1.44 1.44 2.26 2.28 0.81 0.83 1.78 1.84 2.15 2.24 0.36 0.39 0.87 0.94 1.11 1.22l0.45 0.51-0.5 0.54c-0.28 0.3-0.71 0.79-0.95 1.09s-0.73 0.94-1.09 1.42c-0.35 0.47-0.66 0.86-0.67 0.86-0.02 0-0.09-0.09-0.17-0.2-0.07-0.11-0.34-0.49-0.6-0.83s-0.77-1-1.13-1.46-0.77-0.98-0.91-1.15c-0.13-0.17-0.46-0.54-0.72-0.82-0.25-0.29-0.73-0.77-1.07-1.07-0.33-0.31-0.8-0.74-1.04-0.95-0.24-0.22-0.72-0.64-1.06-0.95-0.34-0.3-0.84-0.73-1.12-0.96s-0.81-0.64-1.17-0.91c-0.36-0.28-0.89-0.66-1.17-0.85-0.28-0.2-0.78-0.53-1.11-0.74-0.33-0.22-0.84-0.53-1.13-0.71-0.29-0.17-0.85-0.49-1.25-0.71-0.39-0.21-1.1-0.58-1.57-0.81-0.47-0.24-1.17-0.56-1.54-0.73-0.38-0.16-1.03-0.44-1.46-0.61s-0.97-0.38-1.21-0.46c-0.23-0.09-0.87-0.31-1.4-0.5-0.54-0.19-1.2-0.41-1.48-0.5s-0.76-0.23-1.06-0.32c-0.31-0.08-1.03-0.26-1.6-0.38-0.57-0.13-1.25-0.27-1.51-0.32-0.26-0.04-0.78-0.12-1.17-0.18-0.38-0.06-0.92-0.16-1.19-0.24-0.27-0.07-0.78-0.19-1.15-0.26-0.36-0.07-0.89-0.16-1.18-0.2-0.34-0.05-0.8-0.07-1.3-0.07h-0.77l-0.14 0.4c-0.07 0.23-0.21 0.79-0.31 1.25-0.09 0.46-0.23 1.21-0.3 1.66-0.08 0.45-0.19 1.14-0.24 1.54-0.05 0.39-0.13 0.94-0.16 1.22s-0.09 0.92-0.13 1.42c-0.04 0.51-0.09 1.07-0.1 1.26l-0.03 0.34h-1.14c-0.62 0-1.52 0.02-1.99 0.04s-1.13 0.05-1.46 0.08c-0.33 0.02-0.67 0.06-0.76 0.08-0.08 0.02-0.18 0.04-0.21 0.05-0.03 0-0.13-0.18-0.26-0.48-0.12-0.27-0.43-1.03-0.7-1.7-0.26-0.66-0.63-1.62-0.81-2.12-0.18-0.51-0.46-1.32-0.62-1.81s-0.46-1.47-0.66-2.16c-0.21-0.7-0.47-1.63-0.6-2.07-0.12-0.44-0.33-1.25-0.46-1.81-0.14-0.56-0.34-1.43-0.45-1.93-0.1-0.5-0.27-1.35-0.37-1.89-0.09-0.53-0.23-1.32-0.29-1.75s-0.16-1.14-0.21-1.58c-0.06-0.44-0.13-1.1-0.16-1.48-0.03-0.37-0.06-0.7-0.06-0.73s0.05-0.05 0.11-0.05zm14.05 14.44 0.54 0.03c0.3 0.01 0.83 0.05 1.17 0.1 0.35 0.04 1.07 0.15 1.62 0.24 0.55 0.08 1.27 0.21 1.62 0.29 0.34 0.08 1.07 0.25 1.61 0.39 0.55 0.13 1.4 0.37 1.89 0.52s1.22 0.38 1.62 0.52 0.96 0.34 1.26 0.45c0.3 0.12 0.81 0.32 1.14 0.45 0.32 0.14 0.81 0.35 1.09 0.47 0.27 0.12 0.94 0.44 1.48 0.7 0.53 0.27 1.24 0.64 1.57 0.82 0.34 0.19 0.89 0.5 1.23 0.71 0.34 0.2 1.03 0.64 1.52 0.97 0.5 0.32 1.25 0.85 1.68 1.18 0.43 0.32 0.99 0.75 1.25 0.96 0.25 0.21 0.7 0.59 1 0.86 0.3 0.26 0.84 0.75 1.2 1.09 0.35 0.34 0.82 0.8 1.03 1.03 0.22 0.22 0.78 0.85 1.25 1.39s1.14 1.32 1.49 1.73c0.34 0.42 0.76 0.94 0.92 1.16 0.15 0.23 0.36 0.55 0.46 0.73 0.1 0.17 0.25 0.38 0.34 0.46l0.16 0.15-0.06 0.1c-0.04 0.05-0.15 0.25-0.24 0.43s-0.2 0.42-0.23 0.53-0.09 0.26-0.12 0.35c-0.03 0.08-0.14 0.3-0.24 0.48-0.1 0.19-0.46 0.9-0.79 1.58-0.33 0.69-0.68 1.44-0.77 1.67-0.1 0.24-0.26 0.68-0.37 0.98s-0.28 0.84-0.39 1.19-0.29 1.01-0.4 1.46c-0.12 0.45-0.28 1.17-0.37 1.6-0.08 0.43-0.2 1.08-0.25 1.46-0.06 0.37-0.13 1-0.17 1.4-0.05 0.58-0.07 1.13-0.07 2.83 0 1.71 0.02 2.22 0.07 2.76 0.04 0.36 0.09 0.94 0.12 1.29 0.04 0.34 0.07 0.76 0.08 0.93 0.02 0.17 0.08 0.74 0.14 1.26 0.07 0.52 0.16 1.25 0.22 1.61 0.05 0.37 0.15 1.03 0.23 1.45 0.07 0.43 0.22 1.22 0.33 1.76 0.11 0.53 0.39 1.74 0.62 2.69 0.24 0.94 0.49 1.88 0.55 2.1 0.06 0.21 0.31 0.97 0.55 1.67 0.25 0.71 0.54 1.52 0.65 1.8 0.12 0.27 0.4 0.87 0.63 1.32s0.46 0.91 0.52 1.01c0.05 0.11 0.27 0.56 0.49 1l0.38 0.81-0.26-0.1c-0.14-0.05-0.51-0.2-0.82-0.33s-1.01-0.47-1.56-0.74-1.34-0.7-1.77-0.95-1.11-0.67-1.52-0.94c-0.4-0.26-1.1-0.74-1.55-1.07-0.46-0.32-1.09-0.78-1.42-1.04-0.32-0.25-0.85-0.67-1.18-0.94-0.32-0.26-0.87-0.72-1.22-1.03-0.34-0.3-0.99-0.89-1.43-1.29-0.44-0.41-1.28-1.22-1.87-1.81s-1.43-1.46-1.87-1.93-1.08-1.16-1.42-1.54c-0.34-0.37-1.02-1.15-1.52-1.73-0.49-0.58-1.12-1.32-1.39-1.66-0.27-0.33-0.86-1.1-1.32-1.71s-0.98-1.3-1.15-1.54-0.55-0.77-0.84-1.19c-0.29-0.41-0.74-1.07-0.99-1.46-0.26-0.39-0.63-0.97-0.83-1.29-0.19-0.32-0.55-0.98-0.81-1.46-0.25-0.48-0.63-1.23-0.84-1.68-0.21-0.44-0.54-1.19-0.74-1.65-0.2-0.47-0.5-1.2-0.67-1.63s-0.43-1.14-0.59-1.58c-0.15-0.44-0.35-1.03-0.44-1.3-0.08-0.28-0.24-0.84-0.35-1.25s-0.27-1.05-0.35-1.43c-0.09-0.38-0.23-1.04-0.32-1.46-0.08-0.42-0.22-1.17-0.31-1.67-0.08-0.49-0.2-1.27-0.27-1.73-0.06-0.46-0.15-1.16-0.19-1.56s-0.11-1.06-0.14-1.48-0.08-1.05-0.1-1.4-0.04-1.51-0.04-2.57 0.02-2.22 0.04-2.57c0.02-0.36 0.08-1.03 0.12-1.5s0.11-1.15 0.16-1.5c0.04-0.36 0.12-0.93 0.17-1.27s0.15-0.92 0.22-1.28zm88.2 0.13 0.06 0.28c0.04 0.16 0.09 0.43 0.13 0.62 0.03 0.18 0.11 0.7 0.17 1.15s0.16 1.24 0.21 1.77c0.06 0.52 0.13 1.32 0.16 1.77s0.08 1.16 0.1 1.58c0.02 0.41 0.04 1.45 0.04 2.3 0 0.84-0.02 1.86-0.04 2.26-0.02 0.39-0.07 1.05-0.1 1.46-0.03 0.4-0.09 1.04-0.14 1.42-0.04 0.37-0.13 1.06-0.19 1.52-0.07 0.46-0.19 1.22-0.28 1.69-0.08 0.47-0.22 1.18-0.3 1.58-0.09 0.39-0.26 1.1-0.37 1.57-0.12 0.46-0.35 1.3-0.51 1.87-0.16 0.56-0.4 1.33-0.53 1.71s-0.35 1-0.49 1.36c-0.14 0.37-0.38 0.97-0.54 1.34-0.15 0.36-0.41 0.94-0.57 1.28-0.15 0.35-0.5 1.06-0.77 1.6s-0.62 1.2-0.78 1.48c-0.15 0.28-0.47 0.81-0.7 1.17s-0.68 1.07-1 1.56c-0.33 0.5-0.67 1.01-0.76 1.14-0.1 0.12-0.33 0.44-0.52 0.71s-1.03 1.4-1.86 2.51c-0.84 1.11-1.78 2.33-2.1 2.71-0.31 0.37-0.82 0.97-1.13 1.32s-0.77 0.87-1.02 1.15c-0.26 0.28-0.9 0.97-1.44 1.53-0.54 0.57-1.39 1.43-1.9 1.91-0.5 0.49-1.13 1.09-1.4 1.34-0.27 0.24-0.71 0.65-0.99 0.89-0.28 0.25-0.75 0.66-1.05 0.92-0.3 0.25-0.82 0.68-1.15 0.95s-0.85 0.68-1.15 0.9c-0.3 0.23-0.78 0.57-1.07 0.78-0.29 0.2-0.74 0.51-1 0.69-0.27 0.17-0.78 0.5-1.15 0.74-0.37 0.23-0.92 0.56-1.22 0.73-0.3 0.18-0.82 0.46-1.14 0.64-0.33 0.17-0.61 0.31-0.62 0.3s0.11-0.32 0.26-0.68 0.32-0.77 0.38-0.91c0.05-0.14 0.23-0.61 0.4-1.05 0.16-0.44 0.43-1.12 0.58-1.52 0.16-0.39 0.39-1.03 0.51-1.4 0.13-0.38 0.33-1.01 0.44-1.4 0.12-0.4 0.28-0.97 0.35-1.27 0.08-0.3 0.19-0.78 0.25-1.07 0.07-0.29 0.22-1.04 0.34-1.67s0.28-1.51 0.35-1.95c0.08-0.44 0.2-1.29 0.27-1.89 0.08-0.6 0.17-1.48 0.22-1.95 0.04-0.47 0.1-1.23 0.14-1.7 0.05-0.63 0.07-1.51 0.08-3.6 0.01-2.35 0.01-2.87-0.04-3.41-0.04-0.35-0.1-0.88-0.14-1.18-0.05-0.3-0.15-0.9-0.24-1.33s-0.26-1.18-0.38-1.67c-0.13-0.5-0.31-1.18-0.41-1.53s-0.38-1.13-0.61-1.75c-0.23-0.61-0.56-1.43-0.72-1.82-0.17-0.39-0.47-1.04-0.68-1.45-0.22-0.41-0.58-1.04-0.8-1.4-0.23-0.37-0.5-0.81-0.59-0.99-0.1-0.18-0.24-0.4-0.31-0.49l-0.13-0.17 0.07-0.09c0.04-0.05 0.08-0.12 0.1-0.16 0.01-0.04 0.16-0.27 0.33-0.51s0.52-0.7 0.77-1.02c0.26-0.33 0.89-1.09 1.42-1.7 0.52-0.6 1.14-1.3 1.38-1.55 0.23-0.24 0.69-0.69 1.01-0.99s0.84-0.77 1.15-1.05c0.32-0.27 0.8-0.68 1.08-0.9 0.27-0.23 0.87-0.69 1.32-1.03s1.22-0.89 1.71-1.22 1.19-0.78 1.54-0.99c0.36-0.22 0.96-0.57 1.35-0.78 0.38-0.22 1.05-0.57 1.48-0.79 0.44-0.21 1.08-0.52 1.43-0.68 0.36-0.16 1.04-0.45 1.53-0.65 0.49-0.19 1.38-0.52 1.98-0.72s1.43-0.48 1.84-0.6c0.42-0.13 1-0.3 1.29-0.37s0.73-0.18 0.98-0.23c0.25-0.06 0.87-0.2 1.38-0.32 0.52-0.11 1.09-0.23 1.27-0.26 0.18-0.04 0.74-0.11 1.24-0.16 0.51-0.06 1.09-0.12 1.29-0.14 0.2-0.01 0.43-0.03 0.51-0.04v0.01zm-43.89 7.05c0.02 0 0.13 0.07 0.24 0.15 0.12 0.07 0.26 0.19 0.32 0.24 0.07 0.06 0.28 0.22 0.49 0.35 0.2 0.14 0.46 0.34 0.58 0.45s0.32 0.28 0.45 0.38c0.13 0.09 0.35 0.25 0.49 0.34 0.14 0.1 0.53 0.39 0.88 0.66 0.34 0.27 0.78 0.62 0.97 0.78s0.52 0.46 0.73 0.66 0.44 0.38 0.51 0.41 0.6 0.54 1.24 1.18c0.61 0.62 1.44 1.49 1.85 1.95 0.41 0.45 0.92 1.03 1.13 1.28 0.21 0.26 0.51 0.62 0.66 0.81 0.14 0.2 0.41 0.58 0.59 0.86s0.56 0.85 0.83 1.28c0.39 0.59 0.5 0.79 0.5 0.87-0.01 0.1 0 0.11 0.08 0.11 0.09-0.01 0.13 0.04 0.37 0.48 0.15 0.27 0.58 1.1 0.97 1.86 0.6 1.18 0.73 1.46 0.95 2.1 0.14 0.41 0.33 0.98 0.42 1.27 0.1 0.29 0.27 0.86 0.39 1.27 0.11 0.4 0.28 1.06 0.36 1.46 0.09 0.39 0.21 1.02 0.28 1.4 0.06 0.37 0.15 0.96 0.2 1.3l0.08 0.63-0.02 2.94c-0.01 1.76-0.03 3.04-0.06 3.19-0.02 0.14-0.08 0.67-0.14 1.19-0.05 0.51-0.15 1.35-0.22 1.87-0.06 0.51-0.16 1.24-0.21 1.61-0.06 0.38-0.18 1.16-0.28 1.74-0.09 0.58-0.24 1.4-0.32 1.82-0.09 0.43-0.16 0.8-0.16 0.84 0 0.03-0.03 0.1-0.07 0.14-0.04 0.05-0.17 0.42-0.3 0.88-0.12 0.44-0.34 1.17-0.49 1.63s-0.36 1.07-0.47 1.35c-0.1 0.28-0.23 0.69-0.29 0.91-0.05 0.23-0.18 0.62-0.28 0.88-0.09 0.26-0.34 0.84-0.55 1.29s-0.44 0.94-0.51 1.11c-0.07 0.16-0.19 0.43-0.28 0.6-0.08 0.17-0.18 0.37-0.22 0.45-0.04 0.07-0.19 0.33-0.33 0.56-0.14 0.24-0.43 0.71-0.65 1.06-0.21 0.34-0.47 0.7-0.57 0.8-0.1 0.09-0.3 0.33-0.45 0.52-0.16 0.19-0.36 0.44-0.46 0.55-0.11 0.11-0.21 0.26-0.24 0.33-0.04 0.07-0.26 0.34-0.51 0.6-0.24 0.26-0.63 0.64-0.86 0.86-0.22 0.22-0.6 0.55-0.83 0.74-0.23 0.18-0.65 0.49-0.94 0.68-0.28 0.19-0.76 0.47-1.06 0.62s-0.72 0.34-0.94 0.43-0.59 0.21-0.81 0.27c-0.23 0.07-0.6 0.16-0.84 0.2s-0.68 0.09-0.99 0.12c-0.31 0.02-0.74 0.03-0.94 0.01-0.2-0.01-0.53-0.04-0.72-0.06s-0.55-0.08-0.8-0.14c-0.25-0.05-0.67-0.16-0.93-0.25-0.25-0.08-0.61-0.21-0.79-0.29-0.18-0.07-0.52-0.24-0.77-0.37s-0.69-0.4-0.99-0.6-0.74-0.52-0.98-0.7c-0.23-0.19-0.75-0.67-1.15-1.07-0.4-0.41-0.78-0.81-0.84-0.9-0.06-0.1-0.24-0.34-0.4-0.54-0.16-0.21-0.37-0.46-0.47-0.57s-0.34-0.44-0.54-0.74c-0.19-0.3-0.41-0.61-0.47-0.7-0.07-0.09-0.21-0.27-0.31-0.42-0.11-0.14-0.29-0.42-0.41-0.62s-0.24-0.44-0.28-0.54c-0.04-0.09-0.09-0.21-0.12-0.25-0.03-0.05-0.08-0.16-0.11-0.25s-0.09-0.21-0.13-0.27-0.17-0.27-0.27-0.47c-0.11-0.19-0.29-0.55-0.4-0.78-0.1-0.23-0.3-0.72-0.44-1.08s-0.42-1.1-0.62-1.63c-0.2-0.54-0.52-1.39-0.71-1.9-0.23-0.63-0.43-1.29-0.64-2.08-0.17-0.64-0.37-1.41-0.45-1.71-0.07-0.3-0.2-0.85-0.27-1.22-0.08-0.38-0.18-0.92-0.24-1.21-0.05-0.29-0.13-0.77-0.17-1.06-0.05-0.3-0.19-1.59-0.32-2.87-0.16-1.63-0.23-2.51-0.23-2.9 0-0.3-0.03-0.83-0.06-1.18-0.03-0.34-0.07-1.15-0.08-1.79-0.02-0.76-0.01-1.39 0.02-1.81 0.03-0.36 0.09-0.97 0.14-1.36 0.06-0.4 0.18-1.11 0.27-1.58 0.1-0.47 0.27-1.22 0.39-1.66s0.35-1.19 0.52-1.67c0.16-0.48 0.32-0.94 0.36-1.01 0.04-0.08 0.15-0.32 0.24-0.53 0.1-0.22 0.23-0.53 0.3-0.71 0.07-0.17 0.3-0.66 0.51-1.09 0.2-0.42 0.46-0.92 0.56-1.1 0.11-0.18 0.2-0.34 0.2-0.35 0.01 0 0.07 0.03 0.13 0.07 0.09 0.07 0.12 0.08 0.12 0.03 0-0.03-0.02-0.08-0.06-0.11-0.03-0.02-0.05-0.08-0.04-0.11 0.01-0.04 0.29-0.53 0.63-1.1 0.34-0.56 0.78-1.27 0.99-1.57 0.2-0.3 0.51-0.74 0.68-0.97 0.18-0.24 0.57-0.74 0.87-1.11 0.3-0.38 0.9-1.1 1.34-1.6s1.08-1.21 1.43-1.57c0.36-0.36 1.1-1.07 1.66-1.56 0.56-0.5 1.13-1 1.27-1.12s0.38-0.32 0.54-0.45 0.42-0.34 0.56-0.47c0.15-0.13 0.45-0.34 0.68-0.48 0.22-0.13 0.52-0.35 0.67-0.48 0.14-0.14 0.38-0.34 0.54-0.47 0.16-0.12 0.3-0.22 0.32-0.22zm-46.98 3.35v0.44c0 0.24 0.02 0.82 0.04 1.28s0.08 1.22 0.12 1.69 0.12 1.18 0.17 1.58c0.06 0.4 0.15 1.04 0.22 1.44 0.06 0.4 0.2 1.14 0.29 1.66 0.1 0.51 0.24 1.2 0.31 1.54 0.08 0.33 0.22 0.92 0.31 1.3 0.1 0.39 0.25 0.95 0.34 1.25 0.08 0.3 0.27 0.9 0.41 1.34s0.38 1.16 0.54 1.6 0.42 1.15 0.59 1.57c0.17 0.43 0.46 1.12 0.63 1.52 0.18 0.41 0.58 1.27 0.9 1.91 0.31 0.65 0.73 1.47 0.93 1.83 0.2 0.37 0.53 0.95 0.74 1.29 0.2 0.34 0.51 0.84 0.68 1.11s0.57 0.87 0.9 1.34c0.32 0.47 0.73 1.07 0.91 1.33 0.19 0.25 0.59 0.81 0.9 1.23 0.32 0.41 0.67 0.88 0.79 1.04l0.22 0.28-0.65 0.49c-0.35 0.27-0.91 0.71-1.23 0.97s-0.81 0.67-1.09 0.91c-0.27 0.25-0.69 0.63-0.93 0.86l-0.44 0.42-0.64-0.38c-0.35-0.22-1.02-0.65-1.48-0.95s-1.13-0.76-1.48-1.02c-0.35-0.25-0.83-0.6-1.05-0.77-0.23-0.17-0.67-0.52-0.99-0.78-0.32-0.25-0.83-0.68-1.15-0.95-0.31-0.27-0.85-0.74-1.19-1.05s-0.95-0.9-1.36-1.31-1.01-1.04-1.34-1.39c-0.32-0.35-0.83-0.92-1.12-1.26-0.29-0.35-0.73-0.87-0.97-1.17s-0.6-0.77-0.81-1.03c-0.2-0.27-0.58-0.78-0.83-1.14-0.25-0.35-0.71-1.01-1.01-1.47-0.31-0.46-0.79-1.24-1.08-1.72s-0.71-1.2-0.93-1.6c-0.22-0.39-0.61-1.14-0.87-1.65s-0.6-1.22-0.76-1.56-0.42-0.94-0.59-1.33-0.44-1.04-0.6-1.44-0.4-1.05-0.54-1.44c-0.14-0.38-0.37-1.05-0.51-1.48s-0.35-1.1-0.47-1.5c-0.12-0.41-0.31-1.12-0.43-1.59-0.12-0.48-0.21-0.9-0.21-0.94 0-0.05 0.07-0.09 0.3-0.17 0.16-0.05 0.49-0.15 0.72-0.22 0.23-0.06 0.81-0.21 1.28-0.33 0.48-0.11 1.25-0.29 1.71-0.39 0.46-0.09 1.22-0.24 1.7-0.33 0.47-0.08 1.38-0.23 2-0.33 0.63-0.09 1.57-0.21 2.08-0.25 0.52-0.05 1.11-0.1 1.33-0.12 0.21-0.02 0.73-0.06 1.15-0.08 0.41-0.02 0.79-0.05 0.83-0.06 0.05 0 0.67-0.01 1.4-0.01zm93.95 0.82h0.23c0.12 0 0.55 0.02 0.96 0.04s1.22 0.05 1.81 0.08c0.59 0.02 1.35 0.06 1.68 0.1 0.33 0.03 0.81 0.07 1.07 0.09 0.26 0.03 0.66 0.09 0.9 0.14 0.23 0.06 0.86 0.18 1.4 0.27 0.53 0.1 1.32 0.25 1.75 0.33 0.43 0.09 1.05 0.22 1.38 0.3 0.34 0.07 0.85 0.2 1.15 0.27 0.3 0.08 0.84 0.22 1.19 0.32 0.36 0.09 0.9 0.25 1.21 0.34 0.31 0.1 0.87 0.28 1.25 0.42 0.51 0.17 0.7 0.25 0.7 0.3 0 0.03-0.12 0.44-0.26 0.9s-0.39 1.2-0.55 1.65-0.45 1.23-0.65 1.74c-0.2 0.5-0.51 1.24-0.69 1.65-0.17 0.41-0.53 1.2-0.8 1.75-0.26 0.55-0.68 1.39-0.93 1.87-0.25 0.47-0.63 1.16-0.84 1.52-0.21 0.37-0.56 0.96-0.78 1.33-0.22 0.36-0.59 0.96-0.83 1.32-0.23 0.36-0.6 0.91-0.81 1.22-0.22 0.32-0.61 0.87-0.88 1.24-0.27 0.36-0.69 0.92-0.94 1.24s-0.71 0.9-1.04 1.28c-0.32 0.39-0.76 0.9-0.97 1.14-0.21 0.23-0.72 0.79-1.14 1.24s-1.12 1.15-1.55 1.56-1.03 0.97-1.34 1.25c-0.31 0.27-0.87 0.75-1.25 1.07-0.37 0.31-0.98 0.79-1.34 1.07-0.37 0.28-0.92 0.7-1.23 0.92-0.31 0.23-0.87 0.62-1.24 0.87l-0.67 0.46-0.46-0.41c-0.25-0.23-0.7-0.62-1-0.86-0.3-0.25-0.8-0.65-1.11-0.89s-0.87-0.66-1.25-0.93c-0.37-0.26-0.89-0.62-1.16-0.79-0.26-0.18-0.47-0.33-0.47-0.35s0.07-0.14 0.16-0.27 0.31-0.43 0.5-0.67c0.18-0.23 0.5-0.68 0.71-0.99 0.22-0.31 0.58-0.85 0.8-1.19 0.23-0.34 0.62-0.97 0.87-1.38 0.25-0.42 0.61-1.04 0.8-1.39 0.18-0.34 0.57-1.09 0.85-1.65 0.28-0.57 0.68-1.4 0.87-1.85 0.2-0.45 0.55-1.28 0.77-1.83 0.22-0.56 0.52-1.33 0.65-1.72 0.14-0.38 0.36-1.06 0.5-1.5 0.13-0.44 0.31-1.1 0.41-1.48 0.1-0.37 0.26-1.07 0.37-1.54 0.1-0.47 0.28-1.36 0.4-1.98s0.26-1.39 0.31-1.72c0.06-0.32 0.15-0.9 0.2-1.28 0.05-0.39 0.13-1.06 0.18-1.5 0.04-0.44 0.09-1.1 0.11-1.47 0.03-0.37 0.04-0.89 0.04-1.16zm-11.86 30.61c0.02 0.01 0.39 0.26 0.82 0.54s1.03 0.7 1.33 0.92 0.75 0.55 0.99 0.74 0.77 0.64 1.18 0.99c0.41 0.36 1.04 0.9 1.39 1.21 0.35 0.32 1.13 1.06 1.71 1.65 0.59 0.59 1.38 1.41 1.76 1.83s0.92 1.02 1.2 1.35c0.27 0.32 0.73 0.87 1.01 1.21 0.27 0.34 0.75 0.94 1.06 1.33 0.31 0.4 0.83 1.08 1.15 1.52s0.82 1.13 1.1 1.53c0.28 0.39 0.8 1.16 1.17 1.71 0.36 0.54 0.84 1.28 1.07 1.64 0.22 0.35 0.6 0.95 0.83 1.32 0.22 0.36 0.4 0.67 0.4 0.68-0.01 0-0.51 0.11-1.11 0.23-0.59 0.12-1.55 0.29-2.12 0.39-0.57 0.09-1.47 0.23-2 0.31-0.54 0.07-1.36 0.18-1.83 0.23-0.46 0.06-1.3 0.15-1.87 0.2-0.56 0.05-1.45 0.12-1.97 0.15-0.53 0.04-1.39 0.08-1.91 0.1-0.53 0.03-1.61 0.04-2.42 0.04-0.8 0-1.85-0.02-2.33-0.04-0.49-0.02-1.17-0.05-1.52-0.07-0.36-0.03-1.01-0.08-1.46-0.12-0.45-0.05-1.11-0.11-1.46-0.16-0.36-0.04-1.05-0.14-1.54-0.21-0.5-0.08-1.37-0.24-1.95-0.35-0.58-0.12-1.44-0.31-1.92-0.43-0.47-0.12-1.24-0.33-1.7-0.47-0.46-0.13-1.16-0.36-1.55-0.5-0.4-0.14-1.09-0.4-1.53-0.58-0.45-0.18-1.09-0.44-1.43-0.59-0.33-0.14-0.99-0.43-1.46-0.64s-1.25-0.59-1.74-0.83l-0.89-0.45 0.3-0.13c0.17-0.07 0.56-0.25 0.86-0.4s0.74-0.38 0.99-0.51 0.64-0.35 0.88-0.47c0.23-0.12 0.65-0.36 0.91-0.52 0.27-0.16 0.8-0.49 1.17-0.74 0.38-0.24 0.92-0.61 1.21-0.82 0.29-0.2 0.78-0.56 1.09-0.8 0.31-0.23 0.82-0.63 1.14-0.89 0.31-0.25 0.77-0.62 1.01-0.83s0.67-0.58 0.95-0.83c0.27-0.25 0.88-0.81 1.34-1.26 0.46-0.44 1.37-1.34 2.02-2 0.66-0.66 1.53-1.57 1.95-2.02s1.03-1.13 1.36-1.5c0.34-0.38 0.82-0.93 1.08-1.23s0.64-0.75 0.85-1c0.23-0.28 0.4-0.45 0.43-0.43zm-68.76 1.54c0.01 0 0.31 0.33 0.66 0.73 0.34 0.39 0.99 1.12 1.45 1.61 0.45 0.5 1.41 1.5 2.14 2.23 0.72 0.73 1.73 1.73 2.24 2.21 0.5 0.48 1.19 1.11 1.52 1.39 0.34 0.28 0.99 0.82 1.45 1.19 0.46 0.36 1.1 0.86 1.42 1.11 0.32 0.24 0.87 0.64 1.22 0.89 0.36 0.25 0.98 0.68 1.39 0.95 0.4 0.26 1.04 0.67 1.42 0.89 0.37 0.23 0.93 0.54 1.23 0.7s0.82 0.44 1.17 0.63c0.34 0.18 0.79 0.41 1.01 0.51 0.21 0.09 0.62 0.26 0.91 0.37 0.29 0.1 0.59 0.2 0.66 0.22 0.07 0.01 0.12 0.04 0.1 0.06-0.02 0.01-0.46 0.2-0.97 0.41-0.52 0.2-1.26 0.51-1.66 0.68-0.39 0.16-0.92 0.39-1.16 0.5-0.25 0.11-0.7 0.3-1 0.41s-0.89 0.32-1.32 0.46-1.06 0.34-1.4 0.43c-0.35 0.1-0.98 0.27-1.41 0.37-0.43 0.11-1.18 0.28-1.67 0.37-0.5 0.1-1.11 0.22-1.37 0.26-0.25 0.04-0.76 0.12-1.13 0.17-0.36 0.06-0.96 0.13-1.34 0.18-0.37 0.04-0.99 0.1-1.36 0.14-0.38 0.03-1.1 0.08-1.6 0.12-0.5 0.03-1.76 0.07-2.78 0.08-1.17 0.02-2.32 0.01-3.04-0.02-0.65-0.03-1.58-0.07-2.07-0.11-0.49-0.03-1.38-0.1-1.97-0.15-0.58-0.06-1.43-0.14-1.88-0.2-0.45-0.05-1.31-0.16-1.91-0.25-0.6-0.08-1.55-0.23-2.1-0.33s-1.43-0.26-1.95-0.37c-0.52-0.1-0.96-0.19-0.97-0.19-0.02 0-0.03-0.02-0.03-0.04s0.18-0.32 0.39-0.67 0.58-0.95 0.82-1.34c0.24-0.38 0.69-1.08 1-1.55 0.31-0.46 0.81-1.2 1.12-1.63 0.3-0.44 0.79-1.11 1.08-1.51 0.28-0.39 0.78-1.05 1.1-1.46s0.84-1.06 1.16-1.45 0.77-0.92 0.99-1.19c0.23-0.26 0.71-0.8 1.06-1.2 0.36-0.4 1.02-1.09 1.47-1.54s1.19-1.17 1.65-1.6c0.45-0.43 0.96-0.89 1.13-1.04 0.16-0.15 0.55-0.49 0.86-0.75s0.76-0.62 1-0.8c0.23-0.19 0.61-0.46 0.83-0.61 0.22-0.16 0.42-0.28 0.44-0.27z"/>
  </clipPath>
 </defs>
 <g transform="matrix(1.7854 0 0 1.7854 -183.03 -560.01)">
  <g fill="#fff" stroke="#fff" stroke-linecap="round">
   <path d="m135.58 441.33c-3.0016-0.17255-5.2665-0.43714-8.6028-1.005-1.4786-0.25166-2.7045-0.472-2.7242-0.48965-0.0458-0.041 0.76064-1.3135 2.3413-3.6943 2.7071-4.0775 5.8648-7.9201 8.8807-10.807 1.8094-1.732 4.3916-3.8897 4.6547-3.8897 0.0743 0 1.057 1.0191 2.1838 2.2646 4.8804 5.3949 10.015 9.4923 15.162 12.1l2.3603 1.1956-2.6291 1.07c-3.8924 1.5841-6.2896 2.2554-10.067 2.8192-1.7278 0.25787-7.424 0.64642-8.6924 0.59292-0.29572-0.0125-1.5862-0.0829-2.8676-0.15661z"/>
   <path d="m158.88 433.74c-4.0718-1.9004-8.272-5.094-13.024-9.9034-9.8142-9.9316-14.511-18.167-16.278-28.54-0.57529-3.3772-0.71488-5.1061-0.71058-8.8009 4e-3 -3.3508 0.10604-4.7418 0.54293-7.3931l0.19935-1.2098 0.65591 7.2e-4c0.95633 1e-3 3.7983 0.48679 5.7651 0.98535 6.7514 1.7114 12.904 4.9967 17.613 9.4043 1.6273 1.5232 4.3321 4.6112 5.2504 5.9941l0.64008 0.96402-1.3458 2.841c-1.3389 2.8264-1.967 4.6467-2.5743 7.4602-0.49698 2.3024-0.43928 9.6971 0.1031 13.214 0.86746 5.6245 2.1868 10.245 3.9026 13.666 0.56388 1.1244 0.87229 1.9218 0.74067 1.915-0.12404-6e-3 -0.79009-0.27517-1.4801-0.59721z"/>
   <path d="m173.19 442.04c-2.3027-0.38471-4.3003-1.5396-6.2948-3.6393-2.445-2.574-3.9912-5.187-5.6311-9.5166-2.1183-5.5926-3.0449-10.959-3.0791-17.833-0.0157-3.1581 0.18906-4.5535 1.0916-7.4379 0.4451-1.4224 1.979-4.8677 2.3686-5.3203 0.11162-0.12964 0.53664-0.80028 0.94448-1.4903 2.169-3.6697 6.0315-7.8304 10.056-10.833l1.2208-0.91071 0.68239 0.49502c4.882 3.5415 8.4369 7.0096 10.612 10.352 0.57714 0.88716 1.1251 1.7049 1.2177 1.8173 0.0926 0.11233 0.60724 1.0802 1.1436 2.1507 2.6406 5.2704 3.3787 10.719 2.449 18.077-0.5834 4.617-0.8507 5.9149-1.9009 9.2301-1.5694 4.9543-2.7342 7.3267-4.8601 9.898-2.4116 2.917-4.8918 4.5853-7.3939 4.9735-1.3042 0.20237-1.3398 0.2022-2.6262-0.0127z"/>
   <path d="m188.98 433.54c2.9064-7.0964 4.0108-12.294 4.3198-20.331 0.0662-1.7229 0.034-3.7053-0.0772-4.7495-0.41314-3.8795-1.9373-8.5607-3.865-11.871-1.1918-2.0464-1.2519-1.7502 0.87567-4.3209 3.6021-4.3525 7.7825-7.6371 13.024-10.233 3.7006-1.8327 9.2892-3.5566 12.529-3.8647 0.64073-0.0609 1.3356-0.14522 1.5441-0.1873 0.3446-0.0695 0.39739 0.0415 0.58014 1.2202 0.71881 4.6364 0.73543 11.45 0.0379 15.545-1.142 6.7052-3.2972 12.298-6.6991 17.385-1.4163 2.1177-4.789 6.5677-6.317 8.3349-4.5027 5.2074-10.369 10.235-14.852 12.728-1.012 0.56275-1.2154 0.62629-1.0996 0.34352z"/>
   <path d="m208.71 441.33c-6.5819-0.34847-12.248-1.8317-17.904-4.6869l-1.0619-0.53605 1.8308-0.95859c2.2077-1.1559 4.2369-2.4891 6.3902-4.1983 2.3773-1.887 7.237-6.7586 10.432-10.457l0.58272-0.67462 1.0522 0.71451c5.0697 3.4428 10.094 8.8473 14.843 15.967 1.6694 2.5027 2.0985 3.2151 1.997 3.3152-0.11084 0.10928-4.1722 0.79383-6.3322 1.0673-2.0406 0.25836-7.9119 0.65911-8.8717 0.60554-0.24643-0.0138-1.5772-0.0848-2.9572-0.15786z"/>
   <path d="m215.69 419.29c-0.84308-0.71819-2.8398-2.2153-4.0693-3.0513-0.0868-0.059 0.28903-0.73031 0.8353-1.4917 2.1523-2.9999 4.3677-7.2197 5.7433-10.94 1.219-3.2966 2.2655-8.2103 2.6153-12.28 0.10572-1.23 0.22351-2.2676 0.26175-2.3058 0.0382-0.0382 1.4246 0.0203 3.0807 0.12999 3.9528 0.26192 9.2592 1.3373 12.632 2.56l0.65961 0.2391-0.6701 1.9715c-1.8278 5.3774-5.0389 11.257-8.5654 15.682-1.7169 2.1546-5.0338 5.5224-7.1387 7.2481-1.6574 1.3588-4.068 3.147-4.2423 3.147-0.041 0-0.55503-0.40926-1.1422-0.90946z"/>
   <path d="m186 392.07c-0.25443-0.35283-0.95164-1.1743-1.5494-1.8255l-1.0868-1.184 2.8899-2.998c7.1766-7.4452 13.356-12.073 21.559-16.145 7.5064-3.7261 15.283-5.8503 24.207-6.6122l1.087-0.0928-0.14797 1.2932c-0.41077 3.59-1.7727 9.2676-3.1042 12.941-0.71489 1.9722-1.6174 4.1645-3.0083 7.3078l-0.37781 0.85382-2.6966-0.1168c-1.4831-0.0642-2.7166-0.13241-2.741-0.1515-0.0245-0.0191-0.12815-1.0653-0.23043-2.3249-0.18702-2.303-0.71033-5.6851-1.08-6.9802l-0.19889-0.69667-1.8205 0.12539c-4.0172 0.27668-8.112 1.1918-11.715 2.6182-7.6431 3.0258-13.857 7.4969-18.444 13.271l-1.0792 1.3584z"/>
   <path d="m193.38 374.24c0-2.5573-1.0414-9.8976-1.9982-14.084l-0.55229-2.4167 0.78235-0.69686c2.6556-2.3655 7.6867-5.6286 11.536-7.4821 2.0886-1.0057 5.8714-2.4907 6.3448-2.4907 0.38917 0 2.2738 6.8358 2.8658 10.395 0.30784 1.8506 0.78447 6.4759 0.67669 6.5668-0.0165 0.0139-1.0784 0.44792-2.3599 0.96448-5.4771 2.2079-12.55 6.2754-16.713 9.6119l-0.58248 0.46682z"/>
   <path d="m178.69 384.75c2e-5 -0.0739 0.52982-1.6668 1.1774-3.5397 1.6342-4.7268 2.1755-7.2784 1.9347-9.1206-0.15324-1.1725-1.1753-2.321-1.9829-2.2282-1.2971 0.14903-2.8354 4.6833-4.0788 12.023-0.12036 0.71045-0.21612 0.71974-1.0405 0.10096-0.3014-0.22622-0.29856-0.42729 0.0617-4.3594 0.27337-2.984 0.35453-4.914 0.29394-6.9898-0.12271-4.2039-0.53484-5.2355-2.165-5.4192-0.69251-0.0781-0.83122-0.0346-1.0694 0.33484-0.85858 1.3319-1.0982 7.1322-0.56591 13.696 0.2577 3.1773 0.25535 3.3651-0.0448 3.5929-0.1742 0.13218-0.36323 0.2429-0.42009 0.24603-0.0568 3e-3 -0.28992-1.0629-0.51793-2.369-0.51064-2.9251-1.4614-6.5784-2.0704-7.9555-1.0276-2.3235-1.8282-2.7498-2.9635-1.5782l-0.61764 0.63737 0.0157 1.827c0.0182 2.1207 0.45783 4.0166 1.8648 8.0419 0.48929 1.3998 0.86054 2.5742 0.82499 2.6098-0.0356 0.0356-0.40814-0.56437-0.82798-1.3332-0.41983-0.7688-1.272-2.1722-1.8937-3.1186-2.7747-4.2239-4.5472-5.5435-5.4522-4.0593-0.19533 0.32037-0.35545 0.75381-0.35582 0.96321-2e-3 1.148 1.2763 3.3146 3.4178 5.7929 0.69976 0.80979 1.2413 1.5033 1.2035 1.5411-0.0378 0.0378-1.308-1.1724-2.8226-2.6893l-2.7538-2.7581 0.21432-2.558c0.55958-6.6789 1.8165-14.028 3.3487-19.579 1.2035-4.3602 3.6852-11.149 5.8069-15.886 1.8434-4.1156 6.4352-12.511 6.9307-12.671 0.22561-0.0731 3.2643 5.2147 5.1885 9.0289 4.288 8.4998 7.4283 17.338 9.1265 25.687 0.87664 4.3098 1.7 11.116 1.7025 14.073l9e-4 1.0789-1.7026 1.6956c-0.93646 0.93256-1.7026 1.6011-1.7026 1.4856s0.0822-0.26071 0.18264-0.32279c0.28847-0.17829 1.0112-1.725 1.1416-2.4431 0.0987-0.54346 0.04-0.74634-0.34995-1.2098-0.27095-0.32201-0.6402-0.55681-0.87565-0.55681-0.45586 0-1.4937 0.64511-2.4074 1.4964-0.83168 0.7749-3.1302 3.6792-4.3194 5.4578-0.54034 0.80816-1.0847 1.4694-1.2098 1.4694s-0.22732-0.0605-0.22731-0.13442z"/>
   <path d="m153.94 375.31c-4.2664-3.3864-10.62-7.1142-16.389-9.615-1.5227-0.66016-1.9847-0.94071-2.0296-1.2324-0.0878-0.57007 0.47496-4.832 0.96036-7.2727 0.7916-3.9805 2.7236-9.9384 3.2228-9.9384 0.75956 0 6.9012 2.9254 9.6285 4.5863 2.8358 1.727 7.892 5.6188 8.1402 6.2657 0.0546 0.14229-0.10775 1.2067-0.36079 2.3653-1.0108 4.6285-1.4238 7.3449-1.8797 12.364l-0.29683 3.2678z"/>
   <path d="m159.78 391.29c-4.7154-6.1783-11.912-11.029-20.372-13.73-2.3451-0.74891-8.7219-2.0292-10.264-2.0608l-1.2472-0.0255-0.30359 1.2931c-0.3129 1.3327-0.77044 4.4203-0.97032 6.548l-0.11365 1.2098-1.554 1e-3c-0.85468 7.2e-4 -2.0878 0.0517-2.7403 0.11334l-1.1863 0.11207-0.90257-2.3089c-1.1048-2.8262-1.9855-5.5539-2.8096-8.7023-1.0948-4.1825-2.0641-10.364-1.625-10.364 0.10779 0 1.1292 0.11576 2.2697 0.25725 9.6408 1.196 19.312 4.5688 27.371 9.546 5.8576 3.6173 10.257 7.211 15.776 12.888l3.2466 3.3392-0.54219 0.65087c-0.29821 0.35798-0.96375 1.1926-1.479 1.8547-0.51522 0.66209-0.98517 1.2065-1.0443 1.2098-0.0592 3e-3 -0.73849-0.8207-1.5096-1.8311z"/>
   <path d="m131.45 420.08c-3.9159-2.6065-7.8648-6.2063-10.69-9.7452-4.032-5.0498-7.4573-11.797-9.1654-18.055-0.24854-0.91048-0.39409-1.6911-0.32345-1.7348 0.29137-0.18008 3.8399-1.0077 5.7596-1.3434 2.4333-0.42544 4.6596-0.66962 7.6341-0.83731l2.1677-0.12221 0.11026 2.3985c0.41206 8.9635 4.0036 18.36 10.07 26.348l0.62957 0.82888-1.6584 1.3477c-0.91212 0.74122-1.812 1.5175-1.9998 1.7251-0.18778 0.20757-0.43336 0.3774-0.54573 0.3774s-1.0072-0.53442-1.9885-1.1876z"/>
   <rect x="145.89" y="363.83" width="58.965" height="29.214"/>
  </g>
  <g clip-path="url(#clipPath1304)" filter="url(#blur)">
   <path d="m0 0h512v384h-512v-384z" fill="#498eb8"/>
   <path d="m512 0h512v384h-512v-384z" fill="#7c768e"/>
   <path d="m512 384h512v384h-512v-384z" fill="#af5f65"/>
   <path d="m0 384h512v384h-512v-384z" fill="#e2483c"/>
  </g>
 </g>
</svg>
